{
.appVersion = "1075";
classes = (
{
automatic = 1;
code = "A Aacute Acircumflex Adieresis Agrave Aring Atilde AE B C Ccedilla D Eth E Eacute Ecircumflex Edieresis Egrave F G H I Iacute Icircumflex Idieresis Igrave J K L M N Ntilde O Oacute Ocircumflex Odieresis Ograve Oslash Otilde OE P Thorn Q R S T U Uacute Ucircumflex Udieresis Ugrave V W X Y Yacute Z";
name = Uppercase;
}
);
copyright = "Copyright 2011 The Sirin Stencil Project Authors (https://github.com/cyrealtype/Sirin-Stencil)";
customParameters = (
{
name = licenseURL;
value = "http://scripts.sil.org/OFL";
},
{
name = license;
value = "This Font Software is licensed under the SIL Open Font License, Version 1.1. This license is available with a FAQ at: http://scripts.sil.org/OFL";
},
{
name = fsType;
value = (
);
},
{
name = "Use Typo Metrics";
value = 1;
},
{
name = "Disable Last Change";
value = 1;
},
{
name = "Use Line Breaks";
value = 1;
}
);
date = "2018-02-01 10:40:12 +0000";
designer = "Olga Karpushina";
designerURL = "http://cyreal.org";
familyName = "Sirin Stencil";
featurePrefixes = (
{
automatic = 1;
code = "languagesystem DFLT dflt;
";
name = Languagesystems;
}
);
features = (
{
automatic = 1;
code = "feature ccmp;
feature sups;
feature frac;
feature ordn;
feature case;
";
name = aalt;
},
{
automatic = 1;
code = "lookup ccmp_Other_1 {
	@Markscomb = [acute caron circumflex dieresis grave tilde];
	@MarkscombCase = [acute.case caron.case circumflex.case dieresis.case grave.case tilde.case];
	sub @Markscomb @Markscomb' by @MarkscombCase;
	sub @Uppercase @Markscomb' by @MarkscombCase;
} ccmp_Other_1;

lookup ccmp_Other_2 {
	sub @Markscomb' @MarkscombCase by @MarkscombCase;
	sub @MarkscombCase @Markscomb' by @MarkscombCase;
} ccmp_Other_2;
";
name = ccmp;
},
{
automatic = 1;
code = "sub one by onesuperior;
sub two by twosuperior;
sub three by threesuperior;
sub four by foursuperior;
";
name = sups;
},
{
automatic = 1;
code = "sub one slash four by onequarter;
sub one slash two by onehalf;

glyphs = (
{
glyphname = A;
layers = (
{
anchors = (
{
name = bottom;
position = "{256, 0}";
},
{
name = ogonek;
position = "{460, 10}";
},
{
name = top;
position = "{256, 695}";
}
);
layerId = UUID0;
paths = (
{
closed = 1;
nodes = (
"300 679 LINE SMOOTH",
"294 696 OFFCURVE",
"291 700 OFFCURVE",
"280 700 CURVE SMOOTH",
"265 700 OFFCURVE",
"211 668 OFFCURVE",
"211 636 CURVE SMOOTH",
"211 630 OFFCURVE",
"215 617 OFFCURVE",
"216 613 CURVE",
"419 20 LINE SMOOTH",
"424 6 OFFCURVE",
"431 -5 OFFCURVE",
"444 -5 CURVE SMOOTH",
"466 -5 OFFCURVE",
"511 27 OFFCURVE",
"511 57 CURVE SMOOTH",
"511 62 OFFCURVE",
"509 70 OFFCURVE",
"508 74 CURVE"
);
},
{
closed = 1;
nodes = (
"291 211 LINE SMOOTH",
"304 211 OFFCURVE",
"312 216 OFFCURVE",
"312 227 CURVE SMOOTH",
"312 235 OFFCURVE",
"308 260 OFFCURVE",
"301 275 CURVE SMOOTH",
"293 291 OFFCURVE",
"283 291 OFFCURVE",
"253 291 CURVE SMOOTH",
"202 291 LINE SMOOTH",
"193 291 OFFCURVE",
"187 295 OFFCURVE",
"187 304 CURVE SMOOTH",
"187 306 OFFCURVE",
"187 309 OFFCURVE",
"188 311 CURVE",
"226 427 LINE",
"229 438 OFFCURVE",
"231 447 OFFCURVE",
"231 456 CURVE SMOOTH",
"231 470 OFFCURVE",
"223 500 OFFCURVE",
"218 515 CURVE SMOOTH",
"210 540 OFFCURVE",
"203 555 OFFCURVE",
"192 555 CURVE SMOOTH",
"185 555 OFFCURVE",
"180 547 OFFCURVE",
"176 536 CURVE SMOOTH",
"76 237 LINE",
"75 233 OFFCURVE",
"74 230 OFFCURVE",
"74 227 CURVE SMOOTH",
"74 216 OFFCURVE",
"82 211 OFFCURVE",
"93 211 CURVE SMOOTH"
);
},
{
closed = 1;
nodes = (
"139 150 LINE",
"141 157 OFFCURVE",
"142 161 OFFCURVE",
"142 165 CURVE SMOOTH",
"142 182 OFFCURVE",
"123 182 OFFCURVE",
"100 182 CURVE SMOOTH",
"71 182 OFFCURVE",
"59 182 OFFCURVE",
"50 154 CURVE SMOOTH",
"3 20 LINE SMOOTH",
"2 17 OFFCURVE",
"1 14 OFFCURVE",
"1 11 CURVE SMOOTH",
"1 0 OFFCURVE",
"10 -5 OFFCURVE",
"19 -5 CURVE SMOOTH",
"63 -5 OFFCURVE",
"99 28 OFFCURVE",
"112 68 CURVE SMOOTH"
);
}
);
width = 511;
}
);
unicode = 0041;
},
{
glyphname = AE;
layers = (
{
layerId = UUID0;
paths = (
{
closed = 1;
nodes = (
"409 685 LINE SMOOTH",
"371 685 OFFCURVE",
"324 643 OFFCURVE",
"324 620 CURVE SMOOTH",
"324 606 OFFCURVE",
"332 605 OFFCURVE",
"344 605 CURVE SMOOTH",
"624 605 LINE SMOOTH",
"637 605 OFFCURVE",
"649 606 OFFCURVE",
"660 615 CURVE",
"680 633 OFFCURVE",
"693 663 OFFCURVE",
"693 670 CURVE SMOOTH",
"693 681 OFFCURVE",
"686 685 OFFCURVE",
"672 685 CURVE SMOOTH"
);
},
{
closed = 1;
nodes = (
"324 544 OFFCURVE",
"326 537 OFFCURVE",
"327 530 CURVE SMOOTH",
"366 294 LINE SMOOTH",
"370 272 OFFCURVE",
"374 263 OFFCURVE",
"398 263 CURVE SMOOTH",
"628 263 LINE SMOOTH",
"642 263 OFFCURVE",
"654 264 OFFCURVE",
"665 273 CURVE",
"685 291 OFFCURVE",
"697 321 OFFCURVE",
"697 328 CURVE SMOOTH",
"697 339 OFFCURVE",
"690 343 OFFCURVE",
"676 343 CURVE SMOOTH",
"473 343 LINE SMOOTH",
"461 343 OFFCURVE",
"455 349 OFFCURVE",
"453 363 CURVE SMOOTH",
"422 546 LINE SMOOTH",
"417 571 OFFCURVE",
"408 576 OFFCURVE",
"374 576 CURVE SMOOTH",
"346 576 OFFCURVE",
"324 572 OFFCURVE",
"324 552 CURVE SMOOTH"
);
},
{
closed = 1;
nodes = (
"316 263 LINE SMOOTH",
"330 263 OFFCURVE",
"337 268 OFFCURVE",
"337 279 CURVE SMOOTH",
"337 287 OFFCURVE",
"333 318 OFFCURVE",
"331 327 CURVE",
"327 341 OFFCURVE",
"317 343 OFFCURVE",
"301 343 CURVE SMOOTH",
"266 343 LINE SMOOTH",
"254 343 OFFCURVE",
"250 348 OFFCURVE",
"250 355 CURVE SMOOTH",
"250 357 OFFCURVE",
"250 360 OFFCURVE",
"251 363 CURVE",
"295 449 LINE SMOOTH",
"299 457 OFFCURVE",
"303 468 OFFCURVE",
"303 481 CURVE SMOOTH",
"303 493 OFFCURVE",
"301 515 OFFCURVE",
"298 532 CURVE SMOOTH",
"292 562 OFFCURVE",
"284 572 OFFCURVE",
"273 572 CURVE SMOOTH",
"265 572 OFFCURVE",
"258 566 OFFCURVE",
"253 555 CURVE SMOOTH",
"130 302 LINE SMOOTH",
"125 292 OFFCURVE",
"123 284 OFFCURVE",
"123 277 CURVE SMOOTH",
"123 269 OFFCURVE",
"128 263 OFFCURVE",
"141 263 CURVE SMOOTH"
);
},
{
closed = 1;
nodes = (
"187 198 LINE SMOOTH",
"190 204 OFFCURVE",
"192 212 OFFCURVE",
"192 216 CURVE SMOOTH",
"192 233 OFFCURVE",
"171 233 OFFCURVE",
"148 233 CURVE SMOOTH",
"119 233 OFFCURVE",
"109 229 OFFCURVE",
"98 206 CURVE SMOOTH",
"7 29 LINE SMOOTH",
"1 17 OFFCURVE",
"1 12 OFFCURVE",
"1 9 CURVE SMOOTH",
"1 0 OFFCURVE",
"7 -5 OFFCURVE",
"16 -5 CURVE SMOOTH",
"61 -5 OFFCURVE",
"103 31 OFFCURVE",
"122 68 CURVE SMOOTH"
);
},
{
closed = 1;
nodes = (
"377 206 OFFCURVE",
"378 199 OFFCURVE",
"379 193 CURVE SMOOTH",
"405 29 LINE SMOOTH",
"409 6 OFFCURVE",
"421 0 OFFCURVE",
"433 0 CURVE SMOOTH",
"711 0 LINE SMOOTH",
"725 0 OFFCURVE",
"737 1 OFFCURVE",
"748 10 CURVE SMOOTH",
"768 27 OFFCURVE",
"780 58 OFFCURVE",
"780 65 CURVE SMOOTH",
"780 76 OFFCURVE",
"773 80 OFFCURVE",
"759 80 CURVE SMOOTH",
"519 80 LINE SMOOTH",
"507 80 OFFCURVE",
"499 86 OFFCURVE",
"496 100 CURVE",
"478 205 LINE",
"473 229 OFFCURVE",
"458 233 OFFCURVE",
"424 233 CURVE SMOOTH",
"396 233 OFFCURVE",
"377 230 OFFCURVE",
"377 210 CURVE SMOOTH"
);
}
);
width = 815;
}
);
unicode = 00C6;
},
{
glyphname = B;
layers = (
{
anchors = (
{
name = bottom;
position = "{282, 0}";
},
{
name = top;
position = "{282, 695}";
}
);
layerId = UUID0;
paths = (
{
closed = 1;
nodes = (
"185 606 LINE SMOOTH",
"273 606 OFFCURVE",
"355 592 OFFCURVE",
"355 477 CURVE SMOOTH",
"355 426 OFFCURVE",
"330 384 OFFCURVE",
"297 360 CURVE SMOOTH",
"286 352 OFFCURVE",
"285 348 OFFCURVE",
"285 345 CURVE SMOOTH",
"285 341 OFFCURVE",
"288 338 OFFCURVE",
"293 337 CURVE",
"387 322 OFFCURVE",
"415 263 OFFCURVE",
"415 193 CURVE SMOOTH",
"415 109 OFFCURVE",
"377 55 OFFCURVE",
"297 20 CURVE",
"293 18 OFFCURVE",
"289 15 OFFCURVE",
"289 9 CURVE SMOOTH",
"289 2 OFFCURVE",
"295 0 OFFCURVE",
"306 0 CURVE SMOOTH",
"456 0 OFFCURVE",
"519 109 OFFCURVE",
"519 195 CURVE SMOOTH",
"519 295 OFFCURVE",
"473 346 OFFCURVE",
"389 374 CURVE",
"384 376 OFFCURVE",
"382 379 OFFCURVE",
"382 383 CURVE SMOOTH",
"382 387 OFFCURVE",
"386 391 OFFCURVE",
"390 394 CURVE SMOOTH",
"437 431 OFFCURVE",
"449 478 OFFCURVE",
"449 513 CURVE SMOOTH",
"449 676 OFFCURVE",
"311 687 OFFCURVE",
"231 687 CURVE SMOOTH",
"201 687 OFFCURVE",
"181 687 OFFCURVE",
"149 685 CURVE SMOOTH",
"111 683 OFFCURVE",
"65 645 OFFCURVE",
"65 617 CURVE SMOOTH",
"65 607 OFFCURVE",
"73 606 OFFCURVE",
"84 606 CURVE SMOOTH"
);
},
{
closed = 1;
nodes = (
"65 21 LINE SMOOTH",
"65 7 OFFCURVE",
"71 0 OFFCURVE",
"85 0 CURVE SMOOTH",
"161 0 LINE SMOOTH",
"224 0 OFFCURVE",
"309 47 OFFCURVE",
"309 68 CURVE SMOOTH",
"309 80 OFFCURVE",
"297 80 OFFCURVE",
"288 80 CURVE SMOOTH",
"183 80 LINE SMOOTH",
"169 80 OFFCURVE",
"163 89 OFFCURVE",
"163 100 CURVE SMOOTH",
"163 313 LINE SMOOTH",
"163 327 OFFCURVE",
"169 336 OFFCURVE",
"183 339 CURVE SMOOTH",
"205 343 OFFCURVE",
"235 348 OFFCURVE",
"253 358 CURVE SMOOTH",
"276 371 OFFCURVE",
"290 392 OFFCURVE",
"290 399 CURVE SMOOTH",
"290 410 OFFCURVE",
"281 412 OFFCURVE",
"269 412 CURVE SMOOTH",
"183 412 LINE SMOOTH",
"169 412 OFFCURVE",
"163 421 OFFCURVE",
"163 432 CURVE SMOOTH",
"163 547 LINE SMOOTH",
"163 573 OFFCURVE",
"148 577 OFFCURVE",
"114 577 CURVE SMOOTH",
"84 577 OFFCURVE",
"65 573 OFFCURVE",
"65 547 CURVE SMOOTH"
);
}
);
width = 564;
}
);
unicode = 0042;
},
{
glyphname = C;
layers = (
{
anchors = (
{
name = bottom;
position = "{270, 0}";
},
{
name = top;
position = "{270, 695}";
}
);
layerId = UUID0;
paths = (
{
closed = 1;
nodes = (
"495 660 OFFCURVE",
"474 669 OFFCURVE",
"464 674 CURVE SMOOTH",
"435 688 OFFCURVE",
"388 700 OFFCURVE",
"345 700 CURVE SMOOTH",
"226 700 OFFCURVE",
"154 655 OFFCURVE",
"98 586 CURVE",
"89 574 OFFCURVE",
"72 549 OFFCURVE",
"72 537 CURVE SMOOTH",
"72 527 OFFCURVE",
"77 525 OFFCURVE",
"83 525 CURVE SMOOTH",
"90 525 OFFCURVE",
"103 537 OFFCURVE",
"115 547 CURVE SMOOTH",
"164 590 OFFCURVE",
"218 620 OFFCURVE",
"286 620 CURVE SMOOTH",
"330 620 OFFCURVE",
"359 608 OFFCURVE",
"382 598 CURVE SMOOTH",
"399 591 OFFCURVE",
"411 584 OFFCURVE",
"426 584 CURVE SMOOTH",
"439 584 OFFCURVE",
"450 589 OFFCURVE",
"459 596 CURVE SMOOTH",
"474 607 OFFCURVE",
"495 626 OFFCURVE",
"495 642 CURVE SMOOTH"
);
},
{
closed = 1;
nodes = (
"174 527 OFFCURVE",
"164 528 OFFCURVE",
"159 528 CURVE SMOOTH",
"131 528 OFFCURVE",
"90 500 OFFCURVE",
"73 467 CURVE SMOOTH",
"61 443 OFFCURVE",
"50 382 OFFCURVE",
"50 304 CURVE SMOOTH",
"50 106 OFFCURVE",
"103 -15 OFFCURVE",
"297 -15 CURVE SMOOTH",
"456 -15 OFFCURVE",
"505 84 OFFCURVE",
"505 105 CURVE SMOOTH",
"505 113 OFFCURVE",
"501 117 OFFCURVE",
"493 117 CURVE SMOOTH",
"474 117 OFFCURVE",
"436 67 OFFCURVE",
"334 67 CURVE SMOOTH",
"180 67 OFFCURVE",
"152 197 OFFCURVE",
"152 328 CURVE SMOOTH",
"152 433 OFFCURVE",
"174 490 OFFCURVE",
"174 513 CURVE SMOOTH"
);
}
);
width = 540;
}
);
unicode = 0043;
},
{
glyphname = D;
layers = (
{
anchors = (
{
name = bottom;
position = "{301, 0}";
},
{
name = center;
position = "{301, 348}";
},
{
name = top;
position = "{301, 695}";
}
);
layerId = UUID0;
paths = (
{
closed = 1;
nodes = (
"163 605 LINE SMOOTH",
"385 602 OFFCURVE",
"454 486 OFFCURVE",
"454 323 CURVE SMOOTH",
"454 151 OFFCURVE",
"388 74 OFFCURVE",
"281 25 CURVE SMOOTH",
"275 22 OFFCURVE",
"270 18 OFFCURVE",
"270 11 CURVE SMOOTH",
"270 2 OFFCURVE",
"278 0 OFFCURVE",
"287 0 CURVE SMOOTH",
"437 0 OFFCURVE",
"556 151 OFFCURVE",
"556 338 CURVE SMOOTH",
"556 591 OFFCURVE",
"393 686 OFFCURVE",
"190 686 CURVE SMOOTH",
"184 686 OFFCURVE",
"165 686 OFFCURVE",
"151 685 CURVE SMOOTH",
"110 682 OFFCURVE",
"65 645 OFFCURVE",
"65 617 CURVE SMOOTH",
"65 607 OFFCURVE",
"73 605 OFFCURVE",
"84 605 CURVE SMOOTH"
);
},
{
closed = 1;
nodes = (
"65 21 LINE SMOOTH",
"65 7 OFFCURVE",
"71 0 OFFCURVE",
"85 0 CURVE SMOOTH",
"133 0 LINE SMOOTH",
"197 0 OFFCURVE",
"285 48 OFFCURVE",
"285 68 CURVE SMOOTH",
"285 80 OFFCURVE",
"273 80 OFFCURVE",
"264 80 CURVE SMOOTH",
"183 80 LINE SMOOTH",
"169 80 OFFCURVE",
"163 89 OFFCURVE",
"163 100 CURVE SMOOTH",
"163 547 LINE SMOOTH",
"163 572 OFFCURVE",
"148 576 OFFCURVE",
"114 576 CURVE SMOOTH",
"84 576 OFFCURVE",
"65 572 OFFCURVE",
"65 547 CURVE SMOOTH"
);
}
);
width = 601;
}
);
unicode = 0044;
},
{
glyphname = Eth;
layers = (
{
layerId = UUID0;
paths = (
{
closed = 1;
nodes = (
"282 605 LINE SMOOTH",
"504 602 OFFCURVE",
"573 486 OFFCURVE",
"573 323 CURVE SMOOTH",
"573 151 OFFCURVE",
"510 74 OFFCURVE",
"403 25 CURVE SMOOTH",
"397 22 OFFCURVE",
"392 18 OFFCURVE",
"392 11 CURVE SMOOTH",
"392 2 OFFCURVE",
"400 0 OFFCURVE",
"409 0 CURVE SMOOTH",
"559 0 OFFCURVE",
"675 151 OFFCURVE",
"675 338 CURVE SMOOTH",
"675 591 OFFCURVE",
"512 686 OFFCURVE",
"309 686 CURVE SMOOTH",
"303 686 OFFCURVE",
"284 686 OFFCURVE",
"270 685 CURVE SMOOTH",
"229 682 OFFCURVE",
"184 645 OFFCURVE",
"184 617 CURVE SMOOTH",
"184 607 OFFCURVE",
"192 605 OFFCURVE",
"203 605 CURVE SMOOTH"
);
},
{
closed = 1;
nodes = (
"184 393 LINE SMOOTH",
"184 381 OFFCURVE",
"180 373 OFFCURVE",
"164 373 CURVE SMOOTH",
"134 373 LINE SMOOTH",
"121 373 OFFCURVE",
"108 372 OFFCURVE",
"98 363 CURVE SMOOTH",
"78 345 OFFCURVE",
"65 325 OFFCURVE",
"65 317 CURVE SMOOTH",
"65 307 OFFCURVE",
"72 302 OFFCURVE",
"86 302 CURVE SMOOTH",
"346 302 LINE SMOOTH",
"359 302 OFFCURVE",
"372 304 OFFCURVE",
"382 313 CURVE SMOOTH",
"402 331 OFFCURVE",
"415 351 OFFCURVE",
"415 357 CURVE SMOOTH",
"415 369 OFFCURVE",
"408 373 OFFCURVE",
"394 373 CURVE SMOOTH",
"302 373 LINE SMOOTH",
"287 373 OFFCURVE",
"282 381 OFFCURVE",
"282 393 CURVE SMOOTH",
"282 547 LINE SMOOTH",
"282 572 OFFCURVE",
"267 576 OFFCURVE",
"233 576 CURVE SMOOTH",
"203 576 OFFCURVE",
"184 572 OFFCURVE",
"184 547 CURVE SMOOTH"
);
},
{
closed = 1;
nodes = (
"184 21 LINE SMOOTH",
"184 7 OFFCURVE",
"190 0 OFFCURVE",
"201 0 CURVE SMOOTH",
"252 0 LINE SMOOTH",
"337 0 OFFCURVE",
"404 48 OFFCURVE",
"404 68 CURVE SMOOTH",
"404 80 OFFCURVE",
"392 80 OFFCURVE",
"383 80 CURVE SMOOTH",
"302 80 LINE SMOOTH",
"288 80 OFFCURVE",
"282 89 OFFCURVE",
"282 100 CURVE SMOOTH",
"282 243 LINE SMOOTH",
"282 268 OFFCURVE",
"267 273 OFFCURVE",
"233 273 CURVE SMOOTH",
"203 273 OFFCURVE",
"184 268 OFFCURVE",
"184 243 CURVE SMOOTH"
);
}
);
width = 720;
}
);
unicode = 00D0;
},
{
glyphname = E;
layers = (
{
anchors = (
{
name = bottom;
position = "{240, 0}";
},
{
name = ogonek;
position = "{431, 10}";
},
{
name = top;
position = "{240, 695}";
},
{
name = topleft;
position = "{20, 695}";
}
);
layerId = UUID0;
paths = (
{
closed = 1;
nodes = (
"149 685 LINE SMOOTH",
"111 685 OFFCURVE",
"65 643 OFFCURVE",
"65 620 CURVE SMOOTH",
"65 606 OFFCURVE",
"72 605 OFFCURVE",
"84 605 CURVE SMOOTH",
"365 605 LINE SMOOTH",
"377 605 OFFCURVE",
"390 606 OFFCURVE",
"400 615 CURVE SMOOTH",
"420 633 OFFCURVE",
"434 663 OFFCURVE",
"434 670 CURVE SMOOTH",
"434 681 OFFCURVE",
"426 685 OFFCURVE",
"413 685 CURVE SMOOTH"
);
},
{
closed = 1;
nodes = (
"65 340 LINE SMOOTH",
"65 329 OFFCURVE",
"71 320 OFFCURVE",
"85 320 CURVE SMOOTH",
"334 320 LINE SMOOTH",
"348 320 OFFCURVE",
"360 321 OFFCURVE",
"371 330 CURVE",
"391 348 OFFCURVE",
"403 378 OFFCURVE",
"403 385 CURVE SMOOTH",
"403 396 OFFCURVE",
"396 400 OFFCURVE",
"382 400 CURVE SMOOTH",
"184 400 LINE SMOOTH",
"172 400 OFFCURVE",
"164 406 OFFCURVE",
"164 420 CURVE SMOOTH",
"164 546 LINE SMOOTH",
"164 572 OFFCURVE",
"148 576 OFFCURVE",
"115 576 CURVE SMOOTH",
"84 576 OFFCURVE",
"65 572 OFFCURVE",
"65 546 CURVE SMOOTH"
);
},
{
closed = 1;
nodes = (
"65 21 LINE SMOOTH",
"65 7 OFFCURVE",
"71 0 OFFCURVE",
"83 0 CURVE SMOOTH",
"375 0 LINE SMOOTH",
"388 0 OFFCURVE",
"400 1 OFFCURVE",
"411 10 CURVE SMOOTH",
"431 27 OFFCURVE",
"443 58 OFFCURVE",
"443 65 CURVE SMOOTH",
"443 76 OFFCURVE",
"437 80 OFFCURVE",
"422 80 CURVE SMOOTH",
"184 80 LINE SMOOTH",
"172 80 OFFCURVE",
"164 86 OFFCURVE",
"164 100 CURVE SMOOTH",
"164 262 LINE SMOOTH",
"164 287 OFFCURVE",
"148 291 OFFCURVE",
"115 291 CURVE SMOOTH",
"84 291 OFFCURVE",
"65 287 OFFCURVE",
"65 262 CURVE SMOOTH"
);
}
);
width = 479;
}
);
unicode = 0045;
},
{
glyphname = F;
layers = (
{
anchors = (
{
name = bottom;
position = "{237, 0}";
},
{
name = top;
position = "{237, 695}";
}
);
layerId = UUID0;
paths = (
{
closed = 1;
nodes = (
"149 685 LINE SMOOTH",
"111 685 OFFCURVE",
"65 643 OFFCURVE",
"65 620 CURVE SMOOTH",
"65 606 OFFCURVE",
"72 605 OFFCURVE",
"84 605 CURVE SMOOTH",
"375 605 LINE SMOOTH",
"388 605 OFFCURVE",
"400 606 OFFCURVE",
"411 615 CURVE",
"431 633 OFFCURVE",
"443 663 OFFCURVE",
"443 670 CURVE SMOOTH",
"443 681 OFFCURVE",
"437 685 OFFCURVE",
"422 685 CURVE SMOOTH"
);
},
{
closed = 1;
nodes = (
"65 330 LINE SMOOTH",
"65 319 OFFCURVE",
"71 310 OFFCURVE",
"85 310 CURVE SMOOTH",
"334 310 LINE SMOOTH",
"348 310 OFFCURVE",
"360 311 OFFCURVE",
"371 320 CURVE SMOOTH",
"391 337 OFFCURVE",
"403 368 OFFCURVE",
"403 375 CURVE SMOOTH",
"403 386 OFFCURVE",
"396 390 OFFCURVE",
"382 390 CURVE SMOOTH",
"184 390 LINE SMOOTH",
"172 390 OFFCURVE",
"164 396 OFFCURVE",
"164 410 CURVE SMOOTH",
"164 546 LINE SMOOTH",
"164 572 OFFCURVE",
"148 576 OFFCURVE",
"115 576 CURVE SMOOTH",
"84 576 OFFCURVE",
"65 572 OFFCURVE",
"65 546 CURVE SMOOTH"
);
},
{
closed = 1;
nodes = (
"65 16 LINE SMOOTH",
"65 2 OFFCURVE",
"71 -5 OFFCURVE",
"83 -5 CURVE SMOOTH",
"101 -5 OFFCURVE",
"137 12 OFFCURVE",
"153 32 CURVE",
"163 43 OFFCURVE",
"164 55 OFFCURVE",
"164 68 CURVE SMOOTH",
"164 251 LINE SMOOTH",
"164 276 OFFCURVE",
"148 281 OFFCURVE",
"115 281 CURVE SMOOTH",
"84 281 OFFCURVE",
"65 276 OFFCURVE",
"65 251 CURVE SMOOTH"
);
}
);
width = 474;
}
);
unicode = 0046;
},
{
glyphname = G;
layers = (
{
anchors = (
{
name = bottom;
position = "{306, 0}";
},
{
name = top;
position = "{306, 685}";
}
);
layerId = UUID0;
paths = (
{
closed = 1;
nodes = (
"529 677 OFFCURVE",
"435 700 OFFCURVE",
"363 700 CURVE SMOOTH",
"244 700 OFFCURVE",
"165 659 OFFCURVE",
"98 586 CURVE SMOOTH",
"88 575 OFFCURVE",
"72 549 OFFCURVE",
"72 537 CURVE SMOOTH",
"72 527 OFFCURVE",
"77 525 OFFCURVE",
"83 525 CURVE SMOOTH",
"89 525 OFFCURVE",
"104 537 OFFCURVE",
"115 547 CURVE",
"165 589 OFFCURVE",
"235 620 OFFCURVE",
"304 620 CURVE SMOOTH",
"385 620 OFFCURVE",
"424 584 OFFCURVE",
"460 584 CURVE SMOOTH",
"482 584 OFFCURVE",
"529 615 OFFCURVE",
"529 642 CURVE SMOOTH"
);
},
{
closed = 1;
nodes = (
"171 524 OFFCURVE",
"163 527 OFFCURVE",
"154 527 CURVE SMOOTH",
"134 527 OFFCURVE",
"92 502 OFFCURVE",
"74 470 CURVE SMOOTH",
"59 443 OFFCURVE",
"50 387 OFFCURVE",
"50 299 CURVE SMOOTH",
"50 104 OFFCURVE",
"121 -15 OFFCURVE",
"293 -15 CURVE SMOOTH",
"403 -15 OFFCURVE",
"440 62 OFFCURVE",
"440 77 CURVE SMOOTH",
"440 82 OFFCURVE",
"439 90 OFFCURVE",
"428 90 CURVE SMOOTH",
"413 90 OFFCURVE",
"389 65 OFFCURVE",
"329 65 CURVE SMOOTH",
"196 65 OFFCURVE",
"151 173 OFFCURVE",
"151 309 CURVE SMOOTH",
"151 421 OFFCURVE",
"171 491 OFFCURVE",
"171 509 CURVE SMOOTH"
);
},
{
closed = 1;
nodes = (
"464 272 LINE SMOOTH",
"492 272 OFFCURVE",
"493 244 OFFCURVE",
"493 202 CURVE SMOOTH",
"493 148 OFFCURVE",
"486 88 OFFCURVE",
"462 48 CURVE SMOOTH",
"452 31 OFFCURVE",
"446 29 OFFCURVE",
"446 20 CURVE SMOOTH",
"446 15 OFFCURVE",
"450 12 OFFCURVE",
"455 12 CURVE SMOOTH",
"480 12 OFFCURVE",
"527 46 OFFCURVE",
"552 113 CURVE SMOOTH",
"567 156 OFFCURVE",
"577 214 OFFCURVE",
"577 267 CURVE SMOOTH",
"577 287 OFFCURVE",
"577 308 OFFCURVE",
"573 325 CURVE SMOOTH",
"569 345 OFFCURVE",
"564 352 OFFCURVE",
"539 352 CURVE SMOOTH",
"325 352 LINE SMOOTH",
"312 352 OFFCURVE",
"299 351 OFFCURVE",
"289 342 CURVE SMOOTH",
"269 324 OFFCURVE",
"256 294 OFFCURVE",
"256 287 CURVE SMOOTH",
"256 276 OFFCURVE",
"263 272 OFFCURVE",
"277 272 CURVE SMOOTH"
);
}
);
width = 612;
}
);
unicode = 0047;
},
{
glyphname = H;
layers = (
{
anchors = (
{
name = bottom;
position = "{306, 0}";
},
{
name = center;
position = "{306, 343}";
},
{
name = top;
position = "{306, 685}";
},
{
name = topleft;
position = "{20, 685}";
}
);
layerId = UUID0;
paths = (
{
closed = 1;
nodes = (
"392 324 LINE SMOOTH",
"414 324 OFFCURVE",
"418 336 OFFCURVE",
"418 365 CURVE SMOOTH",
"418 393 OFFCURVE",
"414 404 OFFCURVE",
"392 404 CURVE SMOOTH",
"183 404 LINE SMOOTH",
"169 404 OFFCURVE",
"163 414 OFFCURVE",
"163 424 CURVE SMOOTH",
"163 674 LINE SMOOTH",
"163 688 OFFCURVE",
"157 695 OFFCURVE",
"146 695 CURVE SMOOTH",
"127 695 OFFCURVE",
"92 675 OFFCURVE",
"75 655 CURVE SMOOTH",
"67 645 OFFCURVE",
"65 632 OFFCURVE",
"65 622 CURVE SMOOTH",
"65 344 LINE SMOOTH",
"65 333 OFFCURVE",
"71 324 OFFCURVE",
"85 324 CURVE SMOOTH"
);
},
{
closed = 1;
nodes = (
"546 674 LINE SMOOTH",
"546 688 OFFCURVE",
"540 695 OFFCURVE",
"529 695 CURVE SMOOTH",
"510 695 OFFCURVE",
"474 675 OFFCURVE",
"458 655 CURVE SMOOTH",
"450 645 OFFCURVE",
"448 631 OFFCURVE",
"448 622 CURVE SMOOTH",
"448 16 LINE SMOOTH",
"448 2 OFFCURVE",
"454 -5 OFFCURVE",
"464 -5 CURVE SMOOTH",
"482 -5 OFFCURVE",
"519 12 OFFCURVE",
"536 32 CURVE SMOOTH",
"545 42 OFFCURVE",
"546 55 OFFCURVE",
"546 68 CURVE SMOOTH"
);
},
{
closed = 1;
nodes = (
"65 16 LINE SMOOTH",
"65 2 OFFCURVE",
"71 -5 OFFCURVE",
"82 -5 CURVE SMOOTH",
"100 -5 OFFCURVE",
"136 12 OFFCURVE",
"153 32 CURVE SMOOTH",
"162 43 OFFCURVE",
"163 55 OFFCURVE",
"163 68 CURVE SMOOTH",
"163 266 LINE SMOOTH",
"163 291 OFFCURVE",
"148 295 OFFCURVE",
"114 295 CURVE SMOOTH",
"84 295 OFFCURVE",
"65 291 OFFCURVE",
"65 266 CURVE SMOOTH"
);
}
);
width = 611;
}
);
unicode = 0048;
},
{
glyphname = I;
layers = (
{
anchors = (
{
name = bottom;
position = "{114, 0}";
},
{
name = ogonek;
position = "{205, 10}";
},
{
name = top;
position = "{114, 685}";
},
{
name = topleft;
position = "{20, 685}";
}
);
layerId = UUID0;
paths = (
{
closed = 1;
nodes = (
"163 674 LINE SMOOTH",
"163 688 OFFCURVE",
"157 695 OFFCURVE",
"146 695 CURVE SMOOTH",
"127 695 OFFCURVE",
"92 675 OFFCURVE",
"75 655 CURVE SMOOTH",
"67 645 OFFCURVE",
"65 632 OFFCURVE",
"65 622 CURVE SMOOTH",
"65 16 LINE SMOOTH",
"65 2 OFFCURVE",
"71 -5 OFFCURVE",
"82 -5 CURVE SMOOTH",
"100 -5 OFFCURVE",
"136 12 OFFCURVE",
"153 32 CURVE SMOOTH",
"162 43 OFFCURVE",
"163 55 OFFCURVE",
"163 68 CURVE SMOOTH"
);
}
);
width = 228;
}
);
unicode = 0049;
},
{
glyphname = J;
layers = (
{
anchors = (
{
name = bottom;
position = "{161, 0}";
},
{
name = top;
position = "{161, 685}";
}
);
layerId = UUID0;
paths = (
{
closed = 1;
nodes = (
"256 674 LINE SMOOTH",
"256 688 OFFCURVE",
"250 695 OFFCURVE",
"239 695 CURVE SMOOTH",
"220 695 OFFCURVE",
"185 675 OFFCURVE",
"168 655 CURVE SMOOTH",
"160 645 OFFCURVE",
"158 632 OFFCURVE",
"158 622 CURVE SMOOTH",
"158 59 LINE SMOOTH",
"158 37 OFFCURVE",
"158 4 OFFCURVE",
"140 -26 CURVE",
"136 -32 OFFCURVE",
"131 -38 OFFCURVE",
"131 -43 CURVE SMOOTH",
"131 -50 OFFCURVE",
"137 -54 OFFCURVE",
"142 -54 CURVE SMOOTH",
"197 -54 OFFCURVE",
"256 15 OFFCURVE",
"256 125 CURVE SMOOTH"
);
},
{
closed = 1;
nodes = (
"95 -68 OFFCURVE",
"121 -6 OFFCURVE",
"121 10 CURVE SMOOTH",
"121 21 OFFCURVE",
"116 24 OFFCURVE",
"109 24 CURVE SMOOTH",
"97 24 OFFCURVE",
"84 12 OFFCURVE",
"64 12 CURVE SMOOTH",
"58 12 OFFCURVE",
"47 16 OFFCURVE",
"40 24 CURVE SMOOTH",
"26 40 OFFCURVE",
"22 43 OFFCURVE",
"12 43 CURVE SMOOTH",
"-11 43 OFFCURVE",
"-39 7 OFFCURVE",
"-39 -14 CURVE SMOOTH",
"-39 -23 OFFCURVE",
"-37 -30 OFFCURVE",
"-31 -38 CURVE",
"-8 -63 OFFCURVE",
"21 -68 OFFCURVE",
"36 -68 CURVE SMOOTH"
);
}
);
width = 321;
}
);
unicode = 004A;
},
{
glyphname = K;
layers = (
{
anchors = (
{
name = bottom;
position = "{271, 0}";
},
{
name = top;
position = "{271, 685}";
}
);
layerId = UUID0;
paths = (
{
closed = 1;
nodes = (
"163 674 LINE SMOOTH",
"163 688 OFFCURVE",
"157 695 OFFCURVE",
"146 695 CURVE SMOOTH",
"127 695 OFFCURVE",
"92 675 OFFCURVE",
"75 655 CURVE SMOOTH",
"67 645 OFFCURVE",
"65 632 OFFCURVE",
"65 622 CURVE SMOOTH",
"65 16 LINE SMOOTH",
"65 2 OFFCURVE",
"71 -5 OFFCURVE",
"82 -5 CURVE SMOOTH",
"100 -5 OFFCURVE",
"136 12 OFFCURVE",
"153 32 CURVE SMOOTH",
"162 43 OFFCURVE",
"163 55 OFFCURVE",
"163 68 CURVE SMOOTH"
);
},
{
closed = 1;
nodes = (
"426 15 LINE SMOOTH",
"432 7 OFFCURVE",
"440 -5 OFFCURVE",
"452 -5 CURVE SMOOTH",
"465 -5 OFFCURVE",
"482 0 OFFCURVE",
"504 34 CURVE SMOOTH",
"509 42 OFFCURVE",
"512 55 OFFCURVE",
"512 62 CURVE SMOOTH",
"512 73 OFFCURVE",
"507 81 OFFCURVE",
"502 88 CURVE SMOOTH",
"308 347 LINE SMOOTH",
"294 365 OFFCURVE",
"293 371 OFFCURVE",
"293 377 CURVE SMOOTH",
"293 386 OFFCURVE",
"298 395 OFFCURVE",
"307 406 CURVE SMOOTH",
"502 652 LINE SMOOTH",
"514 667 OFFCURVE",
"516 674 OFFCURVE",
"516 680 CURVE SMOOTH",
"516 694 OFFCURVE",
"500 695 OFFCURVE",
"489 695 CURVE SMOOTH",
"441 695 OFFCURVE",
"423 686 OFFCURVE",
"392 645 CURVE SMOOTH",
"208 401 LINE SMOOTH",
"196 386 OFFCURVE",
"191 373 OFFCURVE",
"191 362 CURVE SMOOTH",
"191 353 OFFCURVE",
"195 345 OFFCURVE",
"201 336 CURVE SMOOTH"
);
}
);
width = 541;
}
);
unicode = 004B;
},
{
glyphname = L;
layers = (
{
anchors = (
{
name = bottom;
position = "{229, 0}";
},
{
name = center;
position = "{229, 343}";
},
{
name = top;
position = "{229, 685}";
},
{
name = topright;
position = "{337, 685}";
}
);
layerId = UUID0;
paths = (
{
closed = 1;
nodes = (
"65 133 LINE SMOOTH",
"65 108 OFFCURVE",
"80 104 OFFCURVE",
"114 104 CURVE SMOOTH",
"144 104 OFFCURVE",
"163 108 OFFCURVE",
"163 133 CURVE SMOOTH",
"163 674 LINE SMOOTH",
"163 688 OFFCURVE",
"157 695 OFFCURVE",
"146 695 CURVE SMOOTH",
"127 695 OFFCURVE",
"92 675 OFFCURVE",
"75 655 CURVE SMOOTH",
"67 645 OFFCURVE",
"65 632 OFFCURVE",
"65 622 CURVE SMOOTH"
);
},
{
closed = 1;
nodes = (
"85 80 LINE SMOOTH",
"71 80 OFFCURVE",
"65 73 OFFCURVE",
"65 59 CURVE SMOOTH",
"65 21 LINE SMOOTH",
"65 7 OFFCURVE",
"71 0 OFFCURVE",
"85 0 CURVE SMOOTH",
"368 0 LINE SMOOTH",
"381 0 OFFCURVE",
"394 1 OFFCURVE",
"404 10 CURVE SMOOTH",
"424 28 OFFCURVE",
"437 58 OFFCURVE",
"437 65 CURVE SMOOTH",
"437 76 OFFCURVE",
"430 80 OFFCURVE",
"416 80 CURVE SMOOTH"
);
}
);
width = 457;
}
);
unicode = 004C;
},
{
glyphname = M;
layers = (
{
anchors = (
{
name = bottom;
position = "{374, 0}";
},
{
name = top;
position = "{374, 685}";
}
);
layerId = UUID0;
paths = (
{
closed = 1;
nodes = (
"263 120 LINE SMOOTH",
"271 101 OFFCURVE",
"277 97 OFFCURVE",
"284 97 CURVE SMOOTH",
"292 97 OFFCURVE",
"298 101 OFFCURVE",
"306 113 CURVE SMOOTH",
"316 128 OFFCURVE",
"325 150 OFFCURVE",
"329 160 CURVE SMOOTH",
"333 171 OFFCURVE",
"335 181 OFFCURVE",
"335 189 CURVE SMOOTH",
"335 201 OFFCURVE",
"332 212 OFFCURVE",
"326 228 CURVE SMOOTH",
"161 672 LINE SMOOTH",
"154 690 OFFCURVE",
"147 695 OFFCURVE",
"133 695 CURVE SMOOTH",
"122 695 OFFCURVE",
"91 685 OFFCURVE",
"74 665 CURVE SMOOTH",
"69 659 OFFCURVE",
"65 652 OFFCURVE",
"65 643 CURVE SMOOTH",
"65 638 OFFCURVE",
"66 632 OFFCURVE",
"69 625 CURVE"
);
},
{
closed = 1;
nodes = (
"673 674 LINE SMOOTH",
"673 688 OFFCURVE",
"667 695 OFFCURVE",
"656 695 CURVE SMOOTH",
"638 695 OFFCURVE",
"602 675 OFFCURVE",
"585 655 CURVE SMOOTH",
"577 645 OFFCURVE",
"575 632 OFFCURVE",
"575 622 CURVE SMOOTH",
"575 16 LINE SMOOTH",
"575 2 OFFCURVE",
"581 -5 OFFCURVE",
"592 -5 CURVE SMOOTH",
"610 -5 OFFCURVE",
"646 12 OFFCURVE",
"664 32 CURVE",
"672 43 OFFCURVE",
"673 55 OFFCURVE",
"673 68 CURVE SMOOTH"
);
},
{
closed = 1;
nodes = (
"524 348 LINE SMOOTH",
"544 398 OFFCURVE",
"546 435 OFFCURVE",
"546 479 CURVE SMOOTH",
"546 499 OFFCURVE",
"545 547 OFFCURVE",
"543 558 CURVE SMOOTH",
"541 570 OFFCURVE",
"538 577 OFFCURVE",
"529 577 CURVE SMOOTH",
"519 577 OFFCURVE",
"515 568 OFFCURVE",
"509 555 CURVE",
"309 26 LINE",
"306 19 OFFCURVE",
"304 13 OFFCURVE",
"304 9 CURVE SMOOTH",
"304 -3 OFFCURVE",
"314 -5 OFFCURVE",
"319 -5 CURVE SMOOTH",
"331 -5 OFFCURVE",
"343 -1 OFFCURVE",
"371 19 CURVE SMOOTH",
"397 37 OFFCURVE",
"412 59 OFFCURVE",
"422 83 CURVE SMOOTH"
);
},
{
closed = 1;
nodes = (
"139 361 OFFCURVE",
"127 393 OFFCURVE",
"118 415 CURVE SMOOTH",
"95 471 OFFCURVE",
"87 492 OFFCURVE",
"76 492 CURVE SMOOTH",
"71 492 OFFCURVE",
"66 487 OFFCURVE",
"66 479 CURVE SMOOTH",
"66 16 LINE SMOOTH",
"66 2 OFFCURVE",
"72 -5 OFFCURVE",
"83 -5 CURVE SMOOTH",
"91 -5 OFFCURVE",
"121 9 OFFCURVE",
"138 29 CURVE SMOOTH",
"147 40 OFFCURVE",
"148 52 OFFCURVE",
"148 65 CURVE SMOOTH",
"148 290 LINE SMOOTH",
"148 306 OFFCURVE",
"146 330 OFFCURVE",
"143 342 CURVE"
);
}
);
width = 748;
}
);
unicode = 004D;
},
{
glyphname = N;
layers = (
{
anchors = (
{
name = bottom;
position = "{308, 0}";
},
{
name = top;
position = "{308, 685}";
}
);
layerId = UUID0;
paths = (
{
closed = 1;
nodes = (
"401 97 LINE",
"408 88 OFFCURVE",
"412 81 OFFCURVE",
"418 81 CURVE SMOOTH",
"431 81 OFFCURVE",
"437 111 OFFCURVE",
"437 167 CURVE SMOOTH",
"437 213 OFFCURVE",
"436 231 OFFCURVE",
"417 261 CURVE SMOOTH",
"153 679 LINE SMOOTH",
"143 695 OFFCURVE",
"136 695 OFFCURVE",
"131 695 CURVE SMOOTH",
"120 695 OFFCURVE",
"99 688 OFFCURVE",
"76 664 CURVE",
"69 656 OFFCURVE",
"65 648 OFFCURVE",
"65 641 CURVE SMOOTH",
"65 635 OFFCURVE",
"67 629 OFFCURVE",
"71 624 CURVE"
);
},
{
closed = 1;
nodes = (
"466 21 LINE SMOOTH",
"466 -4 OFFCURVE",
"474 -5 OFFCURVE",
"481 -5 CURVE SMOOTH",
"495 -5 OFFCURVE",
"524 12 OFFCURVE",
"541 32 CURVE SMOOTH",
"550 42 OFFCURVE",
"551 55 OFFCURVE",
"551 68 CURVE SMOOTH",
"551 674 LINE SMOOTH",
"551 688 OFFCURVE",
"545 695 OFFCURVE",
"534 695 CURVE SMOOTH",
"517 695 OFFCURVE",
"466 676 OFFCURVE",
"466 632 CURVE SMOOTH"
);
},
{
closed = 1;
nodes = (
"134 470 OFFCURVE",
"124 485 OFFCURVE",
"114 500 CURVE SMOOTH",
"93 531 OFFCURVE",
"84 543 OFFCURVE",
"75 543 CURVE SMOOTH",
"70 543 OFFCURVE",
"66 539 OFFCURVE",
"66 531 CURVE SMOOTH",
"66 16 LINE SMOOTH",
"66 2 OFFCURVE",
"70 -5 OFFCURVE",
"82 -5 CURVE SMOOTH",
"94 -5 OFFCURVE",
"124 12 OFFCURVE",
"141 32 CURVE SMOOTH",
"150 42 OFFCURVE",
"151 55 OFFCURVE",
"151 68 CURVE SMOOTH",
"151 405 LINE SMOOTH",
"151 424 OFFCURVE",
"148 438 OFFCURVE",
"143 449 CURVE SMOOTH"
);
}
);
width = 616;
}
);
unicode = 004E;
},
{
glyphname = O;
layers = (
{
anchors = (
{
name = bottom;
position = "{320, 0}";
},
{
name = center;
position = "{320, 343}";
},
{
name = ogonek;
position = "{478, 35}";
},
{
name = top;
position = "{320, 685}";
},
{
name = topleft;
position = "{151, 635}";
},
{
name = topright;
position = "{468, 663}";
}
);
layerId = UUID0;
paths = (
{
closed = 1;
nodes = (
"589 600 OFFCURVE",
"495 700 OFFCURVE",
"322 700 CURVE SMOOTH",
"237 700 OFFCURVE",
"152 663 OFFCURVE",
"93 586 CURVE SMOOTH",
"85 576 OFFCURVE",
"72 555 OFFCURVE",
"72 544 CURVE SMOOTH",
"72 536 OFFCURVE",
"76 534 OFFCURVE",
"82 534 CURVE SMOOTH",
"89 534 OFFCURVE",
"102 546 OFFCURVE",
"115 556 CURVE SMOOTH",
"192 617 OFFCURVE",
"261 620 OFFCURVE",
"281 620 CURVE SMOOTH",
"478 620 OFFCURVE",
"487 443 OFFCURVE",
"487 280 CURVE SMOOTH",
"487 203 OFFCURVE",
"477 111 OFFCURVE",
"448 56 CURVE SMOOTH",
"437 35 OFFCURVE",
"427 27 OFFCURVE",
"427 19 CURVE SMOOTH",
"427 14 OFFCURVE",
"429 8 OFFCURVE",
"437 8 CURVE SMOOTH",
"463 8 OFFCURVE",
"508 45 OFFCURVE",
"540 101 CURVE SMOOTH",
"585 181 OFFCURVE",
"589 294 OFFCURVE",
"589 364 CURVE SMOOTH"
);
},
{
closed = 1;
nodes = (
"171 531 OFFCURVE",
"165 535 OFFCURVE",
"156 535 CURVE SMOOTH",
"136 535 OFFCURVE",
"94 515 OFFCURVE",
"74 478 CURVE SMOOTH",
"60 451 OFFCURVE",
"50 396 OFFCURVE",
"50 311 CURVE SMOOTH",
"50 108 OFFCURVE",
"100 -15 OFFCURVE",
"280 -15 CURVE SMOOTH",
"373 -15 OFFCURVE",
"421 47 OFFCURVE",
"421 77 CURVE SMOOTH",
"421 83 OFFCURVE",
"418 89 OFFCURVE",
"410 89 CURVE SMOOTH",
"396 89 OFFCURVE",
"374 65 OFFCURVE",
"307 65 CURVE SMOOTH",
"170 65 OFFCURVE",
"151 202 OFFCURVE",
"151 329 CURVE SMOOTH",
"151 432 OFFCURVE",
"171 501 OFFCURVE",
"171 517 CURVE SMOOTH"
);
}
);
width = 639;
}
);
unicode = 004F;
},
{
glyphname = Oslash;
layers = (
{
layerId = UUID0;
paths = (
{
closed = 1;
nodes = (
"503 716 OFFCURVE",
"488 702 OFFCURVE",
"476 678 CURVE",
"80 -21 LINE SMOOTH",
"72 -36 OFFCURVE",
"69 -42 OFFCURVE",
"69 -49 CURVE SMOOTH",
"69 -55 OFFCURVE",
"73 -59 OFFCURVE",
"81 -59 CURVE SMOOTH",
"105 -59 OFFCURVE",
"146 -45 OFFCURVE",
"159 -23 CURVE SMOOTH",
"169 -6 OFFCURVE",
"175 -1 OFFCURVE",
"184 -1 CURVE SMOOTH",
"188 -1 OFFCURVE",
"191 -2 OFFCURVE",
"196 -4 CURVE",
"220 -11 OFFCURVE",
"248 -15 OFFCURVE",
"280 -15 CURVE SMOOTH",
"373 -15 OFFCURVE",
"421 47 OFFCURVE",
"421 77 CURVE SMOOTH",
"421 83 OFFCURVE",
"418 89 OFFCURVE",
"410 89 CURVE SMOOTH",
"396 89 OFFCURVE",
"374 63 OFFCURVE",
"307 63 CURVE SMOOTH",
"282 63 OFFCURVE",
"260 67 OFFCURVE",
"242 75 CURVE",
"237 78 OFFCURVE",
"228 82 OFFCURVE",
"228 92 CURVE SMOOTH",
"228 96 OFFCURVE",
"229 101 OFFCURVE",
"232 106 CURVE SMOOTH",
"448 485 LINE",
"452 493 OFFCURVE",
"457 495 OFFCURVE",
"460 495 CURVE SMOOTH",
"465 495 OFFCURVE",
"469 489 OFFCURVE",
"470 484 CURVE",
"489 424 OFFCURVE",
"492 350 OFFCURVE",
"492 280 CURVE SMOOTH",
"492 203 OFFCURVE",
"477 111 OFFCURVE",
"448 56 CURVE SMOOTH",
"437 35 OFFCURVE",
"427 27 OFFCURVE",
"427 19 CURVE SMOOTH",
"427 14 OFFCURVE",
"429 8 OFFCURVE",
"437 8 CURVE SMOOTH",
"463 8 OFFCURVE",
"508 45 OFFCURVE",
"540 101 CURVE SMOOTH",
"585 181 OFFCURVE",
"589 294 OFFCURVE",
"589 364 CURVE SMOOTH",
"589 472 OFFCURVE",
"568 551 OFFCURVE",
"532 605 CURVE",
"530 609 OFFCURVE",
"527 614 OFFCURVE",
"527 619 CURVE SMOOTH",
"527 623 OFFCURVE",
"529 626 OFFCURVE",
"532 632 CURVE",
"567 695 LINE",
"573 704 OFFCURVE",
"575 711 OFFCURVE",
"575 715 CURVE SMOOTH",
"575 722 OFFCURVE",
"571 727 OFFCURVE",
"562 727 CURVE SMOOTH",
"553 727 OFFCURVE",
"545 726 OFFCURVE",
"531 723 CURVE SMOOTH"
);
},
{
closed = 1;
nodes = (
"426 651 OFFCURVE",
"429 660 OFFCURVE",
"429 667 CURVE SMOOTH",
"429 695 OFFCURVE",
"371 700 OFFCURVE",
"322 700 CURVE SMOOTH",
"237 700 OFFCURVE",
"152 663 OFFCURVE",
"93 586 CURVE SMOOTH",
"85 576 OFFCURVE",
"72 555 OFFCURVE",
"72 544 CURVE SMOOTH",
"72 536 OFFCURVE",
"76 534 OFFCURVE",
"82 534 CURVE SMOOTH",
"89 534 OFFCURVE",
"102 546 OFFCURVE",
"115 556 CURVE SMOOTH",
"192 617 OFFCURVE",
"260 622 OFFCURVE",
"281 622 CURVE SMOOTH",
"308 622 OFFCURVE",
"332 618 OFFCURVE",
"354 611 CURVE SMOOTH",
"368 607 OFFCURVE",
"376 604 OFFCURVE",
"385 604 CURVE SMOOTH",
"398 604 OFFCURVE",
"406 613 OFFCURVE",
"420 639 CURVE SMOOTH"
);
},
{
closed = 1;
nodes = (
"151 155 OFFCURVE",
"156 179 OFFCURVE",
"156 196 CURVE SMOOTH",
"156 205 OFFCURVE",
"154 211 OFFCURVE",
"154 215 CURVE",
"148 251 OFFCURVE",
"146 292 OFFCURVE",
"146 329 CURVE SMOOTH",
"146 432 OFFCURVE",
"171 501 OFFCURVE",
"171 517 CURVE SMOOTH",
"171 531 OFFCURVE",
"165 535 OFFCURVE",
"156 535 CURVE SMOOTH",
"136 535 OFFCURVE",
"94 515 OFFCURVE",
"74 478 CURVE SMOOTH",
"60 451 OFFCURVE",
"50 395 OFFCURVE",
"50 311 CURVE SMOOTH",
"50 210 OFFCURVE",
"64 102 OFFCURVE",
"96 102 CURVE SMOOTH",
"109 102 OFFCURVE",
"119 112 OFFCURVE",
"129 126 CURVE SMOOTH"
);
}
);
width = 639;
}
);
unicode = 00D8;
},
{
glyphname = OE;
layers = (
{
layerId = UUID0;
paths = (
{
closed = 1;
nodes = (
"493 685 LINE SMOOTH",
"452 685 OFFCURVE",
"409 700 OFFCURVE",
"365 700 CURVE SMOOTH",
"241 700 OFFCURVE",
"154 655 OFFCURVE",
"98 586 CURVE",
"89 574 OFFCURVE",
"72 549 OFFCURVE",
"72 537 CURVE SMOOTH",
"72 527 OFFCURVE",
"77 525 OFFCURVE",
"83 525 CURVE SMOOTH",
"90 525 OFFCURVE",
"103 537 OFFCURVE",
"115 547 CURVE SMOOTH",
"165 589 OFFCURVE",
"232 620 OFFCURVE",
"306 620 CURVE SMOOTH",
"374 620 OFFCURVE",
"397 605 OFFCURVE",
"452 605 CURVE SMOOTH",
"712 605 LINE SMOOTH",
"725 605 OFFCURVE",
"737 606 OFFCURVE",
"748 615 CURVE",
"768 633 OFFCURVE",
"781 663 OFFCURVE",
"781 670 CURVE SMOOTH",
"781 681 OFFCURVE",
"773 685 OFFCURVE",
"760 685 CURVE SMOOTH"
);
},
{
closed = 1;
nodes = (
"422 340 LINE SMOOTH",
"422 329 OFFCURVE",
"428 320 OFFCURVE",
"442 320 CURVE SMOOTH",
"682 320 LINE SMOOTH",
"695 320 OFFCURVE",
"708 321 OFFCURVE",
"718 330 CURVE SMOOTH",
"738 348 OFFCURVE",
"750 378 OFFCURVE",
"750 385 CURVE SMOOTH",
"750 396 OFFCURVE",
"744 400 OFFCURVE",
"729 400 CURVE SMOOTH",
"541 400 LINE SMOOTH",
"529 400 OFFCURVE",
"521 406 OFFCURVE",
"521 420 CURVE SMOOTH",
"521 546 LINE SMOOTH",
"521 572 OFFCURVE",
"505 576 OFFCURVE",
"472 576 CURVE SMOOTH",
"441 576 OFFCURVE",
"422 572 OFFCURVE",
"422 546 CURVE SMOOTH"
);
},
{
closed = 1;
nodes = (
"422 98 LINE SMOOTH",
"422 81 OFFCURVE",
"411 71 OFFCURVE",
"395 69 CURVE SMOOTH",
"380 67 OFFCURVE",
"372 67 OFFCURVE",
"354 67 CURVE SMOOTH",
"195 67 OFFCURVE",
"152 197 OFFCURVE",
"152 328 CURVE SMOOTH",
"152 433 OFFCURVE",
"174 490 OFFCURVE",
"174 513 CURVE SMOOTH",
"174 527 OFFCURVE",
"164 528 OFFCURVE",
"159 528 CURVE SMOOTH",
"131 528 OFFCURVE",
"90 500 OFFCURVE",
"73 467 CURVE SMOOTH",
"61 443 OFFCURVE",
"50 382 OFFCURVE",
"50 304 CURVE SMOOTH",
"50 106 OFFCURVE",
"116 -15 OFFCURVE",
"317 -15 CURVE SMOOTH",
"358 -15 OFFCURVE",
"401 0 OFFCURVE",
"439 0 CURVE SMOOTH",
"722 0 LINE SMOOTH",
"735 0 OFFCURVE",
"748 1 OFFCURVE",
"758 10 CURVE SMOOTH",
"778 27 OFFCURVE",
"791 58 OFFCURVE",
"791 65 CURVE SMOOTH",
"791 76 OFFCURVE",
"784 80 OFFCURVE",
"770 80 CURVE SMOOTH",
"541 80 LINE SMOOTH",
"529 80 OFFCURVE",
"521 86 OFFCURVE",
"521 100 CURVE SMOOTH",
"521 262 LINE SMOOTH",
"521 287 OFFCURVE",
"505 291 OFFCURVE",
"472 291 CURVE SMOOTH",
"441 291 OFFCURVE",
"422 287 OFFCURVE",
"422 262 CURVE SMOOTH"
);
}
);
width = 826;
}
);
unicode = 0152;
},
{
glyphname = P;
layers = (
{
anchors = (
{
name = bottom;
position = "{259, 0}";
},
{
name = top;
position = "{259, 685}";
}
);
layerId = UUID0;
paths = (
{
closed = 1;
nodes = (
"379 380 OFFCURVE",
"360 316 OFFCURVE",
"284 269 CURVE SMOOTH",
"279 266 OFFCURVE",
"273 262 OFFCURVE",
"273 255 CURVE SMOOTH",
"273 248 OFFCURVE",
"279 244 OFFCURVE",
"286 244 CURVE SMOOTH",
"289 244 LINE",
"443 262 OFFCURVE",
"483 402 OFFCURVE",
"483 462 CURVE SMOOTH",
"483 642 OFFCURVE",
"343 684 OFFCURVE",
"263 685 CURVE SMOOTH",
"235 686 OFFCURVE",
"217 686 OFFCURVE",
"201 686 CURVE SMOOTH",
"184 686 OFFCURVE",
"170 686 OFFCURVE",
"149 685 CURVE SMOOTH",
"111 684 OFFCURVE",
"65 644 OFFCURVE",
"65 617 CURVE SMOOTH",
"65 606 OFFCURVE",
"73 605 OFFCURVE",
"84 605 CURVE SMOOTH",
"186 605 LINE SMOOTH",
"303 605 OFFCURVE",
"379 562 OFFCURVE",
"379 443 CURVE SMOOTH"
);
},
{
closed = 1;
nodes = (
"65 289 LINE SMOOTH",
"65 267 OFFCURVE",
"72 253 OFFCURVE",
"107 253 CURVE SMOOTH",
"147 253 OFFCURVE",
"189 253 OFFCURVE",
"208 259 CURVE SMOOTH",
"254 273 OFFCURVE",
"284 297 OFFCURVE",
"284 312 CURVE SMOOTH",
"284 324 OFFCURVE",
"272 324 OFFCURVE",
"263 324 CURVE SMOOTH",
"182 324 LINE SMOOTH",
"166 324 OFFCURVE",
"163 334 OFFCURVE",
"163 345 CURVE SMOOTH",
"163 549 LINE SMOOTH",
"163 574 OFFCURVE",
"148 578 OFFCURVE",
"114 578 CURVE SMOOTH",
"84 578 OFFCURVE",
"65 574 OFFCURVE",
"65 549 CURVE SMOOTH"
);
},
{
closed = 1;
nodes = (
"163 193 LINE SMOOTH",
"163 218 OFFCURVE",
"149 224 OFFCURVE",
"115 224 CURVE SMOOTH",
"85 224 OFFCURVE",
"65 218 OFFCURVE",
"65 193 CURVE SMOOTH",
"65 16 LINE SMOOTH",
"65 2 OFFCURVE",
"71 -5 OFFCURVE",
"82 -5 CURVE SMOOTH",
"100 -5 OFFCURVE",
"136 12 OFFCURVE",
"153 32 CURVE SMOOTH",
"162 43 OFFCURVE",
"163 55 OFFCURVE",
"163 68 CURVE SMOOTH"
);
}
);
width = 518;
}
);
unicode = 0050;
},
{
glyphname = Thorn;
layers = (
{
layerId = UUID0;
paths = (
{
closed = 1;
nodes = (
"163 674 LINE SMOOTH",
"163 688 OFFCURVE",
"157 695 OFFCURVE",
"146 695 CURVE SMOOTH",
"127 695 OFFCURVE",
"92 675 OFFCURVE",
"75 655 CURVE SMOOTH",
"67 645 OFFCURVE",
"65 632 OFFCURVE",
"65 622 CURVE SMOOTH",
"65 500 LINE SMOOTH",
"65 486 OFFCURVE",
"71 479 OFFCURVE",
"84 479 CURVE SMOOTH",
"186 479 LINE SMOOTH",
"303 479 OFFCURVE",
"379 446 OFFCURVE",
"379 327 CURVE SMOOTH",
"379 264 OFFCURVE",
"360 209 OFFCURVE",
"284 163 CURVE SMOOTH",
"279 160 OFFCURVE",
"273 155 OFFCURVE",
"273 149 CURVE SMOOTH",
"273 141 OFFCURVE",
"279 138 OFFCURVE",
"286 138 CURVE SMOOTH",
"289 138 LINE",
"443 156 OFFCURVE",
"483 286 OFFCURVE",
"483 346 CURVE SMOOTH",
"483 526 OFFCURVE",
"343 558 OFFCURVE",
"263 559 CURVE SMOOTH",
"235 560 OFFCURVE",
"198 560 OFFCURVE",
"182 560 CURVE SMOOTH",
"169 560 OFFCURVE",
"163 566 OFFCURVE",
"163 580 CURVE SMOOTH"
);
},
{
closed = 1;
nodes = (
"65 182 LINE SMOOTH",
"65 160 OFFCURVE",
"72 146 OFFCURVE",
"107 146 CURVE SMOOTH",
"147 146 OFFCURVE",
"189 147 OFFCURVE",
"208 153 CURVE SMOOTH",
"254 167 OFFCURVE",
"284 192 OFFCURVE",
"284 206 CURVE SMOOTH",
"284 218 OFFCURVE",
"272 218 OFFCURVE",
"263 218 CURVE SMOOTH",
"182 218 LINE SMOOTH",
"166 218 OFFCURVE",
"163 227 OFFCURVE",
"163 238 CURVE SMOOTH",
"163 423 LINE SMOOTH",
"163 448 OFFCURVE",
"148 452 OFFCURVE",
"114 452 CURVE SMOOTH",
"84 452 OFFCURVE",
"65 448 OFFCURVE",
"65 423 CURVE SMOOTH"
);
},
{
closed = 1;
nodes = (
"163 87 LINE SMOOTH",
"163 112 OFFCURVE",
"148 117 OFFCURVE",
"114 117 CURVE SMOOTH",
"84 117 OFFCURVE",
"65 112 OFFCURVE",
"65 87 CURVE SMOOTH",
"65 16 LINE SMOOTH",
"65 2 OFFCURVE",
"71 -5 OFFCURVE",
"82 -5 CURVE SMOOTH",
"100 -5 OFFCURVE",
"136 12 OFFCURVE",
"153 32 CURVE SMOOTH",
"162 43 OFFCURVE",
"163 55 OFFCURVE",
"163 68 CURVE SMOOTH"
);
}
);
width = 518;
}
);
unicode = 00DE;
},
{
glyphname = Q;
layers = (
{
anchors = (
{
name = bottom;
position = "{342, 0}";
},
{
name = top;
position = "{342, 685}";
}
);
layerId = UUID0;
paths = (
{
closed = 1;
nodes = (
"599 598 OFFCURVE",
"500 698 OFFCURVE",
"327 698 CURVE SMOOTH",
"243 698 OFFCURVE",
"152 661 OFFCURVE",
"93 584 CURVE SMOOTH",
"85 574 OFFCURVE",
"72 553 OFFCURVE",
"72 542 CURVE SMOOTH",
"72 534 OFFCURVE",
"76 532 OFFCURVE",
"82 532 CURVE SMOOTH",
"89 532 OFFCURVE",
"102 544 OFFCURVE",
"115 554 CURVE SMOOTH",
"192 615 OFFCURVE",
"266 620 OFFCURVE",
"286 620 CURVE SMOOTH",
"483 620 OFFCURVE",
"498 441 OFFCURVE",
"498 278 CURVE SMOOTH",
"498 207 OFFCURVE",
"490 125 OFFCURVE",
"464 69 CURVE SMOOTH",
"448 34 OFFCURVE",
"437 24 OFFCURVE",
"437 13 CURVE SMOOTH",
"437 6 OFFCURVE",
"439 0 OFFCURVE",
"447 -8 CURVE SMOOTH",
"544 -110 LINE SMOOTH",
"554 -121 OFFCURVE",
"561 -124 OFFCURVE",
"568 -124 CURVE SMOOTH",
"599 -124 OFFCURVE",
"633 -76 OFFCURVE",
"633 -60 CURVE SMOOTH",
"633 -49 OFFCURVE",
"622 -38 OFFCURVE",
"614 -30 CURVE SMOOTH",
"543 39 LINE",
"536 45 OFFCURVE",
"532 53 OFFCURVE",
"532 61 CURVE SMOOTH",
"532 70 OFFCURVE",
"537 78 OFFCURVE",
"539 82 CURVE",
"582 180 OFFCURVE",
"599 260 OFFCURVE",
"599 362 CURVE SMOOTH"
);
},
{
closed = 1;
nodes = (
"171 529 OFFCURVE",
"165 533 OFFCURVE",
"156 533 CURVE SMOOTH",
"136 533 OFFCURVE",
"94 513 OFFCURVE",
"74 476 CURVE SMOOTH",
"60 449 OFFCURVE",
"50 417 OFFCURVE",
"50 317 CURVE SMOOTH",
"50 114 OFFCURVE",
"112 -15 OFFCURVE",
"285 -15 CURVE SMOOTH",
"378 -15 OFFCURVE",
"431 47 OFFCURVE",
"431 77 CURVE SMOOTH",
"431 83 OFFCURVE",
"428 89 OFFCURVE",
"420 89 CURVE SMOOTH",
"406 89 OFFCURVE",
"379 65 OFFCURVE",
"312 65 CURVE SMOOTH",
"175 65 OFFCURVE",
"151 200 OFFCURVE",
"151 327 CURVE SMOOTH",
"151 430 OFFCURVE",
"171 499 OFFCURVE",
"171 515 CURVE SMOOTH"
);
}
);
width = 683;
}
);
unicode = 0051;
},
{
glyphname = R;
layers = (
{
anchors = (
{
name = bottom;
position = "{277, 0}";
},
{
name = top;
position = "{277, 685}";
}
);
layerId = UUID0;
paths = (
{
closed = 1;
nodes = (
"385 388 OFFCURVE",
"352 331 OFFCURVE",
"288 294 CURVE",
"267 283 OFFCURVE",
"269 271 OFFCURVE",
"269 270 CURVE SMOOTH",
"269 265 OFFCURVE",
"273 256 OFFCURVE",
"275 253 CURVE",
"410 16 LINE SMOOTH",
"421 -3 OFFCURVE",
"430 -5 OFFCURVE",
"438 -5 CURVE SMOOTH",
"453 -5 OFFCURVE",
"465 1 OFFCURVE",
"477 8 CURVE SMOOTH",
"502 23 OFFCURVE",
"503 36 OFFCURVE",
"503 43 CURVE SMOOTH",
"503 52 OFFCURVE",
"498 64 OFFCURVE",
"492 73 CURVE SMOOTH",
"378 257 LINE SMOOTH",
"373 265 OFFCURVE",
"370 272 OFFCURVE",
"370 278 CURVE SMOOTH",
"370 288 OFFCURVE",
"376 295 OFFCURVE",
"385 301 CURVE SMOOTH",
"468 358 OFFCURVE",
"489 424 OFFCURVE",
"489 477 CURVE SMOOTH",
"489 672 OFFCURVE",
"318 687 OFFCURVE",
"242 687 CURVE SMOOTH",
"208 687 OFFCURVE",
"180 687 OFFCURVE",
"149 685 CURVE",
"111 684 OFFCURVE",
"65 645 OFFCURVE",
"65 617 CURVE SMOOTH",
"65 607 OFFCURVE",
"73 606 OFFCURVE",
"84 606 CURVE SMOOTH",
"200 606 LINE SMOOTH",
"299 606 OFFCURVE",
"385 577 OFFCURVE",
"385 452 CURVE SMOOTH"
);
},
{
closed = 1;
nodes = (
"65 314 LINE SMOOTH",
"65 292 OFFCURVE",
"72 279 OFFCURVE",
"107 279 CURVE SMOOTH",
"147 279 OFFCURVE",
"189 279 OFFCURVE",
"208 285 CURVE SMOOTH",
"254 299 OFFCURVE",
"288 323 OFFCURVE",
"288 338 CURVE SMOOTH",
"288 350 OFFCURVE",
"276 350 OFFCURVE",
"267 350 CURVE SMOOTH",
"182 350 LINE SMOOTH",
"166 350 OFFCURVE",
"163 360 OFFCURVE",
"163 371 CURVE SMOOTH",
"163 549 LINE SMOOTH",
"163 574 OFFCURVE",
"148 578 OFFCURVE",
"114 578 CURVE SMOOTH",
"84 578 OFFCURVE",
"65 574 OFFCURVE",
"65 549 CURVE SMOOTH"
);
},
{
closed = 1;
nodes = (
"163 219 LINE SMOOTH",
"163 244 OFFCURVE",
"149 250 OFFCURVE",
"115 250 CURVE SMOOTH",
"85 250 OFFCURVE",
"65 244 OFFCURVE",
"65 219 CURVE SMOOTH",
"65 16 LINE SMOOTH",
"65 2 OFFCURVE",
"71 -5 OFFCURVE",
"82 -5 CURVE SMOOTH",
"100 -5 OFFCURVE",
"136 12 OFFCURVE",
"153 32 CURVE SMOOTH",
"162 43 OFFCURVE",
"163 55 OFFCURVE",
"163 68 CURVE SMOOTH"
);
}
);
width = 553;
}
);
unicode = 0052;
},
{
glyphname = S;
layers = (
{
anchors = (
{
name = bottom;
position = "{250, 0}";
},
{
name = top;
position = "{250, 685}";
}
);
layerId = UUID0;
paths = (
{
closed = 1;
nodes = (
"426 678 OFFCURVE",
"341 700 OFFCURVE",
"290 700 CURVE SMOOTH",
"192 700 OFFCURVE",
"120 666 OFFCURVE",
"62 596 CURVE SMOOTH",
"53 585 OFFCURVE",
"35 558 OFFCURVE",
"35 546 CURVE SMOOTH",
"35 536 OFFCURVE",
"40 534 OFFCURVE",
"46 534 CURVE SMOOTH",
"53 534 OFFCURVE",
"67 546 OFFCURVE",
"79 556 CURVE SMOOTH",
"131 599 OFFCURVE",
"175 620 OFFCURVE",
"231 620 CURVE SMOOTH",
"287 620 OFFCURVE",
"327 585 OFFCURVE",
"357 585 CURVE SMOOTH",
"379 585 OFFCURVE",
"426 615 OFFCURVE",
"426 642 CURVE SMOOTH"
);
},
{
closed = 1;
nodes = (
"162 406 OFFCURVE",
"139 423 OFFCURVE",
"139 519 CURVE SMOOTH",
"139 536 OFFCURVE",
"131 538 OFFCURVE",
"121 538 CURVE SMOOTH",
"97 538 OFFCURVE",
"57 507 OFFCURVE",
"47 479 CURVE SMOOTH",
"45 473 OFFCURVE",
"43 462 OFFCURVE",
"43 451 CURVE SMOOTH",
"43 403 OFFCURVE",
"51 318 OFFCURVE",
"230 293 CURVE SMOOTH",
"370 273 OFFCURVE",
"371 201 OFFCURVE",
"371 143 CURVE SMOOTH",
"371 114 OFFCURVE",
"360 58 OFFCURVE",
"323 23 CURVE SMOOTH",
"321 21 OFFCURVE",
"315 16 OFFCURVE",
"315 9 CURVE SMOOTH",
"315 4 OFFCURVE",
"318 -1 OFFCURVE",
"325 -1 CURVE SMOOTH",
"375 -1 OFFCURVE",
"464 73 OFFCURVE",
"464 183 CURVE SMOOTH",
"464 269 OFFCURVE",
"447 352 OFFCURVE",
"262 387 CURVE SMOOTH"
);
},
{
closed = 1;
nodes = (
"283 -15 OFFCURVE",
"311 49 OFFCURVE",
"311 66 CURVE SMOOTH",
"311 75 OFFCURVE",
"308 82 OFFCURVE",
"299 82 CURVE SMOOTH",
"286 82 OFFCURVE",
"274 65 OFFCURVE",
"237 65 CURVE SMOOTH",
"207 65 OFFCURVE",
"187 69 OFFCURVE",
"146 104 CURVE SMOOTH",
"134 114 OFFCURVE",
"122 121 OFFCURVE",
"109 121 CURVE SMOOTH",
"85 121 OFFCURVE",
"60 98 OFFCURVE",
"51 89 CURVE SMOOTH",
"43 81 OFFCURVE",
"40 73 OFFCURVE",
"40 65 CURVE SMOOTH",
"40 55 OFFCURVE",
"46 43 OFFCURVE",
"56 34 CURVE SMOOTH",
"104 -10 OFFCURVE",
"140 -15 OFFCURVE",
"183 -15 CURVE SMOOTH"
);
}
);
width = 499;
}
);
unicode = 0053;
},
{
glyphname = T;
layers = (
{
anchors = (
{
name = bottom;
position = "{260, 0}";
},
{
name = center;
position = "{260, 343}";
},
{
name = top;
position = "{260, 685}";
}
);
layerId = UUID0;
paths = (
{
closed = 1;
nodes = (
"436 605 LINE SMOOTH",
"449 605 OFFCURVE",
"462 606 OFFCURVE",
"472 615 CURVE SMOOTH",
"492 633 OFFCURVE",
"505 663 OFFCURVE",
"505 670 CURVE SMOOTH",
"505 681 OFFCURVE",
"498 685 OFFCURVE",
"484 685 CURVE SMOOTH",
"84 685 LINE SMOOTH",
"71 685 OFFCURVE",
"58 684 OFFCURVE",
"48 675 CURVE SMOOTH",
"28 657 OFFCURVE",
"15 627 OFFCURVE",
"15 620 CURVE SMOOTH",
"15 609 OFFCURVE",
"22 605 OFFCURVE",
"36 605 CURVE SMOOTH"
);
},
{
closed = 1;
nodes = (
"202 16 LINE SMOOTH",
"202 2 OFFCURVE",
"208 -5 OFFCURVE",
"219 -5 CURVE SMOOTH",
"238 -5 OFFCURVE",
"273 15 OFFCURVE",
"290 35 CURVE SMOOTH",
"298 44 OFFCURVE",
"300 58 OFFCURVE",
"300 68 CURVE SMOOTH",
"300 546 LINE SMOOTH",
"300 571 OFFCURVE",
"285 575 OFFCURVE",
"250 575 CURVE SMOOTH",
"221 575 OFFCURVE",
"202 571 OFFCURVE",
"202 546 CURVE SMOOTH"
);
}
);
width = 520;
}
);
unicode = 0054;
},
{
glyphname = U;
layers = (
{
anchors = (
{
name = bottom;
position = "{313, 0}";
},
{
name = ogonek;
position = "{445, 24}";
},
{
name = top;
position = "{313, 685}";
},
{
name = topright;
position = "{561, 688}";
}
);
layerId = UUID0;
paths = (
{
closed = 1;
nodes = (
"163 674 LINE SMOOTH",
"163 688 OFFCURVE",
"157 695 OFFCURVE",
"146 695 CURVE SMOOTH",
"127 695 OFFCURVE",
"92 675 OFFCURVE",
"75 655 CURVE SMOOTH",
"67 645 OFFCURVE",
"65 632 OFFCURVE",
"65 622 CURVE SMOOTH",
"65 320 LINE SMOOTH",
"65 117 OFFCURVE",
"103 -15 OFFCURVE",
"276 -15 CURVE SMOOTH",
"369 -15 OFFCURVE",
"417 47 OFFCURVE",
"417 77 CURVE SMOOTH",
"417 83 OFFCURVE",
"414 89 OFFCURVE",
"406 89 CURVE SMOOTH",
"392 89 OFFCURVE",
"370 65 OFFCURVE",
"303 65 CURVE SMOOTH",
"170 65 OFFCURVE",
"163 204 OFFCURVE",
"163 328 CURVE SMOOTH"
);
},
{
closed = 1;
nodes = (
"561 674 LINE SMOOTH",
"561 688 OFFCURVE",
"555 695 OFFCURVE",
"544 695 CURVE SMOOTH",
"527 695 OFFCURVE",
"476 677 OFFCURVE",
"476 632 CURVE SMOOTH",
"476 272 LINE SMOOTH",
"476 197 OFFCURVE",
"470 109 OFFCURVE",
"445 56 CURVE SMOOTH",
"435 35 OFFCURVE",
"424 27 OFFCURVE",
"424 18 CURVE SMOOTH",
"424 13 OFFCURVE",
"427 8 OFFCURVE",
"434 8 CURVE SMOOTH",
"461 8 OFFCURVE",
"497 41 OFFCURVE",
"523 100 CURVE SMOOTH",
"557 177 OFFCURVE",
"561 298 OFFCURVE",
"561 374 CURVE SMOOTH"
);
}
);
width = 626;
}
);
unicode = 0055;
},
{
glyphname = V;
layers = (
{
anchors = (
{
name = bottom;
position = "{276, 0}";
},
{
name = top;
position = "{276, 685}";
}
);
layerId = UUID0;
paths = (
{
closed = 1;
nodes = (
"191 120 LINE SMOOTH",
"198 100 OFFCURVE",
"206 98 OFFCURVE",
"212 98 CURVE SMOOTH",
"239 98 OFFCURVE",
"262 176 OFFCURVE",
"262 202 CURVE SMOOTH",
"262 217 OFFCURVE",
"257 232 OFFCURVE",
"253 244 CURVE SMOOTH",
"123 671 LINE SMOOTH",
"118 687 OFFCURVE",
"108 695 OFFCURVE",
"94 695 CURVE SMOOTH",
"79 695 OFFCURVE",
"24 683 OFFCURVE",
"24 648 CURVE SMOOTH",
"24 643 OFFCURVE",
"26 633 OFFCURVE",
"29 626 CURVE"
);
},
{
closed = 1;
nodes = (
"523 661 LINE SMOOTH",
"525 668 OFFCURVE",
"526 676 OFFCURVE",
"526 680 CURVE SMOOTH",
"526 692 OFFCURVE",
"519 695 OFFCURVE",
"511 695 CURVE SMOOTH",
"477 695 OFFCURVE",
"431 653 OFFCURVE",
"420 617 CURVE SMOOTH",
"251 48 LINE SMOOTH",
"242 19 OFFCURVE",
"241 14 OFFCURVE",
"241 10 CURVE SMOOTH",
"241 1 OFFCURVE",
"245 -5 OFFCURVE",
"255 -5 CURVE SMOOTH",
"263 -5 OFFCURVE",
"286 5 OFFCURVE",
"309 21 CURVE SMOOTH",
"332 37 OFFCURVE",
"342 64 OFFCURVE",
"350 85 CURVE"
);
}
);
width = 551;
}
);
unicode = 0056;
},
{
glyphname = W;
layers = (
{
anchors = (
{
name = bottom;
position = "{406, 0}";
},
{
name = top;
position = "{406, 685}";
}
);
layerId = UUID0;
paths = (
{
closed = 1;
nodes = (
"141 115 LINE SMOOTH",
"145 97 OFFCURVE",
"152 92 OFFCURVE",
"160 92 CURVE SMOOTH",
"179 92 OFFCURVE",
"207 164 OFFCURVE",
"207 238 CURVE SMOOTH",
"207 252 OFFCURVE",
"207 264 OFFCURVE",
"201 288 CURVE SMOOTH",
"112 673 LINE SMOOTH",
"108 689 OFFCURVE",
"104 695 OFFCURVE",
"93 695 CURVE SMOOTH",
"72 695 OFFCURVE",
"21 671 OFFCURVE",
"21 637 CURVE SMOOTH",
"21 631 OFFCURVE",
"23 624 OFFCURVE",
"24 619 CURVE SMOOTH"
);
},
{
closed = 1;
nodes = (
"347 651 OFFCURVE",
"345 643 OFFCURVE",
"345 635 CURVE SMOOTH",
"345 631 OFFCURVE",
"346 621 OFFCURVE",
"348 614 CURVE",
"472 114 LINE SMOOTH",
"477 96 OFFCURVE",
"484 91 OFFCURVE",
"492 91 CURVE SMOOTH",
"500 91 OFFCURVE",
"507 97 OFFCURVE",
"512 107 CURVE",
"524 129 OFFCURVE",
"540 198 OFFCURVE",
"540 221 CURVE SMOOTH",
"540 235 OFFCURVE",
"537 255 OFFCURVE",
"534 268 CURVE SMOOTH",
"436 672 LINE SMOOTH",
"432 689 OFFCURVE",
"427 695 OFFCURVE",
"416 695 CURVE SMOOTH",
"401 695 OFFCURVE",
"371 681 OFFCURVE",
"355 661 CURVE SMOOTH"
);
},
{
closed = 1;
nodes = (
"778 663 LINE SMOOTH",
"780 670 OFFCURVE",
"781 676 OFFCURVE",
"781 680 CURVE SMOOTH",
"781 692 OFFCURVE",
"774 695 OFFCURVE",
"766 695 CURVE SMOOTH",
"737 695 OFFCURVE",
"690 664 OFFCURVE",
"679 620 CURVE SMOOTH",
"532 52 LINE SMOOTH",
"530 45 OFFCURVE",
"524 18 OFFCURVE",
"524 9 CURVE SMOOTH",
"524 -3 OFFCURVE",
"532 -5 OFFCURVE",
"537 -5 CURVE SMOOTH",
"544 -5 OFFCURVE",
"563 2 OFFCURVE",
"585 18 CURVE SMOOTH",
"607 35 OFFCURVE",
"620 63 OFFCURVE",
"625 85 CURVE"
);
},
{
closed = 1;
nodes = (
"351 338 LINE SMOOTH",
"357 365 OFFCURVE",
"361 385 OFFCURVE",
"361 406 CURVE SMOOTH",
"361 445 OFFCURVE",
"345 534 OFFCURVE",
"325 534 CURVE SMOOTH",
"318 534 OFFCURVE",
"312 529 OFFCURVE",
"308 514 CURVE",
"203 52 LINE",
"202 45 OFFCURVE",
"196 20 OFFCURVE",
"196 10 CURVE SMOOTH",
"196 -3 OFFCURVE",
"205 -5 OFFCURVE",
"210 -5 CURVE SMOOTH",
"218 -5 OFFCURVE",
"231 0 OFFCURVE",
"254 18 CURVE SMOOTH",
"276 35 OFFCURVE",
"287 59 OFFCURVE",
"293 85 CURVE SMOOTH"
);
}
);
width = 811;
}
);
unicode = 0057;
},
{
glyphname = X;
layers = (
{
anchors = (
{
name = bottom;
position = "{257, 0}";
},
{
name = top;
position = "{257, 685}";
}
);
layerId = UUID0;
paths = (
{
closed = 1;
nodes = (
"150 430 LINE SMOOTH",
"159 414 OFFCURVE",
"167 401 OFFCURVE",
"181 401 CURVE SMOOTH",
"190 401 OFFCURVE",
"204 411 OFFCURVE",
"217 433 CURVE SMOOTH",
"227 449 OFFCURVE",
"235 467 OFFCURVE",
"235 479 CURVE SMOOTH",
"235 487 OFFCURVE",
"232 496 OFFCURVE",
"226 506 CURVE SMOOTH",
"130 675 LINE SMOOTH",
"121 691 OFFCURVE",
"112 695 OFFCURVE",
"102 695 CURVE SMOOTH",
"83 695 OFFCURVE",
"29 671 OFFCURVE",
"29 640 CURVE SMOOTH",
"29 634 OFFCURVE",
"34 623 OFFCURVE",
"36 620 CURVE"
);
},
{
closed = 1;
nodes = (
"313 379 OFFCURVE",
"320 390 OFFCURVE",
"326 401 CURVE SMOOTH",
"469 653 LINE SMOOTH",
"477 667 OFFCURVE",
"479 675 OFFCURVE",
"479 680 CURVE SMOOTH",
"479 691 OFFCURVE",
"472 695 OFFCURVE",
"463 695 CURVE SMOOTH",
"444 695 OFFCURVE",
"400 675 OFFCURVE",
"382 655 CURVE SMOOTH",
"373 645 OFFCURVE",
"363 631 OFFCURVE",
"356 618 CURVE SMOOTH",
"213 365 LINE SMOOTH",
"208 356 OFFCURVE",
"205 347 OFFCURVE",
"205 340 CURVE SMOOTH",
"205 328 OFFCURVE",
"210 318 OFFCURVE",
"215 311 CURVE",
"388 19 LINE SMOOTH",
"398 1 OFFCURVE",
"408 -5 OFFCURVE",
"422 -5 CURVE SMOOTH",
"442 -5 OFFCURVE",
"488 17 OFFCURVE",
"488 47 CURVE SMOOTH",
"488 52 OFFCURVE",
"487 59 OFFCURVE",
"479 73 CURVE SMOOTH",
"324 337 LINE SMOOTH",
"317 349 OFFCURVE",
"313 356 OFFCURVE",
"313 366 CURVE SMOOTH"
);
},
{
closed = 1;
nodes = (
"211 196 LINE SMOOTH",
"218 208 OFFCURVE",
"221 219 OFFCURVE",
"221 229 CURVE SMOOTH",
"221 254 OFFCURVE",
"201 288 OFFCURVE",
"184 288 CURVE SMOOTH",
"174 288 OFFCURVE",
"166 279 OFFCURVE",
"159 268 CURVE",
"30 37 LINE SMOOTH",
"21 21 OFFCURVE",
"20 13 OFFCURVE",
"20 9 CURVE",
"21 -4 OFFCURVE",
"29 -5 OFFCURVE",
"37 -5 CURVE SMOOTH",
"56 -5 OFFCURVE",
"98 16 OFFCURVE",
"116 36 CURVE SMOOTH",
"125 46 OFFCURVE",
"134 59 OFFCURVE",
"141 72 CURVE SMOOTH"
);
}
);
width = 514;
}
);
unicode = 0058;
},
{
glyphname = Y;
layers = (
{
anchors = (
{
name = bottom;
position = "{263, 0}";
},
{
name = top;
position = "{263, 685}";
},
{
name = topleft;
position = "{20, 685}";
}
);
layerId = UUID0;
paths = (
{
closed = 1;
nodes = (
"180 295 LINE",
"185 286 OFFCURVE",
"190 277 OFFCURVE",
"200 277 CURVE SMOOTH",
"221 277 OFFCURVE",
"250 332 OFFCURVE",
"250 363 CURVE SMOOTH",
"250 376 OFFCURVE",
"245 388 OFFCURVE",
"238 404 CURVE SMOOTH",
"111 675 LINE SMOOTH",
"103 691 OFFCURVE",
"93 695 OFFCURVE",
"83 695 CURVE SMOOTH",
"63 695 OFFCURVE",
"10 672 OFFCURVE",
"10 641 CURVE SMOOTH",
"10 634 OFFCURVE",
"15 623 OFFCURVE",
"17 620 CURVE"
);
},
{
closed = 1;
nodes = (
"509 657 LINE SMOOTH",
"515 670 OFFCURVE",
"516 677 OFFCURVE",
"516 681 CURVE SMOOTH",
"516 692 OFFCURVE",
"508 695 OFFCURVE",
"500 695 CURVE SMOOTH",
"481 695 OFFCURVE",
"436 680 OFFCURVE",
"414 656 CURVE SMOOTH",
"405 646 OFFCURVE",
"398 631 OFFCURVE",
"393 618 CURVE SMOOTH",
"242 252 LINE SMOOTH",
"231 226 OFFCURVE",
"224 205 OFFCURVE",
"223 165 CURVE SMOOTH",
"220 15 LINE SMOOTH",
"220 1 OFFCURVE",
"227 -5 OFFCURVE",
"237 -5 CURVE SMOOTH",
"255 -5 OFFCURVE",
"291 12 OFFCURVE",
"308 32 CURVE SMOOTH",
"317 43 OFFCURVE",
"317 55 OFFCURVE",
"318 68 CURVE",
"321 187 LINE SMOOTH",
"321 225 OFFCURVE",
"329 245 OFFCURVE",
"340 270 CURVE SMOOTH"
);
}
);
width = 526;
}
);
unicode = 0059;
},
{
glyphname = Z;
layers = (
{
anchors = (
{
name = bottom;
position = "{260, 0}";
},
{
name = top;
position = "{260, 685}";
}
);
layerId = UUID0;
paths = (
{
closed = 1;
nodes = (
"140 685 LINE SMOOTH",
"102 685 OFFCURVE",
"56 643 OFFCURVE",
"56 620 CURVE SMOOTH",
"56 606 OFFCURVE",
"63 605 OFFCURVE",
"75 605 CURVE SMOOTH",
"420 605 LINE SMOOTH",
"433 605 OFFCURVE",
"445 606 OFFCURVE",
"456 615 CURVE",
"476 633 OFFCURVE",
"489 663 OFFCURVE",
"489 670 CURVE SMOOTH",
"489 681 OFFCURVE",
"481 685 OFFCURVE",
"468 685 CURVE SMOOTH"
);
},
{
closed = 1;
nodes = (
"408 527 LINE SMOOTH",
"415 540 OFFCURVE",
"421 551 OFFCURVE",
"421 560 CURVE SMOOTH",
"421 573 OFFCURVE",
"406 576 OFFCURVE",
"390 576 CURVE SMOOTH",
"347 576 OFFCURVE",
"334 563 OFFCURVE",
"314 526 CURVE SMOOTH",
"109 158 LINE SMOOTH",
"102 146 OFFCURVE",
"95 135 OFFCURVE",
"95 125 CURVE SMOOTH",
"95 112 OFFCURVE",
"110 109 OFFCURVE",
"127 109 CURVE SMOOTH",
"166 109 OFFCURVE",
"180 120 OFFCURVE",
"202 159 CURVE SMOOTH"
);
},
{
closed = 1;
nodes = (
"415 0 LINE SMOOTH",
"428 0 OFFCURVE",
"441 1 OFFCURVE",
"451 10 CURVE SMOOTH",
"471 28 OFFCURVE",
"484 58 OFFCURVE",
"484 65 CURVE SMOOTH",
"484 76 OFFCURVE",
"477 80 OFFCURVE",
"463 80 CURVE SMOOTH",
"104 80 LINE SMOOTH",
"90 80 OFFCURVE",
"78 79 OFFCURVE",
"67 70 CURVE",
"47 52 OFFCURVE",
"35 22 OFFCURVE",
"35 15 CURVE SMOOTH",
"35 4 OFFCURVE",
"42 0 OFFCURVE",
"56 0 CURVE SMOOTH"
);
}
);
width = 519;
}
);
unicode = 005A;
},
{
glyphname = a;
layers = (
{
anchors = (
{
name = bottom;
position = "{245, 0}";
},
{
name = ogonek;
position = "{440, 10}";
},
{
name = top;
position = "{245, 500}";
}
);
layerId = UUID0;
paths = (
{
closed = 1;
nodes = (
"198 515 OFFCURVE",
"137 496 OFFCURVE",
"86 434 CURVE SMOOTH",
"82 429 OFFCURVE",
"71 413 OFFCURVE",
"71 402 CURVE SMOOTH",
"71 396 OFFCURVE",
"75 394 OFFCURVE",
"78 394 CURVE SMOOTH",
"82 394 OFFCURVE",
"88 396 OFFCURVE",
"106 408 CURVE SMOOTH",
"158 443 OFFCURVE",
"204 445 OFFCURVE",
"227 445 CURVE SMOOTH",
"288 445 OFFCURVE",
"341 413 OFFCURVE",
"341 301 CURVE SMOOTH",
"341 16 LINE SMOOTH",
"341 2 OFFCURVE",
"347 -5 OFFCURVE",
"358 -5 CURVE SMOOTH",
"381 -5 OFFCURVE",
"429 19 OFFCURVE",
"429 54 CURVE SMOOTH",
"429 319 LINE SMOOTH",
"429 466 OFFCURVE",
"358 515 OFFCURVE",
"254 515 CURVE SMOOTH"
);
},
{
closed = 1;
nodes = (
"282 300 OFFCURVE",
"255 306 OFFCURVE",
"230 306 CURVE SMOOTH",
"162 306 OFFCURVE",
"103 276 OFFCURVE",
"68 217 CURVE SMOOTH",
"65 212 OFFCURVE",
"58 196 OFFCURVE",
"58 188 CURVE SMOOTH",
"58 181 OFFCURVE",
"61 179 OFFCURVE",
"66 179 CURVE SMOOTH",
"71 179 OFFCURVE",
"79 185 OFFCURVE",
"89 192 CURVE",
"134 229 OFFCURVE",
"176 236 OFFCURVE",
"203 236 CURVE SMOOTH",
"232 236 OFFCURVE",
"251 231 OFFCURVE",
"286 216 CURVE",
"292 213 OFFCURVE",
"297 211 OFFCURVE",
"301 211 CURVE SMOOTH",
"313 211 OFFCURVE",
"316 224 OFFCURVE",
"316 248 CURVE SMOOTH",
"316 279 OFFCURVE",
"311 285 OFFCURVE",
"300 291 CURVE"
);
},
{
closed = 1;
nodes = (
"311 34 OFFCURVE",
"316 40 OFFCURVE",
"316 62 CURVE SMOOTH",
"316 76 OFFCURVE",
"313 80 OFFCURVE",
"310 80 CURVE SMOOTH",
"306 80 OFFCURVE",
"301 77 OFFCURVE",
"296 74 CURVE SMOOTH",
"275 62 OFFCURVE",
"243 55 OFFCURVE",
"225 55 CURVE SMOOTH",
"158 55 OFFCURVE",
"138 90 OFFCURVE",
"138 161 CURVE SMOOTH",
"138 172 OFFCURVE",
"132 177 OFFCURVE",
"125 177 CURVE SMOOTH",
"114 177 OFFCURVE",
"97 168 OFFCURVE",
"86 159 CURVE",
"66 144 OFFCURVE",
"61 125 OFFCURVE",
"61 104 CURVE SMOOTH",
"61 42 OFFCURVE",
"103 -15 OFFCURVE",
"195 -15 CURVE SMOOTH",
"232 -15 OFFCURVE",
"276 2 OFFCURVE",
"304 27 CURVE"
);
}
);
width = 489;
}
);
unicode = 0061;
},
{
glyphname = ae;
layers = (
{
layerId = UUID0;
paths = (
{
closed = 1;
nodes = (
"434 316 OFFCURVE",
"446 358 OFFCURVE",
"446 370 CURVE SMOOTH",
"446 381 OFFCURVE",
"441 385 OFFCURVE",
"435 385 CURVE SMOOTH",
"423 385 OFFCURVE",
"413 379 OFFCURVE",
"397 370 CURVE SMOOTH",
"372 355 OFFCURVE",
"341 319 OFFCURVE",
"341 238 CURVE SMOOTH",
"341 222 OFFCURVE",
"350 217 OFFCURVE",
"363 216 CURVE SMOOTH",
"391 214 OFFCURVE",
"415 212 OFFCURVE",
"440 212 CURVE SMOOTH",
"604 212 OFFCURVE",
"700 282 OFFCURVE",
"700 381 CURVE SMOOTH",
"700 473 OFFCURVE",
"634 515 OFFCURVE",
"543 515 CURVE SMOOTH",
"511 515 OFFCURVE",
"468 504 OFFCURVE",
"423 469 CURVE",
"418 466 OFFCURVE",
"410 460 OFFCURVE",
"402 460 CURVE SMOOTH",
"395 460 OFFCURVE",
"388 464 OFFCURVE",
"382 470 CURVE SMOOTH",
"346 504 OFFCURVE",
"307 515 OFFCURVE",
"254 515 CURVE SMOOTH",
"198 515 OFFCURVE",
"137 496 OFFCURVE",
"86 434 CURVE SMOOTH",
"82 429 OFFCURVE",
"71 413 OFFCURVE",
"71 402 CURVE SMOOTH",
"71 396 OFFCURVE",
"75 394 OFFCURVE",
"78 394 CURVE SMOOTH",
"82 394 OFFCURVE",
"88 396 OFFCURVE",
"106 408 CURVE SMOOTH",
"158 443 OFFCURVE",
"204 445 OFFCURVE",
"227 445 CURVE SMOOTH",
"263 445 OFFCURVE",
"295 434 OFFCURVE",
"321 398 CURVE SMOOTH",
"329 387 OFFCURVE",
"337 379 OFFCURVE",
"352 379 CURVE SMOOTH",
"366 379 OFFCURVE",
"381 389 OFFCURVE",
"395 399 CURVE SMOOTH",
"459 443 OFFCURVE",
"504 445 OFFCURVE",
"521 445 CURVE SMOOTH",
"587 445 OFFCURVE",
"607 412 OFFCURVE",
"607 378 CURVE SMOOTH",
"607 340 OFFCURVE",
"585 280 OFFCURVE",
"467 280 CURVE SMOOTH",
"450 280 OFFCURVE",
"434 281 OFFCURVE",
"434 301 CURVE SMOOTH"
);
},
{
closed = 1;
nodes = (
"287 311 OFFCURVE",
"260 314 OFFCURVE",
"237 314 CURVE SMOOTH",
"166 314 OFFCURVE",
"105 280 OFFCURVE",
"68 217 CURVE SMOOTH",
"65 212 OFFCURVE",
"58 196 OFFCURVE",
"58 188 CURVE SMOOTH",
"58 181 OFFCURVE",
"61 179 OFFCURVE",
"66 179 CURVE SMOOTH",
"71 179 OFFCURVE",
"79 185 OFFCURVE",
"89 192 CURVE",
"134 229 OFFCURVE",
"170 244 OFFCURVE",
"220 244 CURVE SMOOTH",
"264 244 OFFCURVE",
"285 226 OFFCURVE",
"303 226 CURVE SMOOTH",
"314 226 OFFCURVE",
"318 239 OFFCURVE",
"318 266 CURVE SMOOTH",
"318 294 OFFCURVE",
"313 298 OFFCURVE",
"302 303 CURVE"
);
},
{
closed = 1;
nodes = (
"643 -15 OFFCURVE",
"696 63 OFFCURVE",
"696 87 CURVE SMOOTH",
"696 95 OFFCURVE",
"692 99 OFFCURVE",
"685 99 CURVE SMOOTH",
"667 99 OFFCURVE",
"635 55 OFFCURVE",
"554 55 CURVE SMOOTH",
"491 55 OFFCURVE",
"437 71 OFFCURVE",
"434 164 CURVE SMOOTH",
"433 188 OFFCURVE",
"427 190 OFFCURVE",
"391 190 CURVE SMOOTH",
"345 190 OFFCURVE",
"345 174 OFFCURVE",
"345 149 CURVE SMOOTH",
"345 33 OFFCURVE",
"411 -15 OFFCURVE",
"521 -15 CURVE SMOOTH"
);
},
{
closed = 1;
nodes = (
"327 50 OFFCURVE",
"332 54 OFFCURVE",
"332 63 CURVE SMOOTH",
"332 66 OFFCURVE",
"331 73 OFFCURVE",
"330 76 CURVE",
"325 96 OFFCURVE",
"320 97 OFFCURVE",
"316 97 CURVE SMOOTH",
"310 97 OFFCURVE",
"305 91 OFFCURVE",
"297 85 CURVE SMOOTH",
"278 71 OFFCURVE",
"255 55 OFFCURVE",
"218 55 CURVE SMOOTH",
"158 55 OFFCURVE",
"138 90 OFFCURVE",
"138 161 CURVE SMOOTH",
"138 172 OFFCURVE",
"132 177 OFFCURVE",
"125 177 CURVE SMOOTH",
"114 177 OFFCURVE",
"97 168 OFFCURVE",
"86 159 CURVE",
"66 144 OFFCURVE",
"61 125 OFFCURVE",
"61 104 CURVE SMOOTH",
"61 42 OFFCURVE",
"103 -15 OFFCURVE",
"195 -15 CURVE SMOOTH",
"242 -15 OFFCURVE",
"292 6 OFFCURVE",
"322 43 CURVE"
);
}
);
width = 738;
}
);
unicode = 00E6;
},
{
glyphname = b;
layers = (
{
anchors = (
{
name = bottom;
position = "{256, 0}";
},
{
name = top;
position = "{256, 500}";
}
);
layerId = UUID0;
paths = (
{
closed = 1;
nodes = (
"166 468 OFFCURVE",
"159 464 OFFCURVE",
"155 464 CURVE SMOOTH",
"149 464 OFFCURVE",
"147 470 OFFCURVE",
"147 482 CURVE SMOOTH",
"148 729 LINE SMOOTH",
"148 743 OFFCURVE",
"143 750 OFFCURVE",
"131 750 CURVE SMOOTH",
"105 750 OFFCURVE",
"61 725 OFFCURVE",
"61 687 CURVE SMOOTH",
"61 374 LINE SMOOTH",
"61 366 OFFCURVE",
"62 358 OFFCURVE",
"70 358 CURVE SMOOTH",
"77 358 OFFCURVE",
"88 365 OFFCURVE",
"95 370 CURVE SMOOTH",
"162 421 OFFCURVE",
"194 445 OFFCURVE",
"251 445 CURVE SMOOTH",
"349 445 OFFCURVE",
"374 355 OFFCURVE",
"374 213 CURVE SMOOTH",
"374 174 OFFCURVE",
"370 101 OFFCURVE",
"354 57 CURVE SMOOTH",
"343 26 OFFCURVE",
"331 19 OFFCURVE",
"331 11 CURVE SMOOTH",
"331 6 OFFCURVE",
"335 2 OFFCURVE",
"341 2 CURVE SMOOTH",
"361 2 OFFCURVE",
"403 38 OFFCURVE",
"429 90 CURVE SMOOTH",
"453 137 OFFCURVE",
"467 207 OFFCURVE",
"467 269 CURVE SMOOTH",
"467 444 OFFCURVE",
"398 515 OFFCURVE",
"287 515 CURVE SMOOTH",
"254 515 OFFCURVE",
"212 502 OFFCURVE",
"174 474 CURVE SMOOTH"
);
},
{
closed = 1;
nodes = (
"171 55 OFFCURVE",
"149 80 OFFCURVE",
"148 143 CURVE",
"148 339 LINE SMOOTH",
"148 354 OFFCURVE",
"145 360 OFFCURVE",
"133 360 CURVE SMOOTH",
"120 360 OFFCURVE",
"91 340 OFFCURVE",
"74 321 CURVE",
"64 309 OFFCURVE",
"61 297 OFFCURVE",
"61 279 CURVE SMOOTH",
"61 113 LINE SMOOTH",
"61 15 OFFCURVE",
"118 -15 OFFCURVE",
"199 -15 CURVE SMOOTH",
"276 -15 OFFCURVE",
"325 28 OFFCURVE",
"325 59 CURVE SMOOTH",
"325 64 OFFCURVE",
"322 70 OFFCURVE",
"314 70 CURVE SMOOTH",
"302 70 OFFCURVE",
"286 55 OFFCURVE",
"232 55 CURVE SMOOTH"
);
}
);
width = 512;
}
);
unicode = 0062;
},
{
glyphname = c;
layers = (
{
anchors = (
{
name = bottom;
position = "{227, 0}";
},
{
name = top;
position = "{247, 500}";
}
);
layerId = UUID0;
paths = (
{
closed = 1;
nodes = (
"364 506 OFFCURVE",
"314 515 OFFCURVE",
"276 515 CURVE SMOOTH",
"180 515 OFFCURVE",
"127 483 OFFCURVE",
"80 423 CURVE SMOOTH",
"76 418 OFFCURVE",
"65 400 OFFCURVE",
"65 391 CURVE SMOOTH",
"65 385 OFFCURVE",
"68 383 OFFCURVE",
"72 383 CURVE SMOOTH",
"77 383 OFFCURVE",
"87 390 OFFCURVE",
"97 397 CURVE SMOOTH",
"147 432 OFFCURVE",
"191 445 OFFCURVE",
"240 445 CURVE SMOOTH",
"259 445 OFFCURVE",
"282 441 OFFCURVE",
"315 426 CURVE SMOOTH",
"328 420 OFFCURVE",
"336 417 OFFCURVE",
"348 417 CURVE SMOOTH",
"371 417 OFFCURVE",
"404 448 OFFCURVE",
"404 464 CURVE SMOOTH",
"404 474 OFFCURVE",
"398 480 OFFCURVE",
"389 487 CURVE SMOOTH"
);
},
{
closed = 1;
nodes = (
"137 314 OFFCURVE",
"152 358 OFFCURVE",
"152 372 CURVE SMOOTH",
"152 383 OFFCURVE",
"147 386 OFFCURVE",
"140 386 CURVE SMOOTH",
"119 386 OFFCURVE",
"82 362 OFFCURVE",
"67 339 CURVE SMOOTH",
"54 319 OFFCURVE",
"45 275 OFFCURVE",
"45 224 CURVE SMOOTH",
"45 74 OFFCURVE",
"106 -15 OFFCURVE",
"246 -15 CURVE SMOOTH",
"350 -15 OFFCURVE",
"419 61 OFFCURVE",
"419 88 CURVE SMOOTH",
"419 96 OFFCURVE",
"414 99 OFFCURVE",
"407 99 CURVE SMOOTH",
"390 99 OFFCURVE",
"357 56 OFFCURVE",
"274 56 CURVE SMOOTH",
"175 56 OFFCURVE",
"137 132 OFFCURVE",
"137 248 CURVE SMOOTH"
);
}
);
width = 454;
}
);
unicode = 0063;
},
{
color = (0,243,255,1);
glyphname = ccedilla;
layers = (
{
layerId = UUID0;
paths = (
{
closed = 1;
nodes = (
"364 506 OFFCURVE",
"314 515 OFFCURVE",
"276 515 CURVE SMOOTH",
"180 515 OFFCURVE",
"127 483 OFFCURVE",
"80 423 CURVE SMOOTH",
"76 418 OFFCURVE",
"65 400 OFFCURVE",
"65 391 CURVE SMOOTH",
"65 385 OFFCURVE",
"68 383 OFFCURVE",
"72 383 CURVE SMOOTH",
"77 383 OFFCURVE",
"87 390 OFFCURVE",
"97 397 CURVE SMOOTH",
"147 432 OFFCURVE",
"191 445 OFFCURVE",
"240 445 CURVE SMOOTH",
"259 445 OFFCURVE",
"282 441 OFFCURVE",
"315 426 CURVE SMOOTH",
"328 420 OFFCURVE",
"336 417 OFFCURVE",
"348 417 CURVE SMOOTH",
"371 417 OFFCURVE",
"404 448 OFFCURVE",
"404 464 CURVE SMOOTH",
"404 474 OFFCURVE",
"398 480 OFFCURVE",
"389 487 CURVE SMOOTH"
);
},
{
closed = 1;
nodes = (
"239 -57 OFFCURVE",
"224 -61 OFFCURVE",
"209 -61 CURVE SMOOTH",
"197 -61 OFFCURVE",
"193 -58 OFFCURVE",
"193 -50 CURVE SMOOTH",
"193 -46 OFFCURVE",
"194 -41 OFFCURVE",
"198 -29 CURVE",
"202 -15 OFFCURVE",
"208 -14 OFFCURVE",
"217 -14 CURVE SMOOTH",
"226 -14 OFFCURVE",
"236 -15 OFFCURVE",
"246 -15 CURVE SMOOTH",
"350 -15 OFFCURVE",
"419 61 OFFCURVE",
"419 88 CURVE SMOOTH",
"419 96 OFFCURVE",
"414 99 OFFCURVE",
"407 99 CURVE SMOOTH",
"390 99 OFFCURVE",
"357 56 OFFCURVE",
"274 56 CURVE SMOOTH",
"175 56 OFFCURVE",
"137 132 OFFCURVE",
"137 248 CURVE SMOOTH",
"137 314 OFFCURVE",
"152 358 OFFCURVE",
"152 372 CURVE SMOOTH",
"152 383 OFFCURVE",
"147 386 OFFCURVE",
"140 386 CURVE SMOOTH",
"119 386 OFFCURVE",
"82 362 OFFCURVE",
"67 339 CURVE SMOOTH",
"54 319 OFFCURVE",
"45 275 OFFCURVE",
"45 224 CURVE SMOOTH",
"45 120 OFFCURVE",
"74 45 OFFCURVE",
"140 9 CURVE",
"143 7 OFFCURVE",
"149 3 OFFCURVE",
"149 -7 CURVE SMOOTH",
"149 -10 OFFCURVE",
"148 -14 OFFCURVE",
"147 -18 CURVE SMOOTH",
"133 -71 LINE",
"131 -76 OFFCURVE",
"128 -91 OFFCURVE",
"128 -96 CURVE SMOOTH",
"128 -108 OFFCURVE",
"135 -114 OFFCURVE",
"148 -114 CURVE SMOOTH",
"165 -114 OFFCURVE",
"181 -106 OFFCURVE",
"204 -106 CURVE SMOOTH",
"222 -106 OFFCURVE",
"243 -112 OFFCURVE",
"243 -141 CURVE SMOOTH",
"243 -175 OFFCURVE",
"199 -206 OFFCURVE",
"144 -222 CURVE SMOOTH",
"137 -224 OFFCURVE",
"125 -229 OFFCURVE",
"125 -245 CURVE SMOOTH",
"125 -265 OFFCURVE",
"137 -271 OFFCURVE",
"146 -271 CURVE SMOOTH",
"174 -271 OFFCURVE",
"230 -245 OFFCURVE",
"253 -232 CURVE SMOOTH",
"295 -208 OFFCURVE",
"329 -174 OFFCURVE",
"329 -127 CURVE SMOOTH",
"329 -81 OFFCURVE",
"299 -57 OFFCURVE",
"256 -57 CURVE SMOOTH"
);
}
);
width = 454;
}
);
unicode = 00E7;
},
{
glyphname = d;
layers = (
{
anchors = (
{
name = bottom;
position = "{261, 0}";
},
{
name = center;
position = "{261, 258}";
},
{
name = top;
position = "{261, 500}";
},
{
name = topright;
position = "{501, 685}";
}
);
layerId = UUID0;
paths = (
{
closed = 1;
nodes = (
"373 16 LINE SMOOTH",
"373 2 OFFCURVE",
"379 -5 OFFCURVE",
"390 -5 CURVE SMOOTH",
"409 -5 OFFCURVE",
"435 8 OFFCURVE",
"452 28 CURVE SMOOTH",
"460 38 OFFCURVE",
"461 48 OFFCURVE",
"461 58 CURVE SMOOTH",
"461 729 LINE SMOOTH",
"461 743 OFFCURVE",
"455 750 OFFCURVE",
"444 750 CURVE SMOOTH",
"425 750 OFFCURVE",
"399 737 OFFCURVE",
"382 717 CURVE SMOOTH",
"374 707 OFFCURVE",
"373 697 OFFCURVE",
"373 687 CURVE SMOOTH"
);
},
{
closed = 1;
nodes = (
"325 419 OFFCURVE",
"330 417 OFFCURVE",
"334 417 CURVE SMOOTH",
"342 417 OFFCURVE",
"349 427 OFFCURVE",
"349 458 CURVE SMOOTH",
"349 491 OFFCURVE",
"342 495 OFFCURVE",
"328 501 CURVE SMOOTH",
"305 511 OFFCURVE",
"279 515 OFFCURVE",
"258 515 CURVE SMOOTH",
"196 515 OFFCURVE",
"133 494 OFFCURVE",
"83 424 CURVE",
"79 419 OFFCURVE",
"69 404 OFFCURVE",
"69 394 CURVE SMOOTH",
"69 387 OFFCURVE",
"72 385 OFFCURVE",
"77 385 CURVE SMOOTH",
"82 385 OFFCURVE",
"91 391 OFFCURVE",
"101 398 CURVE SMOOTH",
"147 428 OFFCURVE",
"186 444 OFFCURVE",
"236 444 CURVE SMOOTH",
"264 444 OFFCURVE",
"292 439 OFFCURVE",
"320 422 CURVE SMOOTH"
);
},
{
closed = 1;
nodes = (
"313 66 OFFCURVE",
"292 55 OFFCURVE",
"261 55 CURVE SMOOTH",
"170 55 OFFCURVE",
"137 116 OFFCURVE",
"137 237 CURVE SMOOTH",
"137 312 OFFCURVE",
"154 358 OFFCURVE",
"154 371 CURVE SMOOTH",
"154 381 OFFCURVE",
"149 385 OFFCURVE",
"142 385 CURVE SMOOTH",
"121 385 OFFCURVE",
"85 362 OFFCURVE",
"68 336 CURVE SMOOTH",
"55 316 OFFCURVE",
"45 269 OFFCURVE",
"45 228 CURVE SMOOTH",
"45 19 OFFCURVE",
"133 -15 OFFCURVE",
"224 -15 CURVE SMOOTH",
"266 -15 OFFCURVE",
"302 -3 OFFCURVE",
"335 26 CURVE SMOOTH",
"342 32 OFFCURVE",
"349 39 OFFCURVE",
"349 62 CURVE SMOOTH",
"349 77 OFFCURVE",
"345 80 OFFCURVE",
"340 80 CURVE SMOOTH",
"337 80 OFFCURVE",
"335 78 OFFCURVE",
"332 76 CURVE"
);
}
);
width = 521;
}
);
unicode = 0064;
},
{
glyphname = eth;
layers = (
{
layerId = UUID0;
paths = (
{
closed = 1;
nodes = (
"379 173 OFFCURVE",
"377 99 OFFCURVE",
"361 55 CURVE SMOOTH",
"350 24 OFFCURVE",
"338 17 OFFCURVE",
"338 9 CURVE SMOOTH",
"338 4 OFFCURVE",
"342 0 OFFCURVE",
"349 0 CURVE SMOOTH",
"370 0 OFFCURVE",
"411 33 OFFCURVE",
"437 84 CURVE SMOOTH",
"460 132 OFFCURVE",
"472 207 OFFCURVE",
"472 256 CURVE SMOOTH",
"472 472 OFFCURVE",
"406 635 OFFCURVE",
"273 709 CURVE SMOOTH",
"268 712 OFFCURVE",
"259 716 OFFCURVE",
"259 726 CURVE SMOOTH",
"259 729 OFFCURVE",
"260 734 OFFCURVE",
"263 739 CURVE SMOOTH",
"291 787 LINE",
"293 791 OFFCURVE",
"294 794 OFFCURVE",
"294 798 CURVE SMOOTH",
"294 802 OFFCURVE",
"292 808 OFFCURVE",
"278 808 CURVE SMOOTH",
"264 808 OFFCURVE",
"239 805 OFFCURVE",
"225 782 CURVE SMOOTH",
"209 754 LINE",
"204 746 OFFCURVE",
"198 742 OFFCURVE",
"190 742 CURVE SMOOTH",
"182 742 OFFCURVE",
"173 746 OFFCURVE",
"154 749 CURVE",
"143 750 OFFCURVE",
"133 750 OFFCURVE",
"124 750 CURVE SMOOTH",
"100 750 OFFCURVE",
"85 746 OFFCURVE",
"85 734 CURVE SMOOTH",
"85 724 OFFCURVE",
"100 718 OFFCURVE",
"125 711 CURVE SMOOTH",
"135 708 OFFCURVE",
"145 705 OFFCURVE",
"153 701 CURVE",
"158 700 OFFCURVE",
"167 696 OFFCURVE",
"167 687 CURVE SMOOTH",
"167 683 OFFCURVE",
"165 678 OFFCURVE",
"161 671 CURVE SMOOTH",
"135 626 LINE",
"132 622 OFFCURVE",
"131 618 OFFCURVE",
"131 615 CURVE SMOOTH",
"131 609 OFFCURVE",
"134 604 OFFCURVE",
"146 604 CURVE SMOOTH",
"161 604 OFFCURVE",
"187 607 OFFCURVE",
"200 630 CURVE SMOOTH",
"211 650 LINE",
"216 658 OFFCURVE",
"220 661 OFFCURVE",
"226 661 CURVE SMOOTH",
"230 661 OFFCURVE",
"235 659 OFFCURVE",
"240 654 CURVE",
"355 555 OFFCURVE",
"379 394 OFFCURVE",
"379 197 CURVE SMOOTH"
);
},
{
closed = 1;
nodes = (
"204 491 OFFCURVE",
"146 471 OFFCURVE",
"94 399 CURVE",
"90 395 OFFCURVE",
"79 376 OFFCURVE",
"79 369 CURVE SMOOTH",
"79 362 OFFCURVE",
"82 360 OFFCURVE",
"85 360 CURVE SMOOTH",
"91 360 OFFCURVE",
"101 369 OFFCURVE",
"111 375 CURVE",
"164 412 OFFCURVE",
"191 420 OFFCURVE",
"228 420 CURVE SMOOTH",
"246 420 OFFCURVE",
"267 418 OFFCURVE",
"292 409 CURVE",
"304 404 OFFCURVE",
"310 400 OFFCURVE",
"319 400 CURVE SMOOTH",
"329 400 OFFCURVE",
"338 407 OFFCURVE",
"338 421 CURVE SMOOTH",
"338 474 OFFCURVE",
"303 491 OFFCURVE",
"258 491 CURVE SMOOTH"
);
},
{
closed = 1;
nodes = (
"151 301 OFFCURVE",
"162 333 OFFCURVE",
"162 346 CURVE SMOOTH",
"162 356 OFFCURVE",
"157 360 OFFCURVE",
"149 360 CURVE SMOOTH",
"128 360 OFFCURVE",
"92 337 OFFCURVE",
"78 313 CURVE SMOOTH",
"65 292 OFFCURVE",
"60 250 OFFCURVE",
"60 228 CURVE SMOOTH",
"60 106 OFFCURVE",
"88 -15 OFFCURVE",
"219 -15 CURVE SMOOTH",
"287 -15 OFFCURVE",
"331 33 OFFCURVE",
"331 57 CURVE SMOOTH",
"331 62 OFFCURVE",
"329 68 OFFCURVE",
"320 68 CURVE SMOOTH",
"309 68 OFFCURVE",
"297 55 OFFCURVE",
"258 55 CURVE SMOOTH",
"163 55 OFFCURVE",
"151 147 OFFCURVE",
"151 255 CURVE SMOOTH"
);
}
);
width = 541;
}
);
unicode = 00F0;
},
{
glyphname = e;
layers = (
{
anchors = (
{
name = bottom;
position = "{228, 0}";
},
{
name = ogonek;
position = "{409, 10}";
},
{
name = top;
position = "{228, 500}";
}
);
layerId = UUID0;
paths = (
{
closed = 1;
nodes = (
"140 326 OFFCURVE",
"150 358 OFFCURVE",
"150 370 CURVE SMOOTH",
"150 381 OFFCURVE",
"145 385 OFFCURVE",
"138 385 CURVE SMOOTH",
"127 385 OFFCURVE",
"116 379 OFFCURVE",
"101 371 CURVE",
"76 355 OFFCURVE",
"45 329 OFFCURVE",
"45 248 CURVE SMOOTH",
"45 232 OFFCURVE",
"54 227 OFFCURVE",
"67 226 CURVE SMOOTH",
"95 224 OFFCURVE",
"121 222 OFFCURVE",
"146 222 CURVE SMOOTH",
"311 222 OFFCURVE",
"417 278 OFFCURVE",
"417 381 CURVE SMOOTH",
"417 479 OFFCURVE",
"347 515 OFFCURVE",
"257 515 CURVE SMOOTH",
"208 515 OFFCURVE",
"136 496 OFFCURVE",
"80 424 CURVE SMOOTH",
"76 419 OFFCURVE",
"66 404 OFFCURVE",
"66 394 CURVE SMOOTH",
"66 387 OFFCURVE",
"69 385 OFFCURVE",
"74 385 CURVE SMOOTH",
"79 385 OFFCURVE",
"88 392 OFFCURVE",
"98 399 CURVE SMOOTH",
"159 442 OFFCURVE",
"209 445 OFFCURVE",
"235 445 CURVE SMOOTH",
"300 445 OFFCURVE",
"323 415 OFFCURVE",
"323 378 CURVE SMOOTH",
"323 334 OFFCURVE",
"292 290 OFFCURVE",
"174 290 CURVE SMOOTH",
"156 290 OFFCURVE",
"140 291 OFFCURVE",
"140 311 CURVE SMOOTH"
);
},
{
closed = 1;
nodes = (
"49 67 OFFCURVE",
"113 -15 OFFCURVE",
"234 -15 CURVE SMOOTH",
"356 -15 OFFCURVE",
"413 63 OFFCURVE",
"413 87 CURVE SMOOTH",
"413 95 OFFCURVE",
"409 99 OFFCURVE",
"402 99 CURVE SMOOTH",
"384 99 OFFCURVE",
"352 55 OFFCURVE",
"270 55 CURVE SMOOTH",
"216 55 OFFCURVE",
"156 76 OFFCURVE",
"140 174 CURVE SMOOTH",
"136 197 OFFCURVE",
"130 200 OFFCURVE",
"114 200 CURVE SMOOTH",
"72 200 LINE SMOOTH",
"55 200 OFFCURVE",
"49 189 OFFCURVE",
"49 175 CURVE SMOOTH"
);
}
);
width = 455;
}
);
unicode = 0065;
},
{
glyphname = f;
layers = (
{
anchors = (
{
name = bottom;
position = "{153, 0}";
},
{
name = top;
position = "{153, 685}";
}
);
layerId = UUID0;
paths = (
{
closed = 1;
nodes = (
"331 741 OFFCURVE",
"291 750 OFFCURVE",
"253 750 CURVE SMOOTH",
"209 750 OFFCURVE",
"151 735 OFFCURVE",
"107 680 CURVE SMOOTH",
"99 670 OFFCURVE",
"86 651 OFFCURVE",
"86 642 CURVE SMOOTH",
"86 636 OFFCURVE",
"90 634 OFFCURVE",
"94 634 CURVE SMOOTH",
"99 634 OFFCURVE",
"110 641 OFFCURVE",
"120 648 CURVE SMOOTH",
"160 675 OFFCURVE",
"194 680 OFFCURVE",
"212 680 CURVE SMOOTH",
"244 680 OFFCURVE",
"259 672 OFFCURVE",
"283 661 CURVE SMOOTH",
"296 655 OFFCURVE",
"304 651 OFFCURVE",
"314 651 CURVE SMOOTH",
"337 651 OFFCURVE",
"371 683 OFFCURVE",
"371 699 CURVE SMOOTH",
"371 709 OFFCURVE",
"365 715 OFFCURVE",
"356 722 CURVE SMOOTH"
);
},
{
closed = 1;
nodes = (
"203 430 LINE SMOOTH",
"228 430 OFFCURVE",
"246 431 OFFCURVE",
"259 436 CURVE",
"280 443 OFFCURVE",
"308 473 OFFCURVE",
"308 489 CURVE SMOOTH",
"308 498 OFFCURVE",
"300 500 OFFCURVE",
"291 500 CURVE SMOOTH",
"192 500 LINE SMOOTH",
"170 500 OFFCURVE",
"167 513 OFFCURVE",
"167 529 CURVE SMOOTH",
"167 582 OFFCURVE",
"171 603 OFFCURVE",
"171 618 CURVE SMOOTH",
"171 627 OFFCURVE",
"166 634 OFFCURVE",
"155 634 CURVE SMOOTH",
"142 634 OFFCURVE",
"115 620 OFFCURVE",
"98 600 CURVE SMOOTH",
"83 582 OFFCURVE",
"76 547 OFFCURVE",
"76 473 CURVE SMOOTH",
"76 456 LINE SMOOTH",
"76 434 OFFCURVE",
"88 430 OFFCURVE",
"102 430 CURVE SMOOTH"
);
},
{
closed = 1;
nodes = (
"51 484 LINE SMOOTH",
"51 496 OFFCURVE",
"47 500 OFFCURVE",
"40 500 CURVE SMOOTH",
"23 500 OFFCURVE",
"-15 458 OFFCURVE",
"-15 440 CURVE SMOOTH",
"-15 432 OFFCURVE",
"-7 430 OFFCURVE",
"2 430 CURVE SMOOTH",
"25 430 LINE SMOOTH",
"47 430 OFFCURVE",
"51 441 OFFCURVE",
"51 456 CURVE SMOOTH"
);
},
{
closed = 1;
nodes = (
"164 379 LINE SMOOTH",
"164 405 OFFCURVE",
"142 405 OFFCURVE",
"120 405 CURVE SMOOTH",
"99 405 OFFCURVE",
"76 405 OFFCURVE",
"76 379 CURVE SMOOTH",
"76 16 LINE SMOOTH",
"76 2 OFFCURVE",
"82 -5 OFFCURVE",
"93 -5 CURVE SMOOTH",
"118 -5 OFFCURVE",
"164 19 OFFCURVE",
"164 57 CURVE SMOOTH"
);
}
);
width = 306;
}
);
unicode = 0066;
},
{
glyphname = g;
layers = (
{
anchors = (
{
name = bottom;
position = "{263, 0}";
},
{
name = top;
position = "{263, 500}";
}
);
layerId = UUID0;
paths = (
{
closed = 1;
nodes = (
"479 429 OFFCURVE",
"506 455 OFFCURVE",
"506 470 CURVE SMOOTH",
"506 479 OFFCURVE",
"498 481 OFFCURVE",
"490 481 CURVE SMOOTH",
"397 481 LINE SMOOTH",
"382 481 OFFCURVE",
"372 482 OFFCURVE",
"346 493 CURVE SMOOTH",
"316 506 OFFCURVE",
"284 515 OFFCURVE",
"239 515 CURVE SMOOTH",
"194 515 OFFCURVE",
"118 502 OFFCURVE",
"66 425 CURVE",
"63 420 OFFCURVE",
"53 406 OFFCURVE",
"53 399 CURVE SMOOTH",
"53 392 OFFCURVE",
"56 390 OFFCURVE",
"61 390 CURVE SMOOTH",
"66 390 OFFCURVE",
"74 397 OFFCURVE",
"84 404 CURVE SMOOTH",
"137 439 OFFCURVE",
"188 445 OFFCURVE",
"206 445 CURVE SMOOTH",
"242 445 OFFCURVE",
"266 437 OFFCURVE",
"296 425 CURVE SMOOTH",
"322 415 OFFCURVE",
"352 414 OFFCURVE",
"383 414 CURVE SMOOTH",
"408 414 OFFCURVE",
"438 414 OFFCURVE",
"459 421 CURVE"
);
},
{
closed = 1;
nodes = (
"54 349 OFFCURVE",
"51 322 OFFCURVE",
"51 300 CURVE SMOOTH",
"51 182 OFFCURVE",
"134 148 OFFCURVE",
"208 148 CURVE SMOOTH",
"288 148 OFFCURVE",
"321 195 OFFCURVE",
"321 214 CURVE SMOOTH",
"321 220 OFFCURVE",
"318 224 OFFCURVE",
"313 224 CURVE SMOOTH",
"300 224 OFFCURVE",
"294 211 OFFCURVE",
"254 211 CURVE SMOOTH",
"212 211 OFFCURVE",
"138 217 OFFCURVE",
"138 329 CURVE SMOOTH",
"138 354 OFFCURVE",
"141 369 OFFCURVE",
"141 380 CURVE SMOOTH",
"141 391 OFFCURVE",
"135 395 OFFCURVE",
"128 395 CURVE SMOOTH",
"113 395 OFFCURVE",
"84 376 OFFCURVE",
"74 367 CURVE SMOOTH"
);
},
{
closed = 1;
nodes = (
"346 389 OFFCURVE",
"344 383 OFFCURVE",
"344 378 CURVE SMOOTH",
"344 376 OFFCURVE",
"345 375 OFFCURVE",
"347 372 CURVE SMOOTH",
"363 349 OFFCURVE",
"368 303 OFFCURVE",
"368 287 CURVE SMOOTH",
"368 214 OFFCURVE",
"334 191 OFFCURVE",
"334 179 CURVE SMOOTH",
"334 172 OFFCURVE",
"338 170 OFFCURVE",
"343 170 CURVE SMOOTH",
"357 170 OFFCURVE",
"396 202 OFFCURVE",
"412 226 CURVE SMOOTH",
"435 261 OFFCURVE",
"443 291 OFFCURVE",
"443 328 CURVE SMOOTH",
"443 337 OFFCURVE",
"442 363 OFFCURVE",
"431 377 CURVE SMOOTH",
"426 383 OFFCURVE",
"419 389 OFFCURVE",
"387 389 CURVE SMOOTH"
);
},
{
closed = 1;
nodes = (
"371 -261 OFFCURVE",
"366 -265 OFFCURVE",
"366 -270 CURVE SMOOTH",
"366 -275 OFFCURVE",
"370 -278 OFFCURVE",
"376 -278 CURVE",
"425 -275 OFFCURVE",
"500 -214 OFFCURVE",
"500 -124 CURVE SMOOTH",
"500 33 OFFCURVE",
"373 50 OFFCURVE",
"234 50 CURVE SMOOTH",
"155 50 OFFCURVE",
"116 53 OFFCURVE",
"116 88 CURVE SMOOTH",
"116 109 OFFCURVE",
"127 122 OFFCURVE",
"127 131 CURVE SMOOTH",
"127 137 OFFCURVE",
"125 140 OFFCURVE",
"119 140 CURVE SMOOTH",
"103 140 OFFCURVE",
"56 109 OFFCURVE",
"56 55 CURVE SMOOTH",
"56 -32 OFFCURVE",
"144 -33 OFFCURVE",
"251 -34 CURVE SMOOTH",
"361 -35 OFFCURVE",
"426 -63 OFFCURVE",
"426 -160 CURVE SMOOTH",
"426 -196 OFFCURVE",
"409 -235 OFFCURVE",
"374 -259 CURVE SMOOTH"
);
},
{
closed = 1;
nodes = (
"40 -260 OFFCURVE",
"137 -295 OFFCURVE",
"203 -295 CURVE SMOOTH",
"321 -295 OFFCURVE",
"377 -236 OFFCURVE",
"377 -212 CURVE SMOOTH",
"377 -207 OFFCURVE",
"374 -203 OFFCURVE",
"368 -203 CURVE SMOOTH",
"364 -203 OFFCURVE",
"319 -225 OFFCURVE",
"262 -225 CURVE SMOOTH",
"173 -225 OFFCURVE",
"113 -189 OFFCURVE",
"113 -128 CURVE SMOOTH",
"113 -86 OFFCURVE",
"122 -67 OFFCURVE",
"122 -57 CURVE SMOOTH",
"122 -52 OFFCURVE",
"120 -47 OFFCURVE",
"113 -47 CURVE SMOOTH",
"93 -47 OFFCURVE",
"40 -96 OFFCURVE",
"40 -170 CURVE SMOOTH"
);
}
);
width = 526;
}
);
unicode = 0067;
},
{
glyphname = h;
layers = (
{
anchors = (
{
name = bottom;
position = "{252, 0}";
},
{
name = center;
position = "{252, 258}";
},
{
name = top;
position = "{252, 500}";
}
);
layerId = UUID0;
paths = (
{
closed = 1;
nodes = (
"167 467 OFFCURVE",
"161 464 OFFCURVE",
"157 464 CURVE SMOOTH",
"150 464 OFFCURVE",
"147 471 OFFCURVE",
"147 485 CURVE SMOOTH",
"149 729 LINE SMOOTH",
"149 743 OFFCURVE",
"143 750 OFFCURVE",
"132 750 CURVE SMOOTH",
"108 750 OFFCURVE",
"61 727 OFFCURVE",
"61 689 CURVE SMOOTH",
"61 373 LINE SMOOTH",
"61 365 OFFCURVE",
"62 358 OFFCURVE",
"71 358 CURVE SMOOTH",
"78 358 OFFCURVE",
"88 365 OFFCURVE",
"95 370 CURVE SMOOTH",
"164 423 OFFCURVE",
"212 445 OFFCURVE",
"251 445 CURVE SMOOTH",
"360 445 OFFCURVE",
"361 355 OFFCURVE",
"361 209 CURVE SMOOTH",
"361 16 LINE SMOOTH",
"361 2 OFFCURVE",
"367 -5 OFFCURVE",
"378 -5 CURVE SMOOTH",
"404 -5 OFFCURVE",
"449 20 OFFCURVE",
"449 58 CURVE SMOOTH",
"449 307 LINE SMOOTH",
"449 455 OFFCURVE",
"401 515 OFFCURVE",
"296 515 CURVE SMOOTH",
"252 515 OFFCURVE",
"215 500 OFFCURVE",
"174 472 CURVE SMOOTH"
);
},
{
closed = 1;
nodes = (
"61 16 LINE SMOOTH",
"61 2 OFFCURVE",
"67 -5 OFFCURVE",
"78 -5 CURVE SMOOTH",
"101 -5 OFFCURVE",
"149 17 OFFCURVE",
"149 56 CURVE SMOOTH",
"149 338 LINE SMOOTH",
"149 352 OFFCURVE",
"145 359 OFFCURVE",
"134 359 CURVE SMOOTH",
"121 359 OFFCURVE",
"91 339 OFFCURVE",
"74 320 CURVE SMOOTH",
"63 307 OFFCURVE",
"61 293 OFFCURVE",
"61 278 CURVE SMOOTH"
);
}
);
width = 503;
}
);
unicode = 0068;
},
{
glyphname = idotless;
layers = (
{
anchors = (
{
name = bottom;
position = "{104, 0}";
},
{
name = ogonek;
position = "{187, 10}";
},
{
name = top;
position = "{104, 500}";
}
);
layerId = UUID0;
paths = (
{
closed = 1;
nodes = (
"148 494 LINE SMOOTH",
"148 508 OFFCURVE",
"142 515 OFFCURVE",
"131 515 CURVE SMOOTH",
"112 515 OFFCURVE",
"86 502 OFFCURVE",
"69 482 CURVE SMOOTH",
"61 472 OFFCURVE",
"60 462 OFFCURVE",
"60 452 CURVE SMOOTH",
"60 16 LINE SMOOTH",
"60 2 OFFCURVE",
"66 -5 OFFCURVE",
"77 -5 CURVE SMOOTH",
"96 -5 OFFCURVE",
"122 8 OFFCURVE",
"139 28 CURVE SMOOTH",
"147 38 OFFCURVE",
"148 48 OFFCURVE",
"148 58 CURVE SMOOTH"
);
}
);
width = 208;
}
);
unicode = 0131;
},
{
glyphname = jdotless;
layers = (
{
anchors = (
{
name = bottom;
position = "{113, 0}";
},
{
name = top;
position = "{122, 500}";
}
);
layerId = UUID0;
paths = (
{
closed = 1;
nodes = (
"165 494 LINE SMOOTH",
"165 508 OFFCURVE",
"159 515 OFFCURVE",
"148 515 CURVE SMOOTH",
"129 515 OFFCURVE",
"103 502 OFFCURVE",
"86 482 CURVE SMOOTH",
"78 472 OFFCURVE",
"77 462 OFFCURVE",
"77 452 CURVE SMOOTH",
"78 -162 LINE SMOOTH",
"78 -195 OFFCURVE",
"77 -210 OFFCURVE",
"76 -221 CURVE",
"72 -248 OFFCURVE",
"62 -259 OFFCURVE",
"62 -267 CURVE SMOOTH",
"62 -271 OFFCURVE",
"64 -275 OFFCURVE",
"71 -275 CURVE SMOOTH",
"104 -275 OFFCURVE",
"165 -225 OFFCURVE",
"165 -99 CURVE SMOOTH"
);
},
{
closed = 1;
nodes = (
"-42 -194 OFFCURVE",
"-49 -191 OFFCURVE",
"-57 -191 CURVE SMOOTH",
"-67 -191 OFFCURVE",
"-78 -197 OFFCURVE",
"-89 -207 CURVE SMOOTH",
"-99 -216 OFFCURVE",
"-107 -228 OFFCURVE",
"-107 -241 CURVE SMOOTH",
"-107 -261 OFFCURVE",
"-79 -295 OFFCURVE",
"-28 -295 CURVE SMOOTH",
"23 -295 OFFCURVE",
"49 -244 OFFCURVE",
"49 -225 CURVE SMOOTH",
"49 -216 OFFCURVE",
"45 -214 OFFCURVE",
"40 -214 CURVE SMOOTH",
"31 -214 OFFCURVE",
"19 -225 OFFCURVE",
"6 -225 CURVE SMOOTH",
"-8 -225 OFFCURVE",
"-18 -221 OFFCURVE",
"-31 -206 CURVE SMOOTH"
);
}
);
width = 225;
}
);
unicode = 0237;
},
{
glyphname = k;
layers = (
{
anchors = (
{
name = bottom;
position = "{229, 0}";
},
{
name = top;
position = "{229, 500}";
}
);
layerId = UUID0;
paths = (
{
closed = 1;
nodes = (
"61 16 LINE SMOOTH",
"61 2 OFFCURVE",
"67 -5 OFFCURVE",
"78 -5 CURVE SMOOTH",
"104 -5 OFFCURVE",
"149 18 OFFCURVE",
"149 57 CURVE SMOOTH",
"149 729 LINE SMOOTH",
"149 743 OFFCURVE",
"143 750 OFFCURVE",
"132 750 CURVE SMOOTH",
"106 750 OFFCURVE",
"61 727 OFFCURVE",
"61 688 CURVE SMOOTH"
);
},
{
closed = 1;
nodes = (
"424 39 OFFCURVE",
"427 49 OFFCURVE",
"427 56 CURVE SMOOTH",
"427 65 OFFCURVE",
"422 74 OFFCURVE",
"418 80 CURVE",
"276 275 LINE",
"270 284 OFFCURVE",
"268 289 OFFCURVE",
"268 293 CURVE SMOOTH",
"268 301 OFFCURVE",
"272 308 OFFCURVE",
"279 315 CURVE SMOOTH",
"424 465 LINE SMOOTH",
"436 477 OFFCURVE",
"438 482 OFFCURVE",
"438 488 CURVE SMOOTH",
"438 497 OFFCURVE",
"432 500 OFFCURVE",
"423 500 CURVE SMOOTH",
"377 500 OFFCURVE",
"360 500 OFFCURVE",
"331 467 CURVE SMOOTH",
"187 306 LINE SMOOTH",
"178 296 OFFCURVE",
"173 288 OFFCURVE",
"173 279 CURVE SMOOTH",
"173 273 OFFCURVE",
"177 266 OFFCURVE",
"182 259 CURVE SMOOTH",
"350 13 LINE",
"354 6 OFFCURVE",
"362 -5 OFFCURVE",
"374 -5 CURVE SMOOTH",
"386 -5 OFFCURVE",
"401 -1 OFFCURVE",
"419 31 CURVE"
);
}
);
width = 458;
}
);
unicode = 006B;
},
{
glyphname = l;
layers = (
{
anchors = (
{
name = bottom;
position = "{104, 0}";
},
{
name = center;
position = "{104, 258}";
},
{
name = top;
position = "{105, 750}";
},
{
name = topright;
position = "{188, 685}";
}
);
layerId = UUID0;
paths = (
{
closed = 1;
nodes = (
"60 16 LINE SMOOTH",
"60 2 OFFCURVE",
"66 -5 OFFCURVE",
"77 -5 CURVE SMOOTH",
"103 -5 OFFCURVE",
"148 17 OFFCURVE",
"148 56 CURVE SMOOTH",
"148 729 LINE SMOOTH",
"148 743 OFFCURVE",
"142 750 OFFCURVE",
"131 750 CURVE SMOOTH",
"105 750 OFFCURVE",
"60 727 OFFCURVE",
"60 689 CURVE SMOOTH"
);
}
);
width = 208;
}
);
unicode = 006C;
},
{
glyphname = m;
layers = (
{
anchors = (
{
name = bottom;
position = "{387, 0}";
},
{
name = top;
position = "{387, 500}";
}
);
layerId = UUID0;
paths = (
{
closed = 1;
nodes = (
"340 508 OFFCURVE",
"320 515 OFFCURVE",
"284 515 CURVE SMOOTH",
"259 515 OFFCURVE",
"221 504 OFFCURVE",
"176 474 CURVE SMOOTH",
"167 468 OFFCURVE",
"161 465 OFFCURVE",
"157 465 CURVE SMOOTH",
"151 465 OFFCURVE",
"149 470 OFFCURVE",
"149 482 CURVE SMOOTH",
"149 494 LINE SMOOTH",
"149 508 OFFCURVE",
"143 515 OFFCURVE",
"132 515 CURVE SMOOTH",
"106 515 OFFCURVE",
"61 491 OFFCURVE",
"61 454 CURVE SMOOTH",
"61 374 LINE SMOOTH",
"61 367 OFFCURVE",
"62 358 OFFCURVE",
"71 358 CURVE SMOOTH",
"78 358 OFFCURVE",
"89 365 OFFCURVE",
"95 370 CURVE",
"166 425 OFFCURVE",
"208 445 OFFCURVE",
"246 445 CURVE SMOOTH",
"298 445 OFFCURVE",
"318 419 OFFCURVE",
"331 373 CURVE",
"333 364 OFFCURVE",
"336 352 OFFCURVE",
"345 352 CURVE SMOOTH",
"352 352 OFFCURVE",
"359 357 OFFCURVE",
"367 363 CURVE SMOOTH",
"434 415 OFFCURVE",
"475 445 OFFCURVE",
"524 445 CURVE SMOOTH",
"626 445 OFFCURVE",
"631 356 OFFCURVE",
"631 209 CURVE SMOOTH",
"631 16 LINE SMOOTH",
"631 2 OFFCURVE",
"637 -5 OFFCURVE",
"648 -5 CURVE SMOOTH",
"674 -5 OFFCURVE",
"718 23 OFFCURVE",
"718 61 CURVE SMOOTH",
"718 308 LINE SMOOTH",
"718 460 OFFCURVE",
"666 515 OFFCURVE",
"567 515 CURVE SMOOTH",
"542 515 OFFCURVE",
"501 504 OFFCURVE",
"454 474 CURVE SMOOTH",
"432 460 OFFCURVE",
"419 453 OFFCURVE",
"409 453 CURVE SMOOTH",
"395 453 OFFCURVE",
"389 463 OFFCURVE",
"367 483 CURVE SMOOTH"
);
},
{
closed = 1;
nodes = (
"61 16 LINE SMOOTH",
"61 2 OFFCURVE",
"67 -5 OFFCURVE",
"78 -5 CURVE SMOOTH",
"104 -5 OFFCURVE",
"149 20 OFFCURVE",
"149 58 CURVE SMOOTH",
"149 339 LINE SMOOTH",
"149 353 OFFCURVE",
"145 360 OFFCURVE",
"134 360 CURVE SMOOTH",
"119 360 OFFCURVE",
"92 341 OFFCURVE",
"74 321 CURVE SMOOTH",
"62 308 OFFCURVE",
"61 294 OFFCURVE",
"61 279 CURVE SMOOTH"
);
},
{
closed = 1;
nodes = (
"343 16 LINE SMOOTH",
"343 2 OFFCURVE",
"349 -5 OFFCURVE",
"360 -5 CURVE SMOOTH",
"379 -5 OFFCURVE",
"406 7 OFFCURVE",
"422 28 CURVE SMOOTH",
"430 38 OFFCURVE",
"431 51 OFFCURVE",
"431 61 CURVE SMOOTH",
"431 339 LINE SMOOTH",
"431 353 OFFCURVE",
"427 360 OFFCURVE",
"416 360 CURVE SMOOTH",
"402 360 OFFCURVE",
"374 340 OFFCURVE",
"356 321 CURVE",
"345 308 OFFCURVE",
"343 294 OFFCURVE",
"343 279 CURVE SMOOTH"
);
}
);
width = 773;
}
);
unicode = 006D;
},
{
glyphname = n;
layers = (
{
anchors = (
{
name = bottom;
position = "{254, 0}";
},
{
name = top;
position = "{254, 500}";
}
);
layerId = UUID0;
paths = (
{
closed = 1;
nodes = (
"167 467 OFFCURVE",
"161 464 OFFCURVE",
"157 464 CURVE SMOOTH",
"151 464 OFFCURVE",
"149 470 OFFCURVE",
"149 482 CURVE SMOOTH",
"149 494 LINE SMOOTH",
"149 508 OFFCURVE",
"143 515 OFFCURVE",
"132 515 CURVE SMOOTH",
"106 515 OFFCURVE",
"61 490 OFFCURVE",
"61 452 CURVE SMOOTH",
"61 375 LINE SMOOTH",
"61 367 OFFCURVE",
"62 358 OFFCURVE",
"71 358 CURVE SMOOTH",
"78 358 OFFCURVE",
"88 365 OFFCURVE",
"95 370 CURVE SMOOTH",
"162 421 OFFCURVE",
"212 445 OFFCURVE",
"249 445 CURVE SMOOTH",
"363 445 OFFCURVE",
"364 356 OFFCURVE",
"364 209 CURVE SMOOTH",
"364 16 LINE SMOOTH",
"364 2 OFFCURVE",
"371 -5 OFFCURVE",
"381 -5 CURVE SMOOTH",
"408 -5 OFFCURVE",
"452 20 OFFCURVE",
"452 58 CURVE SMOOTH",
"452 308 LINE SMOOTH",
"452 460 OFFCURVE",
"399 515 OFFCURVE",
"288 515 CURVE SMOOTH",
"258 515 OFFCURVE",
"215 502 OFFCURVE",
"176 474 CURVE"
);
},
{
closed = 1;
nodes = (
"61 16 LINE SMOOTH",
"61 2 OFFCURVE",
"67 -5 OFFCURVE",
"78 -5 CURVE SMOOTH",
"104 -5 OFFCURVE",
"149 19 OFFCURVE",
"149 58 CURVE SMOOTH",
"149 339 LINE SMOOTH",
"149 353 OFFCURVE",
"145 360 OFFCURVE",
"134 360 CURVE SMOOTH",
"120 360 OFFCURVE",
"91 340 OFFCURVE",
"74 321 CURVE SMOOTH",
"63 308 OFFCURVE",
"61 294 OFFCURVE",
"61 279 CURVE SMOOTH"
);
}
);
width = 507;
}
);
unicode = 006E;
},
{
glyphname = o;
layers = (
{
anchors = (
{
name = bottom;
position = "{259, 0}";
},
{
name = center;
position = "{259, 258}";
},
{
name = ogonek;
position = "{465, 10}";
},
{
name = top;
position = "{259, 500}";
},
{
name = topright;
position = "{405, 464}";
}
);
layerId = UUID0;
paths = (
{
closed = 1;
nodes = (
"201 515 OFFCURVE",
"137 498 OFFCURVE",
"79 424 CURVE SMOOTH",
"75 419 OFFCURVE",
"64 401 OFFCURVE",
"64 393 CURVE SMOOTH",
"64 386 OFFCURVE",
"67 385 OFFCURVE",
"71 385 CURVE SMOOTH",
"76 385 OFFCURVE",
"86 393 OFFCURVE",
"96 400 CURVE SMOOTH",
"149 436 OFFCURVE",
"187 445 OFFCURVE",
"223 445 CURVE SMOOTH",
"344 445 OFFCURVE",
"379 352 OFFCURVE",
"379 212 CURVE SMOOTH",
"379 173 OFFCURVE",
"375 101 OFFCURVE",
"359 57 CURVE SMOOTH",
"348 26 OFFCURVE",
"336 19 OFFCURVE",
"336 11 CURVE SMOOTH",
"336 6 OFFCURVE",
"340 2 OFFCURVE",
"346 2 CURVE SMOOTH",
"367 2 OFFCURVE",
"409 39 OFFCURVE",
"435 91 CURVE SMOOTH",
"458 138 OFFCURVE",
"472 204 OFFCURVE",
"472 256 CURVE SMOOTH",
"472 423 OFFCURVE",
"407 515 OFFCURVE",
"256 515 CURVE SMOOTH"
);
},
{
closed = 1;
nodes = (
"137 317 OFFCURVE",
"147 357 OFFCURVE",
"147 370 CURVE SMOOTH",
"147 381 OFFCURVE",
"142 385 OFFCURVE",
"135 385 CURVE SMOOTH",
"114 385 OFFCURVE",
"77 362 OFFCURVE",
"63 338 CURVE SMOOTH",
"51 317 OFFCURVE",
"45 273 OFFCURVE",
"45 243 CURVE SMOOTH",
"45 107 OFFCURVE",
"73 -15 OFFCURVE",
"219 -15 CURVE SMOOTH",
"287 -15 OFFCURVE",
"328 33 OFFCURVE",
"328 57 CURVE SMOOTH",
"328 62 OFFCURVE",
"326 68 OFFCURVE",
"318 68 CURVE SMOOTH",
"306 68 OFFCURVE",
"297 55 OFFCURVE",
"258 55 CURVE SMOOTH",
"149 55 OFFCURVE",
"137 147 OFFCURVE",
"137 270 CURVE SMOOTH"
);
}
);
width = 517;
}
);
unicode = 006F;
},
{
glyphname = oslash;
layers = (
{
layerId = UUID0;
paths = (
{
closed = 1;
nodes = (
"403 573 OFFCURVE",
"395 562 OFFCURVE",
"385 543 CURVE SMOOTH",
"74 -56 LINE SMOOTH",
"68 -67 OFFCURVE",
"67 -71 OFFCURVE",
"67 -76 CURVE SMOOTH",
"67 -81 OFFCURVE",
"71 -85 OFFCURVE",
"77 -85 CURVE SMOOTH",
"102 -85 OFFCURVE",
"127 -74 OFFCURVE",
"137 -57 CURVE",
"154 -22 LINE",
"160 -12 OFFCURVE",
"165 -10 OFFCURVE",
"169 -10 CURVE SMOOTH",
"172 -10 OFFCURVE",
"174 -11 OFFCURVE",
"176 -11 CURVE",
"189 -14 OFFCURVE",
"204 -15 OFFCURVE",
"219 -15 CURVE SMOOTH",
"287 -15 OFFCURVE",
"328 33 OFFCURVE",
"328 57 CURVE SMOOTH",
"328 62 OFFCURVE",
"326 68 OFFCURVE",
"318 68 CURVE SMOOTH",
"306 68 OFFCURVE",
"297 53 OFFCURVE",
"258 53 CURVE SMOOTH",
"241 53 OFFCURVE",
"224 55 OFFCURVE",
"213 61 CURVE",
"209 63 OFFCURVE",
"206 65 OFFCURVE",
"206 72 CURVE SMOOTH",
"206 74 OFFCURVE",
"206 78 OFFCURVE",
"209 83 CURVE",
"346 345 LINE SMOOTH",
"350 353 OFFCURVE",
"354 355 OFFCURVE",
"357 355 CURVE SMOOTH",
"362 355 OFFCURVE",
"365 351 OFFCURVE",
"369 341 CURVE",
"381 304 OFFCURVE",
"388 263 OFFCURVE",
"388 212 CURVE SMOOTH",
"388 173 OFFCURVE",
"375 101 OFFCURVE",
"359 57 CURVE SMOOTH",
"348 26 OFFCURVE",
"336 19 OFFCURVE",
"336 11 CURVE SMOOTH",
"336 6 OFFCURVE",
"340 2 OFFCURVE",
"346 2 CURVE SMOOTH",
"367 2 OFFCURVE",
"409 39 OFFCURVE",
"435 91 CURVE SMOOTH",
"458 138 OFFCURVE",
"472 204 OFFCURVE",
"472 256 CURVE SMOOTH",
"472 339 OFFCURVE",
"456 403 OFFCURVE",
"421 447 CURVE SMOOTH",
"418 451 OFFCURVE",
"412 456 OFFCURVE",
"412 465 CURVE SMOOTH",
"412 469 OFFCURVE",
"413 474 OFFCURVE",
"416 480 CURVE SMOOTH",
"453 551 LINE SMOOTH",
"460 565 OFFCURVE",
"460 570 OFFCURVE",
"460 572 CURVE SMOOTH",
"460 577 OFFCURVE",
"458 581 OFFCURVE",
"450 581 CURVE SMOOTH",
"443 581 OFFCURVE",
"436 580 OFFCURVE",
"425 578 CURVE"
);
},
{
closed = 1;
nodes = (
"323 479 OFFCURVE",
"327 487 OFFCURVE",
"327 494 CURVE SMOOTH",
"327 515 OFFCURVE",
"287 515 OFFCURVE",
"259 515 CURVE SMOOTH",
"203 515 OFFCURVE",
"139 500 OFFCURVE",
"79 424 CURVE SMOOTH",
"75 419 OFFCURVE",
"64 401 OFFCURVE",
"64 393 CURVE SMOOTH",
"64 386 OFFCURVE",
"67 385 OFFCURVE",
"71 385 CURVE SMOOTH",
"76 385 OFFCURVE",
"86 393 OFFCURVE",
"96 400 CURVE SMOOTH",
"149 436 OFFCURVE",
"187 446 OFFCURVE",
"223 446 CURVE SMOOTH",
"239 446 OFFCURVE",
"253 444 OFFCURVE",
"267 441 CURVE",
"273 439 OFFCURVE",
"279 437 OFFCURVE",
"285 437 CURVE SMOOTH",
"295 437 OFFCURVE",
"305 443 OFFCURVE",
"317 467 CURVE SMOOTH"
);
},
{
closed = 1;
nodes = (
"134 106 OFFCURVE",
"138 124 OFFCURVE",
"138 137 CURVE SMOOTH",
"138 147 OFFCURVE",
"135 156 OFFCURVE",
"134 161 CURVE SMOOTH",
"129 187 OFFCURVE",
"127 217 OFFCURVE",
"127 249 CURVE SMOOTH",
"127 315 OFFCURVE",
"147 357 OFFCURVE",
"147 370 CURVE SMOOTH",
"147 381 OFFCURVE",
"142 385 OFFCURVE",
"135 385 CURVE SMOOTH",
"114 385 OFFCURVE",
"77 362 OFFCURVE",
"63 338 CURVE SMOOTH",
"51 317 OFFCURVE",
"45 273 OFFCURVE",
"45 243 CURVE SMOOTH",
"45 174 OFFCURVE",
"52 111 OFFCURVE",
"75 64 CURVE",
"78 60 OFFCURVE",
"81 54 OFFCURVE",
"87 54 CURVE SMOOTH",
"94 54 OFFCURVE",
"104 61 OFFCURVE",
"120 84 CURVE"
);
}
);
width = 517;
}
);
unicode = 00F8;
},
{
glyphname = oe;
layers = (
{
layerId = UUID0;
paths = (
{
closed = 1;
nodes = (
"454 326 OFFCURVE",
"463 358 OFFCURVE",
"463 370 CURVE SMOOTH",
"463 381 OFFCURVE",
"458 385 OFFCURVE",
"452 385 CURVE SMOOTH",
"440 385 OFFCURVE",
"430 379 OFFCURVE",
"415 370 CURVE SMOOTH",
"389 355 OFFCURVE",
"358 329 OFFCURVE",
"358 248 CURVE SMOOTH",
"358 232 OFFCURVE",
"367 227 OFFCURVE",
"380 226 CURVE SMOOTH",
"408 224 OFFCURVE",
"435 222 OFFCURVE",
"460 222 CURVE SMOOTH",
"622 222 OFFCURVE",
"728 279 OFFCURVE",
"728 381 CURVE SMOOTH",
"728 479 OFFCURVE",
"661 515 OFFCURVE",
"570 515 CURVE SMOOTH",
"532 515 OFFCURVE",
"480 504 OFFCURVE",
"433 463 CURVE",
"428 459 OFFCURVE",
"421 455 OFFCURVE",
"415 455 CURVE SMOOTH",
"409 455 OFFCURVE",
"401 460 OFFCURVE",
"395 467 CURVE",
"362 500 OFFCURVE",
"316 515 OFFCURVE",
"251 515 CURVE SMOOTH",
"196 515 OFFCURVE",
"137 498 OFFCURVE",
"79 424 CURVE SMOOTH",
"75 419 OFFCURVE",
"64 401 OFFCURVE",
"64 393 CURVE SMOOTH",
"64 386 OFFCURVE",
"67 385 OFFCURVE",
"71 385 CURVE SMOOTH",
"76 385 OFFCURVE",
"86 393 OFFCURVE",
"96 400 CURVE SMOOTH",
"149 436 OFFCURVE",
"182 445 OFFCURVE",
"218 445 CURVE SMOOTH",
"272 445 OFFCURVE",
"304 425 OFFCURVE",
"329 394 CURVE SMOOTH",
"339 382 OFFCURVE",
"348 374 OFFCURVE",
"360 374 CURVE SMOOTH",
"371 374 OFFCURVE",
"384 380 OFFCURVE",
"400 391 CURVE",
"482 443 OFFCURVE",
"525 445 OFFCURVE",
"548 445 CURVE SMOOTH",
"611 445 OFFCURVE",
"634 415 OFFCURVE",
"634 378 CURVE SMOOTH",
"634 334 OFFCURVE",
"602 290 OFFCURVE",
"487 290 CURVE SMOOTH",
"470 290 OFFCURVE",
"454 291 OFFCURVE",
"454 311 CURVE SMOOTH"
);
},
{
closed = 1;
nodes = (
"137 317 OFFCURVE",
"147 357 OFFCURVE",
"147 370 CURVE SMOOTH",
"147 381 OFFCURVE",
"142 385 OFFCURVE",
"135 385 CURVE SMOOTH",
"114 385 OFFCURVE",
"77 362 OFFCURVE",
"63 338 CURVE SMOOTH",
"51 317 OFFCURVE",
"45 273 OFFCURVE",
"45 243 CURVE SMOOTH",
"45 107 OFFCURVE",
"68 -15 OFFCURVE",
"214 -15 CURVE SMOOTH",
"282 -15 OFFCURVE",
"318 33 OFFCURVE",
"318 57 CURVE SMOOTH",
"318 62 OFFCURVE",
"316 68 OFFCURVE",
"308 68 CURVE SMOOTH",
"296 68 OFFCURVE",
"292 55 OFFCURVE",
"253 55 CURVE SMOOTH",
"144 55 OFFCURVE",
"137 147 OFFCURVE",
"137 270 CURVE SMOOTH"
);
},
{
closed = 1;
nodes = (
"367 202 OFFCURVE",
"366 184 OFFCURVE",
"366 168 CURVE SMOOTH",
"366 131 OFFCURVE",
"358 87 OFFCURVE",
"348 57 CURVE",
"336 26 OFFCURVE",
"326 19 OFFCURVE",
"326 11 CURVE SMOOTH",
"326 6 OFFCURVE",
"330 2 OFFCURVE",
"336 2 CURVE SMOOTH",
"348 2 OFFCURVE",
"367 21 OFFCURVE",
"385 47 CURVE SMOOTH",
"391 56 OFFCURVE",
"396 58 OFFCURVE",
"399 58 CURVE SMOOTH",
"404 58 OFFCURVE",
"408 56 OFFCURVE",
"415 47 CURVE SMOOTH",
"445 7 OFFCURVE",
"483 -15 OFFCURVE",
"547 -15 CURVE SMOOTH",
"669 -15 OFFCURVE",
"724 63 OFFCURVE",
"724 87 CURVE SMOOTH",
"724 95 OFFCURVE",
"720 99 OFFCURVE",
"712 99 CURVE SMOOTH",
"694 99 OFFCURVE",
"666 55 OFFCURVE",
"583 55 CURVE SMOOTH",
"530 55 OFFCURVE",
"465 65 OFFCURVE",
"451 181 CURVE",
"450 193 OFFCURVE",
"445 202 OFFCURVE",
"412 202 CURVE SMOOTH"
);
}
);
width = 766;
}
);
unicode = 0153;
},
{
glyphname = p;
layers = (
{
anchors = (
{
name = bottom;
position = "{260, 0}";
},
{
name = top;
position = "{260, 500}";
}
);
layerId = UUID0;
paths = (
{
closed = 1;
nodes = (
"167 468 OFFCURVE",
"161 464 OFFCURVE",
"157 464 CURVE SMOOTH",
"151 464 OFFCURVE",
"149 470 OFFCURVE",
"149 482 CURVE SMOOTH",
"149 494 LINE SMOOTH",
"149 508 OFFCURVE",
"143 515 OFFCURVE",
"132 515 CURVE SMOOTH",
"110 515 OFFCURVE",
"61 493 OFFCURVE",
"61 456 CURVE SMOOTH",
"61 374 LINE SMOOTH",
"61 366 OFFCURVE",
"62 358 OFFCURVE",
"71 358 CURVE SMOOTH",
"78 358 OFFCURVE",
"88 365 OFFCURVE",
"95 370 CURVE SMOOTH",
"163 421 OFFCURVE",
"198 445 OFFCURVE",
"254 445 CURVE SMOOTH",
"352 445 OFFCURVE",
"379 354 OFFCURVE",
"379 212 CURVE SMOOTH",
"379 173 OFFCURVE",
"376 101 OFFCURVE",
"361 57 CURVE SMOOTH",
"350 26 OFFCURVE",
"338 19 OFFCURVE",
"338 11 CURVE SMOOTH",
"338 6 OFFCURVE",
"342 2 OFFCURVE",
"348 2 CURVE SMOOTH",
"369 2 OFFCURVE",
"411 38 OFFCURVE",
"436 90 CURVE SMOOTH",
"459 137 OFFCURVE",
"473 206 OFFCURVE",
"473 269 CURVE SMOOTH",
"473 444 OFFCURVE",
"401 515 OFFCURVE",
"290 515 CURVE SMOOTH",
"257 515 OFFCURVE",
"214 502 OFFCURVE",
"176 474 CURVE"
);
},
{
closed = 1;
nodes = (
"155 86 OFFCURVE",
"149 115 OFFCURVE",
"149 143 CURVE SMOOTH",
"149 338 LINE SMOOTH",
"149 353 OFFCURVE",
"145 359 OFFCURVE",
"134 359 CURVE SMOOTH",
"120 359 OFFCURVE",
"91 340 OFFCURVE",
"74 320 CURVE SMOOTH",
"63 307 OFFCURVE",
"61 293 OFFCURVE",
"61 278 CURVE SMOOTH",
"61 96 LINE SMOOTH",
"61 55 OFFCURVE",
"73 30 OFFCURVE",
"108 10 CURVE",
"132 -5 OFFCURVE",
"159 -15 OFFCURVE",
"204 -15 CURVE SMOOTH",
"279 -15 OFFCURVE",
"332 28 OFFCURVE",
"332 59 CURVE SMOOTH",
"332 64 OFFCURVE",
"330 70 OFFCURVE",
"322 70 CURVE SMOOTH",
"310 70 OFFCURVE",
"293 55 OFFCURVE",
"239 55 CURVE SMOOTH",
"213 55 OFFCURVE",
"191 62 OFFCURVE",
"179 70 CURVE SMOOTH"
);
},
{
closed = 1;
nodes = (
"149 -77 LINE SMOOTH",
"149 -59 OFFCURVE",
"147 -45 OFFCURVE",
"133 -35 CURVE",
"117 -22 OFFCURVE",
"92 -7 OFFCURVE",
"78 -7 CURVE SMOOTH",
"67 -7 OFFCURVE",
"61 -16 OFFCURVE",
"61 -29 CURVE SMOOTH",
"61 -274 LINE SMOOTH",
"61 -288 OFFCURVE",
"67 -295 OFFCURVE",
"78 -295 CURVE SMOOTH",
"104 -295 OFFCURVE",
"149 -271 OFFCURVE",
"149 -232 CURVE SMOOTH"
);
}
);
width = 519;
}
);
unicode = 0070;
},
{
glyphname = thorn;
layers = (
{
layerId = UUID0;
paths = (
{
closed = 1;
nodes = (
"165 468 OFFCURVE",
"159 464 OFFCURVE",
"154 464 CURVE SMOOTH",
"149 464 OFFCURVE",
"146 470 OFFCURVE",
"146 482 CURVE SMOOTH",
"148 729 LINE SMOOTH",
"148 743 OFFCURVE",
"143 750 OFFCURVE",
"131 750 CURVE SMOOTH",
"105 750 OFFCURVE",
"61 727 OFFCURVE",
"61 688 CURVE SMOOTH",
"61 375 LINE SMOOTH",
"61 368 OFFCURVE",
"62 358 OFFCURVE",
"70 358 CURVE SMOOTH",
"77 358 OFFCURVE",
"87 365 OFFCURVE",
"95 370 CURVE",
"162 421 OFFCURVE",
"194 445 OFFCURVE",
"250 445 CURVE SMOOTH",
"349 445 OFFCURVE",
"374 354 OFFCURVE",
"374 216 CURVE SMOOTH",
"374 173 OFFCURVE",
"370 101 OFFCURVE",
"354 57 CURVE SMOOTH",
"343 26 OFFCURVE",
"331 19 OFFCURVE",
"331 11 CURVE SMOOTH",
"331 6 OFFCURVE",
"334 2 OFFCURVE",
"340 2 CURVE SMOOTH",
"361 2 OFFCURVE",
"403 38 OFFCURVE",
"429 90 CURVE SMOOTH",
"452 137 OFFCURVE",
"466 207 OFFCURVE",
"466 269 CURVE SMOOTH",
"466 444 OFFCURVE",
"397 515 OFFCURVE",
"287 515 CURVE SMOOTH",
"253 515 OFFCURVE",
"211 502 OFFCURVE",
"173 474 CURVE SMOOTH"
);
},
{
closed = 1;
nodes = (
"176 55 OFFCURVE",
"150 83 OFFCURVE",
"150 143 CURVE",
"148 339 LINE",
"148 354 OFFCURVE",
"145 360 OFFCURVE",
"133 360 CURVE SMOOTH",
"121 360 OFFCURVE",
"91 340 OFFCURVE",
"74 320 CURVE",
"63 308 OFFCURVE",
"61 297 OFFCURVE",
"61 279 CURVE SMOOTH",
"63 115 LINE SMOOTH",
"63 17 OFFCURVE",
"110 -15 OFFCURVE",
"201 -15 CURVE SMOOTH",
"275 -15 OFFCURVE",
"324 28 OFFCURVE",
"324 59 CURVE SMOOTH",
"324 64 OFFCURVE",
"321 70 OFFCURVE",
"313 70 CURVE SMOOTH",
"301 70 OFFCURVE",
"288 55 OFFCURVE",
"234 55 CURVE SMOOTH"
);
},
{
closed = 1;
nodes = (
"148 -84 LINE SMOOTH",
"148 -66 OFFCURVE",
"146 -53 OFFCURVE",
"132 -42 CURVE SMOOTH",
"117 -30 OFFCURVE",
"91 -15 OFFCURVE",
"78 -15 CURVE SMOOTH",
"66 -15 OFFCURVE",
"61 -23 OFFCURVE",
"61 -37 CURVE SMOOTH",
"61 -274 LINE SMOOTH",
"61 -288 OFFCURVE",
"66 -295 OFFCURVE",
"78 -295 CURVE SMOOTH",
"104 -295 OFFCURVE",
"148 -272 OFFCURVE",
"148 -233 CURVE SMOOTH"
);
}
);
width = 513;
}
);
unicode = 00FE;
},
{
glyphname = q;
layers = (
{
anchors = (
{
name = bottom;
position = "{262, 0}";
},
{
name = top;
position = "{262, 500}";
}
);
layerId = UUID0;
paths = (
{
closed = 1;
nodes = (
"332 417 OFFCURVE",
"335 416 OFFCURVE",
"339 416 CURVE SMOOTH",
"345 416 OFFCURVE",
"352 419 OFFCURVE",
"352 454 CURVE SMOOTH",
"352 492 OFFCURVE",
"343 497 OFFCURVE",
"328 502 CURVE",
"307 511 OFFCURVE",
"286 515 OFFCURVE",
"261 515 CURVE SMOOTH",
"199 515 OFFCURVE",
"133 494 OFFCURVE",
"83 424 CURVE",
"79 419 OFFCURVE",
"69 404 OFFCURVE",
"69 394 CURVE SMOOTH",
"69 387 OFFCURVE",
"72 385 OFFCURVE",
"77 385 CURVE SMOOTH",
"82 385 OFFCURVE",
"91 391 OFFCURVE",
"101 398 CURVE SMOOTH",
"147 428 OFFCURVE",
"189 444 OFFCURVE",
"239 444 CURVE SMOOTH",
"269 444 OFFCURVE",
"294 439 OFFCURVE",
"324 422 CURVE"
);
},
{
closed = 1;
nodes = (
"376 -274 LINE SMOOTH",
"376 -288 OFFCURVE",
"382 -295 OFFCURVE",
"393 -295 CURVE SMOOTH",
"412 -295 OFFCURVE",
"438 -282 OFFCURVE",
"455 -262 CURVE SMOOTH",
"463 -252 OFFCURVE",
"464 -242 OFFCURVE",
"464 -232 CURVE SMOOTH",
"464 494 LINE SMOOTH",
"464 508 OFFCURVE",
"458 515 OFFCURVE",
"447 515 CURVE SMOOTH",
"428 515 OFFCURVE",
"402 502 OFFCURVE",
"385 482 CURVE SMOOTH",
"377 472 OFFCURVE",
"376 462 OFFCURVE",
"376 452 CURVE SMOOTH"
);
},
{
closed = 1;
nodes = (
"315 66 OFFCURVE",
"295 55 OFFCURVE",
"264 55 CURVE SMOOTH",
"173 55 OFFCURVE",
"137 116 OFFCURVE",
"137 237 CURVE SMOOTH",
"137 312 OFFCURVE",
"154 358 OFFCURVE",
"154 371 CURVE SMOOTH",
"154 381 OFFCURVE",
"149 385 OFFCURVE",
"142 385 CURVE SMOOTH",
"121 385 OFFCURVE",
"85 362 OFFCURVE",
"68 336 CURVE SMOOTH",
"55 316 OFFCURVE",
"45 269 OFFCURVE",
"45 228 CURVE SMOOTH",
"45 19 OFFCURVE",
"136 -15 OFFCURVE",
"227 -15 CURVE SMOOTH",
"269 -15 OFFCURVE",
"305 -2 OFFCURVE",
"338 26 CURVE",
"346 32 OFFCURVE",
"352 39 OFFCURVE",
"352 62 CURVE SMOOTH",
"352 77 OFFCURVE",
"348 80 OFFCURVE",
"344 80 CURVE SMOOTH",
"341 80 OFFCURVE",
"338 78 OFFCURVE",
"334 76 CURVE SMOOTH"
);
}
);
width = 524;
}
);
unicode = 0071;
},
{
glyphname = r;
layers = (
{
anchors = (
{
name = bottom;
position = "{180, 0}";
},
{
name = top;
position = "{180, 500}";
}
);
layerId = UUID0;
paths = (
{
closed = 1;
nodes = (
"243 515 OFFCURVE",
"210 500 OFFCURVE",
"173 463 CURVE SMOOTH",
"163 453 OFFCURVE",
"160 451 OFFCURVE",
"156 451 CURVE SMOOTH",
"152 451 OFFCURVE",
"149 455 OFFCURVE",
"149 467 CURVE SMOOTH",
"149 494 LINE SMOOTH",
"149 508 OFFCURVE",
"143 515 OFFCURVE",
"132 515 CURVE SMOOTH",
"106 515 OFFCURVE",
"61 492 OFFCURVE",
"61 454 CURVE SMOOTH",
"61 359 LINE SMOOTH",
"61 352 OFFCURVE",
"63 341 OFFCURVE",
"72 341 CURVE SMOOTH",
"78 341 OFFCURVE",
"83 344 OFFCURVE",
"90 350 CURVE SMOOTH",
"154 407 OFFCURVE",
"185 445 OFFCURVE",
"225 445 CURVE SMOOTH",
"235 445 OFFCURVE",
"246 444 OFFCURVE",
"266 434 CURVE SMOOTH",
"282 426 OFFCURVE",
"291 422 OFFCURVE",
"303 422 CURVE SMOOTH",
"323 422 OFFCURVE",
"360 449 OFFCURVE",
"360 471 CURVE SMOOTH",
"360 500 OFFCURVE",
"301 515 OFFCURVE",
"271 515 CURVE SMOOTH"
);
},
{
closed = 1;
nodes = (
"61 16 LINE SMOOTH",
"61 2 OFFCURVE",
"67 -5 OFFCURVE",
"78 -5 CURVE SMOOTH",
"104 -5 OFFCURVE",
"149 18 OFFCURVE",
"149 57 CURVE SMOOTH",
"149 323 LINE SMOOTH",
"149 337 OFFCURVE",
"145 344 OFFCURVE",
"134 344 CURVE SMOOTH",
"120 344 OFFCURVE",
"91 324 OFFCURVE",
"74 304 CURVE",
"62 291 OFFCURVE",
"61 277 OFFCURVE",
"61 262 CURVE SMOOTH"
);
}
);
width = 360;
}
);
unicode = 0072;
},
{
glyphname = s;
layers = (
{
anchors = (
{
name = bottom;
position = "{217, 0}";
},
{
name = top;
position = "{217, 500}";
}
);
layerId = UUID0;
paths = (
{
closed = 1;
nodes = (
"329 506 OFFCURVE",
"279 515 OFFCURVE",
"241 515 CURVE SMOOTH",
"182 515 OFFCURVE",
"114 502 OFFCURVE",
"60 437 CURVE SMOOTH",
"56 432 OFFCURVE",
"45 416 OFFCURVE",
"45 407 CURVE SMOOTH",
"45 401 OFFCURVE",
"48 399 OFFCURVE",
"52 399 CURVE SMOOTH",
"57 399 OFFCURVE",
"67 407 OFFCURVE",
"77 413 CURVE SMOOTH",
"126 443 OFFCURVE",
"170 445 OFFCURVE",
"198 445 CURVE SMOOTH",
"225 445 OFFCURVE",
"249 439 OFFCURVE",
"281 426 CURVE SMOOTH",
"294 421 OFFCURVE",
"302 416 OFFCURVE",
"312 416 CURVE SMOOTH",
"335 416 OFFCURVE",
"369 448 OFFCURVE",
"369 464 CURVE SMOOTH",
"369 474 OFFCURVE",
"363 480 OFFCURVE",
"354 487 CURVE SMOOTH"
);
},
{
closed = 1;
nodes = (
"322 83 OFFCURVE",
"319 59 OFFCURVE",
"299 27 CURVE SMOOTH",
"293 18 OFFCURVE",
"291 16 OFFCURVE",
"291 12 CURVE SMOOTH",
"291 8 OFFCURVE",
"294 5 OFFCURVE",
"299 5 CURVE SMOOTH",
"328 5 OFFCURVE",
"393 61 OFFCURVE",
"393 150 CURVE SMOOTH",
"393 218 OFFCURVE",
"366 281 OFFCURVE",
"248 296 CURVE SMOOTH",
"155 308 OFFCURVE",
"133 314 OFFCURVE",
"118 379 CURVE",
"115 390 OFFCURVE",
"110 394 OFFCURVE",
"103 394 CURVE SMOOTH",
"86 394 OFFCURVE",
"40 370 OFFCURVE",
"40 335 CURVE SMOOTH",
"40 278 OFFCURVE",
"80 225 OFFCURVE",
"211 213 CURVE SMOOTH",
"276 207 OFFCURVE",
"322 185 OFFCURVE",
"322 111 CURVE SMOOTH"
);
},
{
closed = 1;
nodes = (
"121 87 OFFCURVE",
"112 90 OFFCURVE",
"104 90 CURVE SMOOTH",
"79 90 OFFCURVE",
"45 63 OFFCURVE",
"45 43 CURVE SMOOTH",
"45 16 OFFCURVE",
"106 -15 OFFCURVE",
"161 -15 CURVE SMOOTH",
"244 -15 OFFCURVE",
"284 37 OFFCURVE",
"284 56 CURVE SMOOTH",
"284 64 OFFCURVE",
"279 68 OFFCURVE",
"272 68 CURVE SMOOTH",
"264 68 OFFCURVE",
"244 55 OFFCURVE",
"208 55 CURVE SMOOTH",
"172 55 OFFCURVE",
"155 67 OFFCURVE",
"133 80 CURVE SMOOTH"
);
}
);
width = 433;
}
);
unicode = 0073;
},
{
glyphname = germandbls;
layers = (
{
layerId = UUID0;
paths = (
{
closed = 1;
nodes = (
"227 750 OFFCURVE",
"156 730 OFFCURVE",
"106 666 CURVE SMOOTH",
"98 655 OFFCURVE",
"86 637 OFFCURVE",
"86 627 CURVE SMOOTH",
"86 622 OFFCURVE",
"90 619 OFFCURVE",
"94 619 CURVE SMOOTH",
"99 619 OFFCURVE",
"111 626 OFFCURVE",
"120 633 CURVE SMOOTH",
"153 659 OFFCURVE",
"194 680 OFFCURVE",
"250 680 CURVE SMOOTH",
"357 680 OFFCURVE",
"381 611 OFFCURVE",
"381 562 CURVE SMOOTH",
"381 534 OFFCURVE",
"376 527 OFFCURVE",
"327 507 CURVE SMOOTH",
"281 489 OFFCURVE",
"239 440 OFFCURVE",
"239 421 CURVE SMOOTH",
"239 413 OFFCURVE",
"243 413 OFFCURVE",
"246 413 CURVE SMOOTH",
"248 413 LINE SMOOTH",
"252 413 OFFCURVE",
"267 424 OFFCURVE",
"276 430 CURVE",
"301 443 OFFCURVE",
"333 458 OFFCURVE",
"380 458 CURVE SMOOTH",
"450 458 OFFCURVE",
"467 467 OFFCURVE",
"467 551 CURVE SMOOTH",
"467 645 OFFCURVE",
"428 750 OFFCURVE",
"275 750 CURVE SMOOTH"
);
},
{
closed = 1;
nodes = (
"155 415 OFFCURVE",
"167 419 OFFCURVE",
"167 441 CURVE SMOOTH",
"167 515 LINE SMOOTH",
"167 567 OFFCURVE",
"171 588 OFFCURVE",
"171 603 CURVE SMOOTH",
"171 613 OFFCURVE",
"166 620 OFFCURVE",
"155 620 CURVE SMOOTH",
"142 620 OFFCURVE",
"115 605 OFFCURVE",
"98 585 CURVE SMOOTH",
"83 567 OFFCURVE",
"76 533 OFFCURVE",
"76 458 CURVE SMOOTH",
"76 441 LINE SMOOTH",
"76 419 OFFCURVE",
"88 415 OFFCURVE",
"121 415 CURVE SMOOTH"
);
},
{
closed = 1;
nodes = (
"51 469 LINE SMOOTH",
"51 481 OFFCURVE",
"47 485 OFFCURVE",
"40 485 CURVE SMOOTH",
"23 485 OFFCURVE",
"-15 443 OFFCURVE",
"-15 426 CURVE SMOOTH",
"-15 417 OFFCURVE",
"-7 415 OFFCURVE",
"2 415 CURVE SMOOTH",
"25 415 LINE SMOOTH",
"47 415 OFFCURVE",
"51 427 OFFCURVE",
"51 441 CURVE SMOOTH"
);
},
{
closed = 1;
nodes = (
"488 83 OFFCURVE",
"485 59 OFFCURVE",
"465 27 CURVE SMOOTH",
"459 18 OFFCURVE",
"457 16 OFFCURVE",
"457 12 CURVE SMOOTH",
"457 8 OFFCURVE",
"460 5 OFFCURVE",
"465 5 CURVE SMOOTH",
"494 5 OFFCURVE",
"559 61 OFFCURVE",
"559 145 CURVE SMOOTH",
"559 203 OFFCURVE",
"539 275 OFFCURVE",
"423 295 CURVE SMOOTH",
"334 310 OFFCURVE",
"328 328 OFFCURVE",
"313 393 CURVE",
"310 404 OFFCURVE",
"304 408 OFFCURVE",
"297 408 CURVE SMOOTH",
"280 408 OFFCURVE",
"234 383 OFFCURVE",
"234 349 CURVE SMOOTH",
"234 292 OFFCURVE",
"257 232 OFFCURVE",
"387 213 CURVE SMOOTH",
"448 205 OFFCURVE",
"488 180 OFFCURVE",
"488 111 CURVE SMOOTH"
);
},
{
closed = 1;
nodes = (
"164 364 LINE SMOOTH",
"164 391 OFFCURVE",
"142 391 OFFCURVE",
"120 391 CURVE SMOOTH",
"99 391 OFFCURVE",
"76 391 OFFCURVE",
"76 364 CURVE SMOOTH",
"76 16 LINE SMOOTH",
"76 2 OFFCURVE",
"82 -5 OFFCURVE",
"93 -5 CURVE SMOOTH",
"118 -5 OFFCURVE",
"164 19 OFFCURVE",
"164 57 CURVE SMOOTH"
);
},
{
closed = 1;
nodes = (
"316 89 OFFCURVE",
"309 91 OFFCURVE",
"302 91 CURVE SMOOTH",
"276 91 OFFCURVE",
"240 65 OFFCURVE",
"240 42 CURVE SMOOTH",
"240 15 OFFCURVE",
"287 -15 OFFCURVE",
"342 -15 CURVE SMOOTH",
"425 -15 OFFCURVE",
"450 37 OFFCURVE",
"450 56 CURVE SMOOTH",
"450 64 OFFCURVE",
"445 68 OFFCURVE",
"438 68 CURVE SMOOTH",
"430 68 OFFCURVE",
"420 55 OFFCURVE",
"384 55 CURVE SMOOTH",
"354 55 OFFCURVE",
"344 65 OFFCURVE",
"327 80 CURVE"
);
}
);
width = 633;
}
);
unicode = 00DF;
},
{
glyphname = t;
layers = (
{
anchors = (
{
name = bottom;
position = "{182, 0}";
},
{
name = center;
position = "{182, 258}";
},
{
name = top;
position = "{182, 500}";
},
{
name = topright;
position = "{343, 500}";
}
);
layerId = UUID0;
paths = (
{
closed = 1;
nodes = (
"164 589 LINE SMOOTH",
"164 603 OFFCURVE",
"158 610 OFFCURVE",
"147 610 CURVE SMOOTH",
"121 610 OFFCURVE",
"76 588 OFFCURVE",
"76 548 CURVE SMOOTH",
"76 456 LINE SMOOTH",
"76 434 OFFCURVE",
"88 430 OFFCURVE",
"102 430 CURVE SMOOTH",
"233 430 LINE SMOOTH",
"258 430 OFFCURVE",
"276 431 OFFCURVE",
"289 436 CURVE SMOOTH",
"310 444 OFFCURVE",
"338 473 OFFCURVE",
"338 489 CURVE SMOOTH",
"338 498 OFFCURVE",
"330 500 OFFCURVE",
"321 500 CURVE SMOOTH",
"190 500 LINE SMOOTH",
"176 500 OFFCURVE",
"164 504 OFFCURVE",
"164 526 CURVE SMOOTH"
);
},
{
closed = 1;
nodes = (
"51 484 LINE SMOOTH",
"51 496 OFFCURVE",
"47 500 OFFCURVE",
"40 500 CURVE SMOOTH",
"23 500 OFFCURVE",
"-15 458 OFFCURVE",
"-15 441 CURVE SMOOTH",
"-15 432 OFFCURVE",
"-7 430 OFFCURVE",
"2 430 CURVE SMOOTH",
"25 430 LINE SMOOTH",
"47 430 OFFCURVE",
"51 442 OFFCURVE",
"51 456 CURVE SMOOTH"
);
},
{
closed = 1;
nodes = (
"164 378 LINE SMOOTH",
"164 405 OFFCURVE",
"140 405 OFFCURVE",
"121 405 CURVE SMOOTH",
"101 405 OFFCURVE",
"76 405 OFFCURVE",
"76 378 CURVE SMOOTH",
"76 189 LINE SMOOTH",
"76 39 OFFCURVE",
"115 -15 OFFCURVE",
"214 -15 CURVE SMOOTH",
"313 -15 OFFCURVE",
"348 52 OFFCURVE",
"348 79 CURVE SMOOTH",
"348 87 OFFCURVE",
"343 91 OFFCURVE",
"336 91 CURVE SMOOTH",
"319 91 OFFCURVE",
"303 55 OFFCURVE",
"241 55 CURVE SMOOTH",
"192 55 OFFCURVE",
"164 91 OFFCURVE",
"164 207 CURVE SMOOTH"
);
}
);
width = 363;
}
);
unicode = 0074;
},
{
glyphname = u;
layers = (
{
anchors = (
{
name = bottom;
position = "{255, 0}";
},
{
name = ogonek;
position = "{459, 10}";
},
{
name = top;
position = "{255, 500}";
},
{
name = topright;
position = "{450, 500}";
}
);
layerId = UUID0;
paths = (
{
closed = 1;
nodes = (
"244 -15 OFFCURVE",
"290 -2 OFFCURVE",
"324 28 CURVE SMOOTH",
"331 34 OFFCURVE",
"337 40 OFFCURVE",
"337 62 CURVE SMOOTH",
"337 77 OFFCURVE",
"334 80 OFFCURVE",
"329 80 CURVE SMOOTH",
"326 80 OFFCURVE",
"322 77 OFFCURVE",
"317 74 CURVE SMOOTH",
"296 62 OFFCURVE",
"264 55 OFFCURVE",
"243 55 CURVE SMOOTH",
"146 55 OFFCURVE",
"143 115 OFFCURVE",
"143 241 CURVE SMOOTH",
"143 494 LINE SMOOTH",
"143 508 OFFCURVE",
"137 515 OFFCURVE",
"126 515 CURVE SMOOTH",
"100 515 OFFCURVE",
"55 491 OFFCURVE",
"55 453 CURVE SMOOTH",
"55 188 LINE SMOOTH",
"55 36 OFFCURVE",
"103 -15 OFFCURVE",
"210 -15 CURVE SMOOTH"
);
},
{
closed = 1;
nodes = (
"450 494 LINE SMOOTH",
"450 508 OFFCURVE",
"443 515 OFFCURVE",
"433 515 CURVE SMOOTH",
"407 515 OFFCURVE",
"362 491 OFFCURVE",
"362 454 CURVE SMOOTH",
"362 16 LINE SMOOTH",
"362 2 OFFCURVE",
"368 -5 OFFCURVE",
"379 -5 CURVE SMOOTH",
"404 -5 OFFCURVE",
"450 19 OFFCURVE",
"450 57 CURVE SMOOTH"
);
}
);
width = 510;
}
);
unicode = 0075;
},
{
glyphname = v;
layers = (
{
anchors = (
{
name = bottom;
position = "{223, 0}";
},
{
name = top;
position = "{223, 500}";
}
);
layerId = UUID0;
paths = (
{
closed = 1;
nodes = (
"202 146 OFFCURVE",
"198 160 OFFCURVE",
"195 172 CURVE",
"96 494 LINE SMOOTH",
"92 507 OFFCURVE",
"88 515 OFFCURVE",
"77 515 CURVE SMOOTH",
"61 515 OFFCURVE",
"16 488 OFFCURVE",
"16 462 CURVE SMOOTH",
"16 458 OFFCURVE",
"17 453 OFFCURVE",
"19 447 CURVE SMOOTH",
"146 70 LINE SMOOTH",
"152 52 OFFCURVE",
"159 48 OFFCURVE",
"165 48 CURVE SMOOTH",
"179 48 OFFCURVE",
"202 99 OFFCURVE",
"202 136 CURVE SMOOTH"
);
},
{
closed = 1;
nodes = (
"428 487 LINE",
"429 492 OFFCURVE",
"430 496 OFFCURVE",
"430 499 CURVE SMOOTH",
"430 509 OFFCURVE",
"424 515 OFFCURVE",
"415 515 CURVE SMOOTH",
"396 515 OFFCURVE",
"362 503 OFFCURVE",
"345 483 CURVE SMOOTH",
"337 473 OFFCURVE",
"333 461 OFFCURVE",
"331 452 CURVE",
"199 25 LINE",
"197 20 OFFCURVE",
"196 14 OFFCURVE",
"196 11 CURVE SMOOTH",
"196 -1 OFFCURVE",
"205 -5 OFFCURVE",
"213 -5 CURVE SMOOTH",
"242 -5 OFFCURVE",
"280 20 OFFCURVE",
"292 58 CURVE SMOOTH"
);
}
);
width = 445;
}
);
unicode = 0076;
},
{
glyphname = w;
layers = (
{
anchors = (
{
name = bottom;
position = "{364, 0}";
},
{
name = top;
position = "{364, 500}";
}
);
layerId = UUID0;
paths = (
{
closed = 1;
nodes = (
"175 148 OFFCURVE",
"179 164 OFFCURVE",
"179 180 CURVE SMOOTH",
"179 191 OFFCURVE",
"177 203 OFFCURVE",
"174 216 CURVE",
"99 494 LINE SMOOTH",
"95 508 OFFCURVE",
"90 515 OFFCURVE",
"79 515 CURVE SMOOTH",
"62 515 OFFCURVE",
"16 486 OFFCURVE",
"16 460 CURVE SMOOTH",
"16 456 OFFCURVE",
"16 451 OFFCURVE",
"18 445 CURVE",
"114 103 LINE SMOOTH",
"120 83 OFFCURVE",
"125 75 OFFCURVE",
"135 75 CURVE SMOOTH",
"145 75 OFFCURVE",
"161 97 OFFCURVE",
"170 130 CURVE SMOOTH"
);
},
{
closed = 1;
nodes = (
"484 126 OFFCURVE",
"486 139 OFFCURVE",
"486 152 CURVE SMOOTH",
"486 163 OFFCURVE",
"485 173 OFFCURVE",
"481 185 CURVE SMOOTH",
"384 494 LINE SMOOTH",
"380 507 OFFCURVE",
"375 515 OFFCURVE",
"364 515 CURVE SMOOTH",
"348 515 OFFCURVE",
"302 489 OFFCURVE",
"302 462 CURVE SMOOTH",
"302 458 OFFCURVE",
"303 453 OFFCURVE",
"305 447 CURVE SMOOTH",
"427 81 LINE SMOOTH",
"433 62 OFFCURVE",
"438 53 OFFCURVE",
"447 53 CURVE SMOOTH",
"459 53 OFFCURVE",
"471 80 OFFCURVE",
"480 112 CURVE SMOOTH"
);
},
{
closed = 1;
nodes = (
"560 29 OFFCURVE",
"570 44 OFFCURVE",
"576 62 CURVE SMOOTH",
"705 494 LINE SMOOTH",
"706 497 OFFCURVE",
"706 499 OFFCURVE",
"706 501 CURVE SMOOTH",
"706 510 OFFCURVE",
"700 515 OFFCURVE",
"691 515 CURVE SMOOTH",
"672 515 OFFCURVE",
"637 505 OFFCURVE",
"623 485 CURVE SMOOTH",
"616 475 OFFCURVE",
"611 461 OFFCURVE",
"609 452 CURVE",
"476 11 LINE SMOOTH",
"475 8 OFFCURVE",
"475 4 OFFCURVE",
"475 1 CURVE SMOOTH",
"475 -8 OFFCURVE",
"479 -15 OFFCURVE",
"490 -15 CURVE SMOOTH",
"509 -15 OFFCURVE",
"533 -3 OFFCURVE",
"550 17 CURVE SMOOTH"
);
},
{
closed = 1;
nodes = (
"241 28 OFFCURVE",
"252 41 OFFCURVE",
"259 64 CURVE SMOOTH",
"317 259 LINE SMOOTH",
"321 273 OFFCURVE",
"324 286 OFFCURVE",
"324 301 CURVE SMOOTH",
"324 309 OFFCURVE",
"323 318 OFFCURVE",
"321 327 CURVE",
"316 343 OFFCURVE",
"304 394 OFFCURVE",
"289 394 CURVE SMOOTH",
"284 394 OFFCURVE",
"278 391 OFFCURVE",
"274 378 CURVE SMOOTH",
"160 11 LINE",
"159 7 OFFCURVE",
"158 4 OFFCURVE",
"158 0 CURVE SMOOTH",
"158 -9 OFFCURVE",
"163 -15 OFFCURVE",
"174 -15 CURVE SMOOTH",
"187 -15 OFFCURVE",
"214 -4 OFFCURVE",
"230 15 CURVE SMOOTH"
);
}
);
width = 727;
}
);
unicode = 0077;
},
{
glyphname = x;
layers = (
{
anchors = (
{
name = bottom;
position = "{219, 0}";
},
{
name = top;
position = "{219, 500}";
}
);
layerId = UUID0;
paths = (
{
closed = 1;
nodes = (
"103 495 LINE SMOOTH",
"92 512 OFFCURVE",
"85 515 OFFCURVE",
"74 515 CURVE SMOOTH",
"54 515 OFFCURVE",
"17 488 OFFCURVE",
"17 465 CURVE SMOOTH",
"17 458 OFFCURVE",
"20 450 OFFCURVE",
"27 440 CURVE SMOOTH",
"121 304 LINE",
"127 294 OFFCURVE",
"133 290 OFFCURVE",
"139 290 CURVE SMOOTH",
"158 290 OFFCURVE",
"190 335 OFFCURVE",
"190 354 CURVE SMOOTH",
"190 363 OFFCURVE",
"187 369 OFFCURVE",
"183 375 CURVE SMOOTH"
);
},
{
closed = 1;
nodes = (
"173 270 LINE",
"168 263 OFFCURVE",
"165 255 OFFCURVE",
"165 248 CURVE SMOOTH",
"165 240 OFFCURVE",
"169 232 OFFCURVE",
"175 223 CURVE SMOOTH",
"318 5 LINE SMOOTH",
"329 -12 OFFCURVE",
"335 -15 OFFCURVE",
"347 -15 CURVE SMOOTH",
"375 -15 OFFCURVE",
"403 15 OFFCURVE",
"403 33 CURVE SMOOTH",
"403 44 OFFCURVE",
"396 54 OFFCURVE",
"393 59 CURVE",
"270 242 LINE",
"266 249 OFFCURVE",
"262 256 OFFCURVE",
"262 265 CURVE SMOOTH",
"262 272 OFFCURVE",
"264 279 OFFCURVE",
"269 287 CURVE SMOOTH",
"391 484 LINE SMOOTH",
"396 492 OFFCURVE",
"398 498 OFFCURVE",
"398 502 CURVE SMOOTH",
"398 511 OFFCURVE",
"391 515 OFFCURVE",
"384 515 CURVE SMOOTH",
"365 515 OFFCURVE",
"330 506 OFFCURVE",
"313 487 CURVE SMOOTH",
"303 476 OFFCURVE",
"293 460 OFFCURVE",
"288 452 CURVE SMOOTH"
);
},
{
closed = 1;
nodes = (
"175 137 LINE SMOOTH",
"179 144 OFFCURVE",
"180 149 OFFCURVE",
"180 155 CURVE SMOOTH",
"180 167 OFFCURVE",
"163 210 OFFCURVE",
"144 210 CURVE SMOOTH",
"139 210 OFFCURVE",
"135 207 OFFCURVE",
"130 199 CURVE SMOOTH",
"17 16 LINE SMOOTH",
"13 9 OFFCURVE",
"10 3 OFFCURVE",
"10 -2 CURVE SMOOTH",
"10 -11 OFFCURVE",
"17 -15 OFFCURVE",
"24 -15 CURVE SMOOTH",
"43 -15 OFFCURVE",
"79 -3 OFFCURVE",
"96 16 CURVE SMOOTH",
"106 27 OFFCURVE",
"115 40 OFFCURVE",
"120 48 CURVE SMOOTH"
);
}
);
width = 438;
}
);
unicode = 0078;
},
{
glyphname = y;
layers = (
{
anchors = (
{
name = bottom;
position = "{255, 0}";
},
{
name = top;
position = "{255, 500}";
}
);
layerId = UUID0;
paths = (
{
closed = 1;
nodes = (
"244 -15 OFFCURVE",
"290 -2 OFFCURVE",
"324 28 CURVE SMOOTH",
"331 34 OFFCURVE",
"337 40 OFFCURVE",
"337 62 CURVE SMOOTH",
"337 76 OFFCURVE",
"334 80 OFFCURVE",
"330 80 CURVE SMOOTH",
"326 80 OFFCURVE",
"322 77 OFFCURVE",
"317 74 CURVE SMOOTH",
"296 62 OFFCURVE",
"268 55 OFFCURVE",
"247 55 CURVE SMOOTH",
"143 55 OFFCURVE",
"143 124 OFFCURVE",
"143 271 CURVE SMOOTH",
"143 494 LINE SMOOTH",
"143 508 OFFCURVE",
"137 515 OFFCURVE",
"126 515 CURVE SMOOTH",
"100 515 OFFCURVE",
"55 491 OFFCURVE",
"55 453 CURVE SMOOTH",
"55 188 LINE SMOOTH",
"55 36 OFFCURVE",
"103 -15 OFFCURVE",
"210 -15 CURVE SMOOTH"
);
},
{
closed = 1;
nodes = (
"449 494 LINE SMOOTH",
"449 508 OFFCURVE",
"443 515 OFFCURVE",
"432 515 CURVE SMOOTH",
"413 515 OFFCURVE",
"387 502 OFFCURVE",
"370 482 CURVE SMOOTH",
"362 472 OFFCURVE",
"361 462 OFFCURVE",
"361 452 CURVE SMOOTH",
"362 -101 LINE SMOOTH",
"362 -176 OFFCURVE",
"356 -221 OFFCURVE",
"333 -253 CURVE",
"326 -262 OFFCURVE",
"325 -264 OFFCURVE",
"325 -268 CURVE SMOOTH",
"325 -272 OFFCURVE",
"328 -275 OFFCURVE",
"333 -275 CURVE SMOOTH",
"362 -275 OFFCURVE",
"449 -228 OFFCURVE",
"449 -99 CURVE SMOOTH"
);
},
{
closed = 1;
nodes = (
"151 -191 OFFCURVE",
"142 -189 OFFCURVE",
"134 -189 CURVE SMOOTH",
"121 -189 OFFCURVE",
"108 -198 OFFCURVE",
"96 -208 CURVE SMOOTH",
"85 -217 OFFCURVE",
"76 -228 OFFCURVE",
"76 -241 CURVE SMOOTH",
"76 -264 OFFCURVE",
"137 -295 OFFCURVE",
"196 -295 CURVE SMOOTH",
"257 -295 OFFCURVE",
"316 -255 OFFCURVE",
"316 -226 CURVE SMOOTH",
"316 -217 OFFCURVE",
"310 -214 OFFCURVE",
"303 -214 CURVE SMOOTH",
"294 -214 OFFCURVE",
"265 -225 OFFCURVE",
"232 -225 CURVE SMOOTH",
"201 -225 OFFCURVE",
"184 -217 OFFCURVE",
"162 -200 CURVE SMOOTH"
);
}
);
width = 509;
}
);
unicode = 0079;
},
{
glyphname = z;
layers = (
{
anchors = (
{
name = bottom;
position = "{208, 0}";
},
{
name = top;
position = "{208, 500}";
}
);
layerId = UUID0;
paths = (
{
closed = 1;
nodes = (
"101 500 LINE SMOOTH",
"63 500 OFFCURVE",
"21 467 OFFCURVE",
"21 445 CURVE SMOOTH",
"21 431 OFFCURVE",
"29 430 OFFCURVE",
"41 430 CURVE SMOOTH",
"331 430 LINE SMOOTH",
"344 430 OFFCURVE",
"356 431 OFFCURVE",
"367 440 CURVE",
"387 458 OFFCURVE",
"395 478 OFFCURVE",
"395 485 CURVE SMOOTH",
"395 496 OFFCURVE",
"388 500 OFFCURVE",
"374 500 CURVE SMOOTH"
);
},
{
closed = 1;
nodes = (
"78 123 LINE SMOOTH",
"72 114 OFFCURVE",
"69 107 OFFCURVE",
"69 103 CURVE SMOOTH",
"69 94 OFFCURVE",
"78 90 OFFCURVE",
"94 90 CURVE SMOOTH",
"115 90 LINE SMOOTH",
"136 90 OFFCURVE",
"151 95 OFFCURVE",
"160 109 CURVE SMOOTH",
"331 379 LINE",
"336 388 OFFCURVE",
"339 394 OFFCURVE",
"339 399 CURVE SMOOTH",
"339 407 OFFCURVE",
"331 412 OFFCURVE",
"305 412 CURVE SMOOTH",
"272 412 OFFCURVE",
"258 407 OFFCURVE",
"245 386 CURVE SMOOTH"
);
},
{
closed = 1;
nodes = (
"78 70 LINE SMOOTH",
"59 70 OFFCURVE",
"47 62 OFFCURVE",
"37 52 CURVE SMOOTH",
"26 41 OFFCURVE",
"17 26 OFFCURVE",
"17 14 CURVE SMOOTH",
"17 2 OFFCURVE",
"24 0 OFFCURVE",
"37 0 CURVE SMOOTH",
"327 0 LINE SMOOTH",
"340 0 OFFCURVE",
"353 1 OFFCURVE",
"363 10 CURVE SMOOTH",
"383 28 OFFCURVE",
"391 47 OFFCURVE",
"391 55 CURVE SMOOTH",
"391 66 OFFCURVE",
"384 70 OFFCURVE",
"370 70 CURVE SMOOTH"
);
}
);
width = 415;
}
);
unicode = 007A;
},
{
glyphname = ordfeminine;
layers = (
{
layerId = UUID0;
paths = (
{
closed = 1;
nodes = (
"135 700 OFFCURVE",
"82 685 OFFCURVE",
"48 638 CURVE",
"40 626 OFFCURVE",
"35 616 OFFCURVE",
"35 607 CURVE SMOOTH",
"35 603 OFFCURVE",
"38 602 OFFCURVE",
"41 602 CURVE SMOOTH",
"43 602 OFFCURVE",
"48 603 OFFCURVE",
"61 612 CURVE SMOOTH",
"100 638 OFFCURVE",
"139 642 OFFCURVE",
"156 642 CURVE SMOOTH",
"202 642 OFFCURVE",
"250 623 OFFCURVE",
"250 540 CURVE SMOOTH",
"250 332 LINE SMOOTH",
"250 322 OFFCURVE",
"254 317 OFFCURVE",
"262 317 CURVE SMOOTH",
"279 317 OFFCURVE",
"320 334 OFFCURVE",
"320 360 CURVE SMOOTH",
"320 556 LINE SMOOTH",
"320 664 OFFCURVE",
"253 700 OFFCURVE",
"176 700 CURVE SMOOTH"
);
},
{
closed = 1;
nodes = (
"204 542 OFFCURVE",
"175 548 OFFCURVE",
"150 548 CURVE SMOOTH",
"104 548 OFFCURVE",
"55 522 OFFCURVE",
"29 483 CURVE SMOOTH",
"24 475 OFFCURVE",
"17 462 OFFCURVE",
"17 453 CURVE SMOOTH",
"17 448 OFFCURVE",
"20 447 OFFCURVE",
"23 447 CURVE SMOOTH",
"27 447 OFFCURVE",
"33 452 OFFCURVE",
"40 458 CURVE",
"73 484 OFFCURVE",
"107 491 OFFCURVE",
"139 491 CURVE SMOOTH",
"155 491 OFFCURVE",
"184 486 OFFCURVE",
"209 475 CURVE",
"213 473 OFFCURVE",
"220 468 OFFCURVE",
"225 468 CURVE SMOOTH",
"229 468 OFFCURVE",
"231 471 OFFCURVE",
"231 479 CURVE SMOOTH",
"231 511 LINE SMOOTH",
"231 522 OFFCURVE",
"228 528 OFFCURVE",
"219 533 CURVE SMOOTH"
);
},
{
closed = 1;
nodes = (
"228 346 OFFCURVE",
"231 350 OFFCURVE",
"231 361 CURVE SMOOTH",
"231 378 LINE SMOOTH",
"231 384 OFFCURVE",
"229 386 OFFCURVE",
"226 386 CURVE SMOOTH",
"223 386 OFFCURVE",
"221 384 OFFCURVE",
"217 382 CURVE",
"202 373 OFFCURVE",
"168 368 OFFCURVE",
"155 368 CURVE SMOOTH",
"116 368 OFFCURVE",
"97 384 OFFCURVE",
"97 440 CURVE SMOOTH",
"97 450 OFFCURVE",
"94 457 OFFCURVE",
"85 457 CURVE SMOOTH",
"72 457 OFFCURVE",
"48 443 OFFCURVE",
"37 433 CURVE",
"25 421 OFFCURVE",
"24 410 OFFCURVE",
"24 403 CURVE SMOOTH",
"24 353 OFFCURVE",
"59 309 OFFCURVE",
"133 309 CURVE SMOOTH",
"160 309 OFFCURVE",
"202 322 OFFCURVE",
"222 341 CURVE"
);
}
);
width = 369;
}
);
unicode = 00AA;
},
{
glyphname = ordmasculine;
layers = (
{
layerId = UUID0;
paths = (
{
closed = 1;
nodes = (
"150 700 OFFCURVE",
"93 686 OFFCURVE",
"51 636 CURVE",
"48 632 OFFCURVE",
"35 614 OFFCURVE",
"35 604 CURVE SMOOTH",
"35 599 OFFCURVE",
"38 598 OFFCURVE",
"41 598 CURVE SMOOTH",
"45 598 OFFCURVE",
"52 602 OFFCURVE",
"59 606 CURVE",
"95 631 OFFCURVE",
"123 642 OFFCURVE",
"165 642 CURVE SMOOTH",
"248 642 OFFCURVE",
"274 575 OFFCURVE",
"274 478 CURVE SMOOTH",
"274 451 OFFCURVE",
"271 390 OFFCURVE",
"258 359 CURVE SMOOTH",
"249 338 OFFCURVE",
"241 331 OFFCURVE",
"241 326 CURVE SMOOTH",
"241 322 OFFCURVE",
"244 319 OFFCURVE",
"248 319 CURVE SMOOTH",
"267 319 OFFCURVE",
"300 338 OFFCURVE",
"324 383 CURVE SMOOTH",
"344 420 OFFCURVE",
"351 472 OFFCURVE",
"351 507 CURVE SMOOTH",
"351 630 OFFCURVE",
"290 700 OFFCURVE",
"185 700 CURVE SMOOTH"
);
},
{
closed = 1;
nodes = (
"100 550 OFFCURVE",
"111 581 OFFCURVE",
"111 587 CURVE SMOOTH",
"111 596 OFFCURVE",
"106 598 OFFCURVE",
"102 598 CURVE SMOOTH",
"87 598 OFFCURVE",
"53 583 OFFCURVE",
"40 567 CURVE SMOOTH",
"30 555 OFFCURVE",
"24 523 OFFCURVE",
"24 492 CURVE SMOOTH",
"24 397 OFFCURVE",
"49 309 OFFCURVE",
"160 309 CURVE SMOOTH",
"212 309 OFFCURVE",
"236 350 OFFCURVE",
"236 366 CURVE SMOOTH",
"236 370 OFFCURVE",
"234 374 OFFCURVE",
"228 374 CURVE SMOOTH",
"220 374 OFFCURVE",
"208 368 OFFCURVE",
"181 368 CURVE SMOOTH",
"110 368 OFFCURVE",
"100 432 OFFCURVE",
"100 507 CURVE SMOOTH"
);
}
);
width = 375;
}
);
unicode = 00BA;
},
{
glyphname = zero;
layers = (
{
layerId = UUID0;
paths = (
{
closed = 1;
nodes = (
"221 700 OFFCURVE",
"148 666 OFFCURVE",
"90 588 CURVE SMOOTH",
"81 576 OFFCURVE",
"69 555 OFFCURVE",
"69 544 CURVE SMOOTH",
"69 536 OFFCURVE",
"73 534 OFFCURVE",
"79 534 CURVE SMOOTH",
"86 534 OFFCURVE",
"99 543 OFFCURVE",
"112 555 CURVE SMOOTH",
"176 614 OFFCURVE",
"235 620 OFFCURVE",
"259 620 CURVE SMOOTH",
"413 620 OFFCURVE",
"444 487 OFFCURVE",
"444 317 CURVE SMOOTH",
"444 238 OFFCURVE",
"440 128 OFFCURVE",
"407 56 CURVE SMOOTH",
"397 34 OFFCURVE",
"386 27 OFFCURVE",
"386 19 CURVE SMOOTH",
"386 14 OFFCURVE",
"388 8 OFFCURVE",
"396 8 CURVE SMOOTH",
"423 8 OFFCURVE",
"468 44 OFFCURVE",
"498 101 CURVE SMOOTH",
"540 180 OFFCURVE",
"542 291 OFFCURVE",
"542 364 CURVE SMOOTH",
"542 532 OFFCURVE",
"505 700 OFFCURVE",
"298 700 CURVE SMOOTH"
);
},
{
closed = 1;
nodes = (
"171 530 OFFCURVE",
"165 534 OFFCURVE",
"156 534 CURVE SMOOTH",
"136 534 OFFCURVE",
"94 514 OFFCURVE",
"74 477 CURVE SMOOTH",
"60 450 OFFCURVE",
"50 376 OFFCURVE",
"50 301 CURVE SMOOTH",
"50 94 OFFCURVE",
"116 -15 OFFCURVE",
"252 -15 CURVE SMOOTH",
"333 -15 OFFCURVE",
"378 47 OFFCURVE",
"378 77 CURVE SMOOTH",
"378 83 OFFCURVE",
"375 89 OFFCURVE",
"368 89 CURVE SMOOTH",
"354 89 OFFCURVE",
"342 64 OFFCURVE",
"284 64 CURVE SMOOTH",
"177 64 OFFCURVE",
"147 180 OFFCURVE",
"147 294 CURVE SMOOTH",
"147 429 OFFCURVE",
"171 509 OFFCURVE",
"171 516 CURVE SMOOTH"
);
}
);
width = 592;
}
);
unicode = 0030;
},
{
glyphname = one;
layers = (
{
layerId = UUID0;
paths = (
{
closed = 1;
nodes = (
"275 674 LINE SMOOTH",
"275 688 OFFCURVE",
"269 695 OFFCURVE",
"258 695 CURVE SMOOTH",
"239 695 OFFCURVE",
"212 675 OFFCURVE",
"195 655 CURVE SMOOTH",
"187 645 OFFCURVE",
"185 632 OFFCURVE",
"185 622 CURVE SMOOTH",
"185 16 LINE SMOOTH",
"185 2 OFFCURVE",
"191 -5 OFFCURVE",
"202 -5 CURVE SMOOTH",
"220 -5 OFFCURVE",
"248 12 OFFCURVE",
"265 32 CURVE SMOOTH",
"274 43 OFFCURVE",
"275 55 OFFCURVE",
"275 68 CURVE SMOOTH"
);
},
{
closed = 1;
nodes = (
"7 461 LINE SMOOTH",
"3 457 OFFCURVE",
"0 453 OFFCURVE",
"0 446 CURVE SMOOTH",
"0 432 OFFCURVE",
"21 431 OFFCURVE",
"44 431 CURVE SMOOTH",
"74 431 OFFCURVE",
"91 438 OFFCURVE",
"112 459 CURVE SMOOTH",
"136 483 LINE SMOOTH",
"151 498 OFFCURVE",
"155 518 OFFCURVE",
"155 547 CURVE SMOOTH",
"155 581 OFFCURVE",
"152 589 OFFCURVE",
"143 589 CURVE SMOOTH",
"140 589 OFFCURVE",
"133 585 OFFCURVE",
"122 575 CURVE"
);
}
);
width = 325;
}
);
unicode = 0031;
},
{
glyphname = two;
layers = (
{
layerId = UUID0;
paths = (
{
closed = 1;
nodes = (
"202 265 OFFCURVE",
"435 374 OFFCURVE",
"435 525 CURVE SMOOTH",
"435 637 OFFCURVE",
"363 700 OFFCURVE",
"254 700 CURVE SMOOTH",
"193 700 OFFCURVE",
"114 674 OFFCURVE",
"63 588 CURVE",
"61 583 OFFCURVE",
"52 564 OFFCURVE",
"52 553 CURVE SMOOTH",
"52 547 OFFCURVE",
"57 543 OFFCURVE",
"62 543 CURVE SMOOTH",
"67 543 OFFCURVE",
"72 547 OFFCURVE",
"90 563 CURVE SMOOTH",
"141 610 OFFCURVE",
"194 620 OFFCURVE",
"222 620 CURVE SMOOTH",
"307 620 OFFCURVE",
"338 590 OFFCURVE",
"338 515 CURVE SMOOTH",
"338 396 OFFCURVE",
"151 313 OFFCURVE",
"73 147 CURVE",
"71 141 OFFCURVE",
"69 137 OFFCURVE",
"69 133 CURVE SMOOTH",
"69 116 OFFCURVE",
"92 114 OFFCURVE",
"110 114 CURVE SMOOTH",
"139 114 OFFCURVE",
"150 119 OFFCURVE",
"160 146 CURVE SMOOTH"
);
},
{
closed = 1;
nodes = (
"84 90 LINE SMOOTH",
"54 90 OFFCURVE",
"49 63 OFFCURVE",
"49 27 CURVE SMOOTH",
"49 13 OFFCURVE",
"53 0 OFFCURVE",
"70 0 CURVE SMOOTH",
"384 0 LINE SMOOTH",
"397 0 OFFCURVE",
"410 1 OFFCURVE",
"420 10 CURVE SMOOTH",
"440 28 OFFCURVE",
"455 68 OFFCURVE",
"455 75 CURVE SMOOTH",
"455 86 OFFCURVE",
"448 90 OFFCURVE",
"434 90 CURVE SMOOTH"
);
}
);
width = 505;
}
);
unicode = 0032;
},
{
glyphname = three;
layers = (
{
layerId = UUID0;
paths = (
{
closed = 1;
nodes = (
"375 595 LINE SMOOTH",
"393 595 OFFCURVE",
"405 601 OFFCURVE",
"413 611 CURVE SMOOTH",
"431 634 LINE SMOOTH",
"441 647 OFFCURVE",
"448 658 OFFCURVE",
"448 667 CURVE SMOOTH",
"448 678 OFFCURVE",
"441 685 OFFCURVE",
"427 685 CURVE SMOOTH",
"124 685 LINE SMOOTH",
"111 685 OFFCURVE",
"98 684 OFFCURVE",
"88 675 CURVE SMOOTH",
"68 657 OFFCURVE",
"49 626 OFFCURVE",
"49 610 CURVE SMOOTH",
"49 599 OFFCURVE",
"56 595 OFFCURVE",
"70 595 CURVE SMOOTH"
);
},
{
closed = 1;
nodes = (
"356 536 LINE",
"363 544 OFFCURVE",
"369 564 OFFCURVE",
"336 564 CURVE SMOOTH",
"302 564 OFFCURVE",
"282 559 OFFCURVE",
"272 546 CURVE SMOOTH",
"158 391 LINE",
"152 384 OFFCURVE",
"148 376 OFFCURVE",
"148 371 CURVE SMOOTH",
"148 363 OFFCURVE",
"153 359 OFFCURVE",
"164 359 CURVE SMOOTH",
"269 359 OFFCURVE",
"362 324 OFFCURVE",
"362 186 CURVE SMOOTH",
"362 149 OFFCURVE",
"356 98 OFFCURVE",
"329 54 CURVE SMOOTH",
"316 33 OFFCURVE",
"308 25 OFFCURVE",
"308 17 CURVE SMOOTH",
"308 12 OFFCURVE",
"312 8 OFFCURVE",
"319 8 CURVE SMOOTH",
"370 8 OFFCURVE",
"464 92 OFFCURVE",
"464 199 CURVE SMOOTH",
"464 316 OFFCURVE",
"393 388 OFFCURVE",
"300 409 CURVE",
"286 413 OFFCURVE",
"276 417 OFFCURVE",
"276 425 CURVE SMOOTH",
"276 429 OFFCURVE",
"278 434 OFFCURVE",
"283 440 CURVE"
);
},
{
closed = 1;
nodes = (
"265 -15 OFFCURVE",
"293 46 OFFCURVE",
"293 63 CURVE SMOOTH",
"293 71 OFFCURVE",
"290 77 OFFCURVE",
"281 77 CURVE SMOOTH",
"269 77 OFFCURVE",
"253 62 OFFCURVE",
"222 62 CURVE SMOOTH",
"205 62 OFFCURVE",
"185 64 OFFCURVE",
"152 92 CURVE SMOOTH",
"140 102 OFFCURVE",
"129 109 OFFCURVE",
"116 109 CURVE SMOOTH",
"93 109 OFFCURVE",
"69 86 OFFCURVE",
"61 78 CURVE SMOOTH",
"53 70 OFFCURVE",
"50 62 OFFCURVE",
"50 55 CURVE SMOOTH",
"50 44 OFFCURVE",
"53 36 OFFCURVE",
"65 25 CURVE SMOOTH",
"104 -10 OFFCURVE",
"142 -15 OFFCURVE",
"169 -15 CURVE SMOOTH"
);
}
);
width = 511;
}
);
unicode = 0033;
},
{
glyphname = four;
layers = (
{
layerId = UUID0;
paths = (
{
closed = 1;
nodes = (
"447 155 LINE SMOOTH",
"480 155 OFFCURVE",
"525 210 OFFCURVE",
"525 234 CURVE SMOOTH",
"525 246 OFFCURVE",
"515 249 OFFCURVE",
"502 249 CURVE SMOOTH",
"436 249 LINE SMOOTH",
"420 249 OFFCURVE",
"407 254 OFFCURVE",
"407 277 CURVE SMOOTH",
"407 674 LINE SMOOTH",
"407 688 OFFCURVE",
"401 695 OFFCURVE",
"390 695 CURVE SMOOTH",
"371 695 OFFCURVE",
"344 675 OFFCURVE",
"327 655 CURVE SMOOTH",
"319 645 OFFCURVE",
"317 632 OFFCURVE",
"317 622 CURVE SMOOTH",
"317 180 LINE SMOOTH",
"317 160 OFFCURVE",
"327 155 OFFCURVE",
"340 155 CURVE SMOOTH"
);
},
{
closed = 1;
nodes = (
"271 461 LINE SMOOTH",
"284 480 OFFCURVE",
"288 508 OFFCURVE",
"288 537 CURVE SMOOTH",
"288 571 OFFCURVE",
"285 589 OFFCURVE",
"275 589 CURVE SMOOTH",
"272 589 OFFCURVE",
"268 587 OFFCURVE",
"259 575 CURVE",
"96 333 LINE SMOOTH",
"84 315 OFFCURVE",
"76 303 OFFCURVE",
"76 293 CURVE SMOOTH",
"76 283 OFFCURVE",
"84 278 OFFCURVE",
"105 278 CURVE SMOOTH",
"146 278 OFFCURVE",
"163 298 OFFCURVE",
"183 328 CURVE SMOOTH"
);
},
{
closed = 1;
nodes = (
"81 249 LINE SMOOTH",
"58 249 OFFCURVE",
"38 239 OFFCURVE",
"14 206 CURVE",
"7 195 OFFCURVE",
"0 184 OFFCURVE",
"0 173 CURVE SMOOTH",
"0 159 OFFCURVE",
"13 155 OFFCURVE",
"31 155 CURVE SMOOTH",
"260 155 LINE SMOOTH",
"283 155 OFFCURVE",
"288 177 OFFCURVE",
"288 206 CURVE SMOOTH",
"288 236 OFFCURVE",
"283 249 OFFCURVE",
"260 249 CURVE SMOOTH"
);
},
{
closed = 1;
nodes = (
"407 99 LINE SMOOTH",
"407 122 OFFCURVE",
"393 125 OFFCURVE",
"362 125 CURVE SMOOTH",
"334 125 OFFCURVE",
"317 122 OFFCURVE",
"317 99 CURVE SMOOTH",
"317 16 LINE SMOOTH",
"317 2 OFFCURVE",
"323 -5 OFFCURVE",
"334 -5 CURVE SMOOTH",
"352 -5 OFFCURVE",
"380 12 OFFCURVE",
"397 32 CURVE SMOOTH",
"406 43 OFFCURVE",
"407 55 OFFCURVE",
"407 68 CURVE SMOOTH"
);
}
);
width = 477;
}
);
unicode = 0034;
},
{
glyphname = five;
layers = (
{
layerId = UUID0;
paths = (
{
closed = 1;
nodes = (
"346 595 LINE SMOOTH",
"356 595 OFFCURVE",
"369 597 OFFCURVE",
"379 605 CURVE SMOOTH",
"399 622 OFFCURVE",
"419 649 OFFCURVE",
"419 668 CURVE SMOOTH",
"419 679 OFFCURVE",
"412 685 OFFCURVE",
"398 685 CURVE SMOOTH",
"145 685 LINE SMOOTH",
"132 685 OFFCURVE",
"119 684 OFFCURVE",
"109 675 CURVE SMOOTH",
"92 659 OFFCURVE",
"74 621 OFFCURVE",
"74 609 CURVE SMOOTH",
"74 598 OFFCURVE",
"81 595 OFFCURVE",
"95 595 CURVE SMOOTH"
);
},
{
closed = 1;
nodes = (
"154 536 LINE SMOOTH",
"154 561 OFFCURVE",
"138 565 OFFCURVE",
"114 565 CURVE SMOOTH",
"94 565 OFFCURVE",
"74 561 OFFCURVE",
"74 536 CURVE SMOOTH",
"74 367 LINE SMOOTH",
"74 343 OFFCURVE",
"88 339 OFFCURVE",
"99 339 CURVE SMOOTH",
"117 339 OFFCURVE",
"149 348 OFFCURVE",
"179 348 CURVE SMOOTH",
"303 348 OFFCURVE",
"354 290 OFFCURVE",
"354 186 CURVE SMOOTH",
"354 149 OFFCURVE",
"343 98 OFFCURVE",
"320 54 CURVE SMOOTH",
"309 33 OFFCURVE",
"299 25 OFFCURVE",
"299 17 CURVE SMOOTH",
"299 12 OFFCURVE",
"303 8 OFFCURVE",
"310 8 CURVE SMOOTH",
"361 8 OFFCURVE",
"452 88 OFFCURVE",
"452 203 CURVE SMOOTH",
"452 360 OFFCURVE",
"355 419 OFFCURVE",
"225 419 CURVE SMOOTH",
"214 419 OFFCURVE",
"195 418 OFFCURVE",
"179 418 CURVE SMOOTH",
"168 418 OFFCURVE",
"154 420 OFFCURVE",
"154 444 CURVE SMOOTH"
);
},
{
closed = 1;
nodes = (
"266 -15 OFFCURVE",
"289 46 OFFCURVE",
"289 63 CURVE SMOOTH",
"289 71 OFFCURVE",
"286 77 OFFCURVE",
"277 77 CURVE SMOOTH",
"265 77 OFFCURVE",
"254 62 OFFCURVE",
"223 62 CURVE SMOOTH",
"205 62 OFFCURVE",
"186 65 OFFCURVE",
"153 92 CURVE SMOOTH",
"141 102 OFFCURVE",
"130 109 OFFCURVE",
"117 109 CURVE SMOOTH",
"94 109 OFFCURVE",
"70 86 OFFCURVE",
"62 78 CURVE SMOOTH",
"54 70 OFFCURVE",
"50 62 OFFCURVE",
"50 55 CURVE SMOOTH",
"50 44 OFFCURVE",
"54 36 OFFCURVE",
"66 25 CURVE SMOOTH",
"106 -10 OFFCURVE",
"142 -15 OFFCURVE",
"170 -15 CURVE SMOOTH"
);
}
);
width = 502;
}
);
unicode = 0035;
},
{
glyphname = six;
layers = (
{
layerId = UUID0;
paths = (
{
closed = 1;
nodes = (
"456 661 OFFCURVE",
"435 670 OFFCURVE",
"425 675 CURVE SMOOTH",
"396 689 OFFCURVE",
"362 700 OFFCURVE",
"319 700 CURVE SMOOTH",
"208 700 OFFCURVE",
"148 654 OFFCURVE",
"97 587 CURVE SMOOTH",
"88 575 OFFCURVE",
"72 549 OFFCURVE",
"72 537 CURVE SMOOTH",
"72 527 OFFCURVE",
"77 525 OFFCURVE",
"83 525 CURVE SMOOTH",
"89 525 OFFCURVE",
"104 537 OFFCURVE",
"115 547 CURVE",
"165 589 OFFCURVE",
"195 620 OFFCURVE",
"260 620 CURVE SMOOTH",
"325 620 OFFCURVE",
"354 585 OFFCURVE",
"387 585 CURVE SMOOTH",
"410 585 OFFCURVE",
"456 616 OFFCURVE",
"456 643 CURVE SMOOTH"
);
},
{
closed = 1;
nodes = (
"183 402 OFFCURVE",
"177 401 OFFCURVE",
"172 401 CURVE SMOOTH",
"163 401 OFFCURVE",
"158 406 OFFCURVE",
"158 418 CURVE SMOOTH",
"158 446 OFFCURVE",
"174 505 OFFCURVE",
"174 520 CURVE SMOOTH",
"174 534 OFFCURVE",
"165 535 OFFCURVE",
"160 535 CURVE SMOOTH",
"137 535 OFFCURVE",
"90 497 OFFCURVE",
"73 464 CURVE SMOOTH",
"62 441 OFFCURVE",
"50 368 OFFCURVE",
"50 314 CURVE SMOOTH",
"50 298 OFFCURVE",
"54 287 OFFCURVE",
"65 287 CURVE SMOOTH",
"70 287 OFFCURVE",
"77 289 OFFCURVE",
"84 294 CURVE SMOOTH",
"132 329 OFFCURVE",
"186 348 OFFCURVE",
"239 348 CURVE SMOOTH",
"360 348 OFFCURVE",
"393 266 OFFCURVE",
"393 188 CURVE SMOOTH",
"393 130 OFFCURVE",
"387 95 OFFCURVE",
"363 47 CURVE SMOOTH",
"352 25 OFFCURVE",
"342 19 OFFCURVE",
"342 10 CURVE SMOOTH",
"342 5 OFFCURVE",
"345 0 OFFCURVE",
"353 0 CURVE SMOOTH",
"382 0 OFFCURVE",
"433 36 OFFCURVE",
"461 93 CURVE SMOOTH",
"483 136 OFFCURVE",
"490 184 OFFCURVE",
"490 209 CURVE SMOOTH",
"490 347 OFFCURVE",
"426 426 OFFCURVE",
"287 426 CURVE SMOOTH",
"266 426 OFFCURVE",
"220 418 OFFCURVE",
"191 406 CURVE"
);
},
{
closed = 1;
nodes = (
"299 -15 OFFCURVE",
"341 42 OFFCURVE",
"341 72 CURVE SMOOTH",
"341 78 OFFCURVE",
"338 83 OFFCURVE",
"330 83 CURVE SMOOTH",
"313 83 OFFCURVE",
"293 65 OFFCURVE",
"252 65 CURVE SMOOTH",
"161 65 OFFCURVE",
"150 166 OFFCURVE",
"150 261 CURVE SMOOTH",
"150 282 OFFCURVE",
"138 283 OFFCURVE",
"133 283 CURVE SMOOTH",
"103 283 OFFCURVE",
"57 248 OFFCURVE",
"57 205 CURVE SMOOTH",
"57 118 OFFCURVE",
"82 -15 OFFCURVE",
"214 -15 CURVE SMOOTH"
);
}
);
width = 537;
}
);
unicode = 0036;
},
{
glyphname = seven;
layers = (
{
layerId = UUID0;
paths = (
{
closed = 1;
nodes = (
"328 595 LINE SMOOTH",
"354 595 OFFCURVE",
"368 606 OFFCURVE",
"377 644 CURVE SMOOTH",
"379 652 OFFCURVE",
"379 659 OFFCURVE",
"379 664 CURVE SMOOTH",
"379 680 OFFCURVE",
"371 685 OFFCURVE",
"353 685 CURVE SMOOTH",
"51 685 LINE SMOOTH",
"38 685 OFFCURVE",
"25 684 OFFCURVE",
"15 675 CURVE SMOOTH",
"-5 657 OFFCURVE",
"-20 617 OFFCURVE",
"-20 610 CURVE SMOOTH",
"-20 599 OFFCURVE",
"-13 595 OFFCURVE",
"1 595 CURVE SMOOTH"
);
},
{
closed = 1;
nodes = (
"113 18 LINE",
"111 13 OFFCURVE",
"110 9 OFFCURVE",
"110 6 CURVE SMOOTH",
"110 -2 OFFCURVE",
"117 -5 OFFCURVE",
"123 -5 CURVE SMOOTH",
"135 -5 OFFCURVE",
"155 1 OFFCURVE",
"183 29 CURVE SMOOTH",
"202 49 OFFCURVE",
"208 65 OFFCURVE",
"214 87 CURVE SMOOTH",
"346 536 LINE SMOOTH",
"353 560 OFFCURVE",
"350 564 OFFCURVE",
"308 564 CURVE SMOOTH",
"274 564 OFFCURVE",
"269 561 OFFCURVE",
"264 546 CURVE"
);
}
);
width = 392;
}
);
unicode = 0037;
},
{
glyphname = eight;
layers = (
{
layerId = UUID0;
paths = (
{
closed = 1;
nodes = (
"397 424 OFFCURVE",
"451 487 OFFCURVE",
"451 552 CURVE SMOOTH",
"451 661 OFFCURVE",
"364 700 OFFCURVE",
"267 700 CURVE SMOOTH",
"196 700 OFFCURVE",
"134 681 OFFCURVE",
"87 617 CURVE SMOOTH",
"71 596 OFFCURVE",
"56 564 OFFCURVE",
"56 545 CURVE SMOOTH",
"56 537 OFFCURVE",
"59 532 OFFCURVE",
"65 532 CURVE SMOOTH",
"77 532 OFFCURVE",
"82 548 OFFCURVE",
"97 566 CURVE SMOOTH",
"134 610 OFFCURVE",
"186 620 OFFCURVE",
"229 620 CURVE SMOOTH",
"298 620 OFFCURVE",
"355 595 OFFCURVE",
"355 534 CURVE SMOOTH",
"355 480 OFFCURVE",
"337 450 OFFCURVE",
"229 369 CURVE",
"218 360 OFFCURVE",
"213 353 OFFCURVE",
"213 345 CURVE SMOOTH",
"213 336 OFFCURVE",
"218 328 OFFCURVE",
"226 321 CURVE SMOOTH",
"309 245 OFFCURVE",
"383 190 OFFCURVE",
"383 94 CURVE SMOOTH",
"383 56 OFFCURVE",
"353 19 OFFCURVE",
"353 11 CURVE SMOOTH",
"353 5 OFFCURVE",
"357 1 OFFCURVE",
"363 1 CURVE SMOOTH",
"402 1 OFFCURVE",
"479 50 OFFCURVE",
"479 138 CURVE SMOOTH",
"479 219 OFFCURVE",
"393 283 OFFCURVE",
"335 335 CURVE",
"328 343 OFFCURVE",
"323 347 OFFCURVE",
"323 355 CURVE SMOOTH",
"323 363 OFFCURVE",
"328 368 OFFCURVE",
"338 376 CURVE SMOOTH"
);
},
{
closed = 1;
nodes = (
"166 381 OFFCURVE",
"174 380 OFFCURVE",
"183 380 CURVE SMOOTH",
"198 380 OFFCURVE",
"240 409 OFFCURVE",
"240 430 CURVE SMOOTH",
"240 450 OFFCURVE",
"217 456 OFFCURVE",
"177 493 CURVE SMOOTH",
"144 523 OFFCURVE",
"145 539 OFFCURVE",
"127 539 CURVE SMOOTH",
"109 539 OFFCURVE",
"86 508 OFFCURVE",
"86 488 CURVE SMOOTH",
"86 471 OFFCURVE",
"92 451 OFFCURVE",
"150 395 CURVE"
);
},
{
closed = 1;
nodes = (
"214 260 OFFCURVE",
"219 269 OFFCURVE",
"219 276 CURVE SMOOTH",
"219 290 OFFCURVE",
"203 312 OFFCURVE",
"185 312 CURVE SMOOTH",
"176 312 OFFCURVE",
"169 308 OFFCURVE",
"159 300 CURVE",
"105 260 OFFCURVE",
"50 175 OFFCURVE",
"50 109 CURVE SMOOTH",
"50 72 OFFCURVE",
"67 -15 OFFCURVE",
"212 -15 CURVE SMOOTH",
"301 -15 OFFCURVE",
"346 43 OFFCURVE",
"346 74 CURVE SMOOTH",
"346 80 OFFCURVE",
"343 85 OFFCURVE",
"335 85 CURVE SMOOTH",
"321 85 OFFCURVE",
"291 65 OFFCURVE",
"243 65 CURVE SMOOTH",
"172 65 OFFCURVE",
"148 101 OFFCURVE",
"148 133 CURVE SMOOTH",
"148 183 OFFCURVE",
"180 218 OFFCURVE",
"207 250 CURVE"
);
}
);
width = 531;
}
);
unicode = 0038;
},
{
glyphname = nine;
layers = (
{
layerId = UUID0;
paths = (
{
closed = 1;
nodes = (
"61 573 OFFCURVE",
"51 558 OFFCURVE",
"51 545 CURVE SMOOTH",
"51 537 OFFCURVE",
"56 534 OFFCURVE",
"62 534 CURVE SMOOTH",
"68 534 OFFCURVE",
"77 538 OFFCURVE",
"94 555 CURVE SMOOTH",
"152 614 OFFCURVE",
"195 620 OFFCURVE",
"230 620 CURVE SMOOTH",
"376 620 OFFCURVE",
"391 484 OFFCURVE",
"391 311 CURVE SMOOTH",
"391 246 OFFCURVE",
"390 126 OFFCURVE",
"358 56 CURVE SMOOTH",
"348 34 OFFCURVE",
"337 27 OFFCURVE",
"337 19 CURVE SMOOTH",
"337 14 OFFCURVE",
"339 8 OFFCURVE",
"347 8 CURVE SMOOTH",
"374 8 OFFCURVE",
"417 44 OFFCURVE",
"447 101 CURVE SMOOTH",
"485 173 OFFCURVE",
"489 284 OFFCURVE",
"489 345 CURVE SMOOTH",
"489 509 OFFCURVE",
"473 700 OFFCURVE",
"269 700 CURVE SMOOTH",
"182 700 OFFCURVE",
"109 650 OFFCURVE",
"68 586 CURVE"
);
},
{
closed = 1;
nodes = (
"353 324 OFFCURVE",
"361 331 OFFCURVE",
"361 358 CURVE SMOOTH",
"361 379 OFFCURVE",
"356 382 OFFCURVE",
"352 382 CURVE SMOOTH",
"347 382 OFFCURVE",
"341 377 OFFCURVE",
"334 374 CURVE",
"307 360 OFFCURVE",
"270 350 OFFCURVE",
"247 350 CURVE SMOOTH",
"161 350 OFFCURVE",
"143 420 OFFCURVE",
"143 511 CURVE SMOOTH",
"143 525 OFFCURVE",
"135 531 OFFCURVE",
"125 531 CURVE SMOOTH",
"111 531 OFFCURVE",
"94 517 OFFCURVE",
"80 505 CURVE SMOOTH",
"54 483 OFFCURVE",
"48 460 OFFCURVE",
"48 433 CURVE SMOOTH",
"48 354 OFFCURVE",
"90 261 OFFCURVE",
"208 261 CURVE SMOOTH",
"255 261 OFFCURVE",
"310 284 OFFCURVE",
"344 316 CURVE SMOOTH"
);
},
{
closed = 1;
nodes = (
"292 -15 OFFCURVE",
"322 46 OFFCURVE",
"322 63 CURVE SMOOTH",
"322 71 OFFCURVE",
"319 77 OFFCURVE",
"311 77 CURVE SMOOTH",
"298 77 OFFCURVE",
"280 62 OFFCURVE",
"249 62 CURVE SMOOTH",
"231 62 OFFCURVE",
"212 65 OFFCURVE",
"179 92 CURVE SMOOTH",
"167 102 OFFCURVE",
"156 109 OFFCURVE",
"143 109 CURVE SMOOTH",
"120 109 OFFCURVE",
"96 86 OFFCURVE",
"88 78 CURVE SMOOTH",
"80 70 OFFCURVE",
"77 62 OFFCURVE",
"77 55 CURVE SMOOTH",
"77 44 OFFCURVE",
"80 36 OFFCURVE",
"92 25 CURVE SMOOTH",
"131 -11 OFFCURVE",
"168 -15 OFFCURVE",
"196 -15 CURVE SMOOTH"
);
}
);
width = 541;
}
);
unicode = 0039;
},
{
glyphname = onesuperior;
layers = (
{
layerId = UUID0;
paths = (
{
closed = 1;
nodes = (
"201 683 LINE SMOOTH",
"201 691 OFFCURVE",
"197 695 OFFCURVE",
"190 695 CURVE SMOOTH",
"179 695 OFFCURVE",
"146 683 OFFCURVE",
"135 671 CURVE",
"130 666 OFFCURVE",
"129 658 OFFCURVE",
"129 652 CURVE SMOOTH",
"129 292 LINE SMOOTH",
"129 283 OFFCURVE",
"133 279 OFFCURVE",
"140 279 CURVE SMOOTH",
"150 279 OFFCURVE",
"185 290 OFFCURVE",
"195 301 CURVE",
"200 308 OFFCURVE",
"201 315 OFFCURVE",
"201 322 CURVE SMOOTH"
);
},
{
closed = 1;
nodes = (
"10 553 LINE",
"7 549 OFFCURVE",
"0 542 OFFCURVE",
"0 538 CURVE SMOOTH",
"0 528 OFFCURVE",
"18 526 OFFCURVE",
"33 526 CURVE SMOOTH",
"53 526 OFFCURVE",
"64 528 OFFCURVE",
"77 541 CURVE SMOOTH",
"99 564 LINE SMOOTH",
"109 575 OFFCURVE",
"112 592 OFFCURVE",
"112 612 CURVE SMOOTH",
"112 631 OFFCURVE",
"109 641 OFFCURVE",
"101 641 CURVE SMOOTH",
"98 641 OFFCURVE",
"95 639 OFFCURVE",
"90 633 CURVE"
);
}
);
width = 264;
}
);
unicode = 00B9;
},
{
glyphname = twosuperior;
layers = (
{
layerId = UUID0;
paths = (
{
closed = 1;
nodes = (
"149 451 OFFCURVE",
"281 506 OFFCURVE",
"281 595 CURVE SMOOTH",
"281 663 OFFCURVE",
"231 700 OFFCURVE",
"167 700 CURVE SMOOTH",
"120 700 OFFCURVE",
"78 681 OFFCURVE",
"45 639 CURVE",
"42 636 OFFCURVE",
"32 618 OFFCURVE",
"32 608 CURVE SMOOTH",
"32 604 OFFCURVE",
"36 601 OFFCURVE",
"38 601 CURVE SMOOTH",
"41 601 OFFCURVE",
"46 602 OFFCURVE",
"56 608 CURVE",
"92 633 OFFCURVE",
"117 642 OFFCURVE",
"144 642 CURVE SMOOTH",
"180 642 OFFCURVE",
"204 625 OFFCURVE",
"204 586 CURVE SMOOTH",
"204 523 OFFCURVE",
"106 481 OFFCURVE",
"56 388 CURVE",
"52 382 OFFCURVE",
"51 376 OFFCURVE",
"51 375 CURVE SMOOTH",
"51 364 OFFCURVE",
"63 363 OFFCURVE",
"76 363 CURVE SMOOTH",
"97 363 OFFCURVE",
"107 368 OFFCURVE",
"115 384 CURVE SMOOTH"
);
},
{
closed = 1;
nodes = (
"69 346 LINE SMOOTH",
"61 346 OFFCURVE",
"54 345 OFFCURVE",
"47 340 CURVE",
"39 333 OFFCURVE",
"26 307 OFFCURVE",
"26 292 CURVE SMOOTH",
"26 286 OFFCURVE",
"30 282 OFFCURVE",
"39 282 CURVE SMOOTH",
"240 282 LINE SMOOTH",
"248 282 OFFCURVE",
"256 282 OFFCURVE",
"262 288 CURVE",
"273 298 OFFCURVE",
"283 333 OFFCURVE",
"283 337 CURVE SMOOTH",
"283 343 OFFCURVE",
"279 346 OFFCURVE",
"270 346 CURVE SMOOTH"
);
}
);
width = 315;
}
);
unicode = 00B2;
},
{
glyphname = threesuperior;
layers = (
{
layerId = UUID0;
paths = (
{
closed = 1;
nodes = (
"221 621 LINE SMOOTH",
"234 621 OFFCURVE",
"244 625 OFFCURVE",
"252 634 CURVE",
"270 656 LINE",
"275 663 OFFCURVE",
"280 669 OFFCURVE",
"280 675 CURVE SMOOTH",
"280 681 OFFCURVE",
"275 685 OFFCURVE",
"268 685 CURVE SMOOTH",
"84 685 LINE SMOOTH",
"77 685 OFFCURVE",
"70 685 OFFCURVE",
"64 679 CURVE",
"53 669 OFFCURVE",
"32 643 OFFCURVE",
"32 629 CURVE SMOOTH",
"32 624 OFFCURVE",
"36 621 OFFCURVE",
"44 621 CURVE SMOOTH"
);
},
{
closed = 1;
nodes = (
"212 583 LINE SMOOTH",
"218 590 OFFCURVE",
"218 593 OFFCURVE",
"218 596 CURVE SMOOTH",
"218 601 OFFCURVE",
"212 604 OFFCURVE",
"192 604 CURVE SMOOTH",
"170 604 OFFCURVE",
"162 601 OFFCURVE",
"151 589 CURVE SMOOTH",
"84 516 LINE",
"81 512 OFFCURVE",
"79 507 OFFCURVE",
"79 504 CURVE SMOOTH",
"79 500 OFFCURVE",
"82 497 OFFCURVE",
"88 497 CURVE SMOOTH",
"148 497 OFFCURVE",
"211 477 OFFCURVE",
"211 397 CURVE SMOOTH",
"211 376 OFFCURVE",
"208 347 OFFCURVE",
"193 322 CURVE SMOOTH",
"186 310 OFFCURVE",
"181 305 OFFCURVE",
"181 300 CURVE SMOOTH",
"181 297 OFFCURVE",
"183 295 OFFCURVE",
"187 295 CURVE SMOOTH",
"225 295 OFFCURVE",
"288 335 OFFCURVE",
"288 405 CURVE SMOOTH",
"288 479 OFFCURVE",
"250 512 OFFCURVE",
"188 528 CURVE SMOOTH",
"180 530 OFFCURVE",
"175 532 OFFCURVE",
"175 536 CURVE SMOOTH",
"175 539 OFFCURVE",
"177 542 OFFCURVE",
"180 544 CURVE"
);
},
{
closed = 1;
nodes = (
"156 282 OFFCURVE",
"173 315 OFFCURVE",
"173 332 CURVE SMOOTH",
"173 336 OFFCURVE",
"171 340 OFFCURVE",
"166 340 CURVE SMOOTH",
"159 340 OFFCURVE",
"149 334 OFFCURVE",
"132 334 CURVE SMOOTH",
"122 334 OFFCURVE",
"110 335 OFFCURVE",
"91 351 CURVE SMOOTH",
"84 357 OFFCURVE",
"79 361 OFFCURVE",
"71 361 CURVE SMOOTH",
"57 361 OFFCURVE",
"44 342 OFFCURVE",
"40 338 CURVE",
"36 333 OFFCURVE",
"32 326 OFFCURVE",
"32 322 CURVE SMOOTH",
"32 316 OFFCURVE",
"34 311 OFFCURVE",
"41 305 CURVE SMOOTH",
"63 285 OFFCURVE",
"85 282 OFFCURVE",
"101 282 CURVE SMOOTH"
);
}
);
width = 319;
}
);
unicode = 00B3;
},
{
glyphname = foursuperior;
layers = (
{
layerId = UUID0;
paths = (
{
closed = 1;
nodes = (
"309 369 LINE SMOOTH",
"324 369 OFFCURVE",
"332 377 OFFCURVE",
"347 403 CURVE",
"352 411 OFFCURVE",
"355 420 OFFCURVE",
"355 425 CURVE SMOOTH",
"355 432 OFFCURVE",
"349 433 OFFCURVE",
"341 433 CURVE SMOOTH",
"302 433 LINE SMOOTH",
"293 433 OFFCURVE",
"285 437 OFFCURVE",
"285 450 CURVE SMOOTH",
"285 683 LINE SMOOTH",
"285 691 OFFCURVE",
"282 695 OFFCURVE",
"275 695 CURVE SMOOTH",
"264 695 OFFCURVE",
"240 683 OFFCURVE",
"229 671 CURVE",
"225 666 OFFCURVE",
"224 658 OFFCURVE",
"224 652 CURVE SMOOTH",
"224 383 LINE SMOOTH",
"224 372 OFFCURVE",
"229 369 OFFCURVE",
"237 369 CURVE SMOOTH"
);
},
{
closed = 1;
nodes = (
"86 474 LINE",
"83 468 OFFCURVE",
"81 463 OFFCURVE",
"81 460 CURVE SMOOTH",
"81 453 OFFCURVE",
"88 450 OFFCURVE",
"101 450 CURVE SMOOTH",
"121 450 OFFCURVE",
"136 451 OFFCURVE",
"145 465 CURVE SMOOTH",
"197 544 LINE SMOOTH",
"204 555 OFFCURVE",
"207 570 OFFCURVE",
"207 598 CURVE SMOOTH",
"207 629 OFFCURVE",
"205 632 OFFCURVE",
"199 632 CURVE SMOOTH",
"197 632 OFFCURVE",
"194 631 OFFCURVE",
"189 624 CURVE SMOOTH"
);
},
{
closed = 1;
nodes = (
"83 433 LINE SMOOTH",
"66 433 OFFCURVE",
"56 427 OFFCURVE",
"49 417 CURVE SMOOTH",
"36 398 OFFCURVE",
"32 390 OFFCURVE",
"32 383 CURVE SMOOTH",
"32 375 OFFCURVE",
"37 369 OFFCURVE",
"51 369 CURVE SMOOTH",
"190 369 LINE SMOOTH",
"204 369 OFFCURVE",
"207 385 OFFCURVE",
"207 402 CURVE SMOOTH",
"207 420 OFFCURVE",
"204 433 OFFCURVE",
"190 433 CURVE SMOOTH"
);
},
{
closed = 1;
nodes = (
"285 336 LINE SMOOTH",
"285 350 OFFCURVE",
"273 352 OFFCURVE",
"254 352 CURVE SMOOTH",
"238 352 OFFCURVE",
"224 350 OFFCURVE",
"224 336 CURVE SMOOTH",
"224 291 LINE SMOOTH",
"224 283 OFFCURVE",
"228 279 OFFCURVE",
"234 279 CURVE SMOOTH",
"244 279 OFFCURVE",
"269 289 OFFCURVE",
"279 301 CURVE",
"285 307 OFFCURVE",
"285 314 OFFCURVE",
"285 322 CURVE SMOOTH"
);
}
);
width = 377;
}
);
unicode = 2074;
},
{
glyphname = fraction;
layers = (
{
layerId = UUID0;
paths = (
{
closed = 1;
nodes = (
"63 21 LINE SMOOTH",
"55 11 OFFCURVE",
"49 2 OFFCURVE",
"49 -4 CURVE SMOOTH",
"49 -12 OFFCURVE",
"56 -15 OFFCURVE",
"61 -15 CURVE SMOOTH",
"96 -15 OFFCURVE",
"127 -2 OFFCURVE",
"145 21 CURVE SMOOTH",
"638 674 LINE SMOOTH",
"644 682 OFFCURVE",
"646 687 OFFCURVE",
"646 690 CURVE SMOOTH",
"646 696 OFFCURVE",
"640 700 OFFCURVE",
"633 700 CURVE SMOOTH",
"600 700 OFFCURVE",
"566 687 OFFCURVE",
"549 664 CURVE SMOOTH"
);
}
);
width = 694;
}
);
unicode = 2044;
},
{
glyphname = asterisk;
layers = (
{
layerId = UUID0;
paths = (
{
closed = 1;
nodes = (
"215 547 LINE",
"139 455 LINE SMOOTH",
"134 449 OFFCURVE",
"132 443 OFFCURVE",
"132 439 CURVE SMOOTH",
"132 426 OFFCURVE",
"164 400 OFFCURVE",
"179 400 CURVE SMOOTH",
"186 400 OFFCURVE",
"191 404 OFFCURVE",
"198 413 CURVE",
"260 513 LINE",
"262 513 LINE",
"326 412 LINE",
"332 404 OFFCURVE",
"338 401 OFFCURVE",
"344 401 CURVE SMOOTH",
"358 401 OFFCURVE",
"392 425 OFFCURVE",
"392 438 CURVE SMOOTH",
"392 444 OFFCURVE",
"390 450 OFFCURVE",
"385 456 CURVE SMOOTH",
"310 547 LINE",
"310 550 LINE",
"425 579 LINE",
"438 583 OFFCURVE",
"442 589 OFFCURVE",
"442 600 CURVE SMOOTH",
"442 624 OFFCURVE",
"432 650 OFFCURVE",
"417 650 CURVE SMOOTH",
"411 650 OFFCURVE",
"407 648 OFFCURVE",
"403 647 CURVE",
"293 604 LINE",
"291 605 LINE",
"298 727 LINE",
"298 746 OFFCURVE",
"288 750 OFFCURVE",
"261 750 CURVE SMOOTH",
"236 750 OFFCURVE",
"226 746 OFFCURVE",
"226 728 CURVE",
"234 606 LINE",
"232 604 LINE",
"121 648 LINE",
"117 649 OFFCURVE",
"113 650 OFFCURVE",
"109 650 CURVE SMOOTH",
"97 650 OFFCURVE",
"81 629 OFFCURVE",
"81 600 CURVE SMOOTH",
"81 589 OFFCURVE",
"85 583 OFFCURVE",
"99 579 CURVE SMOOTH",
"214 549 LINE"
);
}
);
width = 523;
}
);
unicode = 002A;
},
{
glyphname = backslash;
layers = (
{
layerId = UUID0;
paths = (
{
closed = 1;
nodes = (
"-12 748 OFFCURVE",
"-27 750 OFFCURVE",
"-36 750 CURVE SMOOTH",
"-45 750 OFFCURVE",
"-49 745 OFFCURVE",
"-49 738 CURVE SMOOTH",
"-49 734 OFFCURVE",
"-47 727 OFFCURVE",
"-42 718 CURVE SMOOTH",
"337 31 LINE SMOOTH",
"349 9 OFFCURVE",
"393 -5 OFFCURVE",
"425 -5 CURVE SMOOTH",
"433 -5 OFFCURVE",
"438 -1 OFFCURVE",
"438 5 CURVE SMOOTH",
"438 11 OFFCURVE",
"434 18 OFFCURVE",
"426 32 CURVE SMOOTH",
"60 701 LINE SMOOTH",
"47 725 OFFCURVE",
"30 739 OFFCURVE",
"2 745 CURVE SMOOTH"
);
}
);
width = 389;
}
);
unicode = 005C;
},
{
glyphname = periodcentered;
layers = (
{
layerId = UUID0;
paths = (
{
closed = 1;
nodes = (
"137 436 LINE SMOOTH",
"137 450 OFFCURVE",
"131 457 OFFCURVE",
"120 457 CURVE SMOOTH",
"101 457 OFFCURVE",
"75 444 OFFCURVE",
"58 424 CURVE SMOOTH",
"50 414 OFFCURVE",
"49 404 OFFCURVE",
"49 394 CURVE SMOOTH",
"49 323 LINE SMOOTH",
"49 309 OFFCURVE",
"55 302 OFFCURVE",
"66 302 CURVE SMOOTH",
"85 302 OFFCURVE",
"111 315 OFFCURVE",
"128 335 CURVE SMOOTH",
"136 345 OFFCURVE",
"137 355 OFFCURVE",
"137 365 CURVE SMOOTH"
);
}
);
width = 186;
}
);
unicode = 00B7;
},
{
glyphname = bullet;
layers = (
{
layerId = UUID0;
paths = (
{
closed = 1;
nodes = (
"49 291 OFFCURVE",
"115 226 OFFCURVE",
"199 226 CURVE SMOOTH",
"282 226 OFFCURVE",
"350 291 OFFCURVE",
"350 374 CURVE SMOOTH",
"350 457 OFFCURVE",
"282 522 OFFCURVE",
"199 522 CURVE SMOOTH",
"115 522 OFFCURVE",
"49 457 OFFCURVE",
"49 374 CURVE SMOOTH"
);
}
);
width = 399;
}
);
unicode = 2022;
},
{
glyphname = colon;
layers = (
{
layerId = UUID0;
paths = (
{
closed = 1;
nodes = (
"163 494 LINE SMOOTH",
"163 508 OFFCURVE",
"157 515 OFFCURVE",
"146 515 CURVE SMOOTH",
"127 515 OFFCURVE",
"92 495 OFFCURVE",
"75 475 CURVE SMOOTH",
"67 465 OFFCURVE",
"65 452 OFFCURVE",
"65 442 CURVE SMOOTH",
"65 376 LINE SMOOTH",
"65 362 OFFCURVE",
"71 355 OFFCURVE",
"82 355 CURVE SMOOTH",
"100 355 OFFCURVE",
"136 372 OFFCURVE",
"153 392 CURVE SMOOTH",
"162 403 OFFCURVE",
"163 415 OFFCURVE",
"163 428 CURVE SMOOTH"
);
},
{
closed = 1;
nodes = (
"163 134 LINE SMOOTH",
"163 148 OFFCURVE",
"157 155 OFFCURVE",
"146 155 CURVE SMOOTH",
"127 155 OFFCURVE",
"92 135 OFFCURVE",
"75 115 CURVE SMOOTH",
"67 105 OFFCURVE",
"65 92 OFFCURVE",
"65 82 CURVE SMOOTH",
"65 16 LINE SMOOTH",
"65 2 OFFCURVE",
"71 -5 OFFCURVE",
"82 -5 CURVE SMOOTH",
"100 -5 OFFCURVE",
"136 12 OFFCURVE",
"153 32 CURVE SMOOTH",
"162 43 OFFCURVE",
"163 55 OFFCURVE",
"163 68 CURVE SMOOTH"
);
}
);
width = 228;
}
);
unicode = 003A;
},
{
glyphname = comma;
layers = (
{
layerId = UUID0;
paths = (
{
closed = 1;
nodes = (
"219 114 LINE SMOOTH",
"226 131 OFFCURVE",
"226 136 OFFCURVE",
"226 138 CURVE SMOOTH",
"226 149 OFFCURVE",
"219 155 OFFCURVE",
"209 155 CURVE SMOOTH",
"191 155 OFFCURVE",
"152 135 OFFCURVE",
"136 115 CURVE SMOOTH",
"128 105 OFFCURVE",
"124 92 OFFCURVE",
"121 82 CURVE SMOOTH",
"75 -83 LINE SMOOTH",
"65 -116 OFFCURVE",
"65 -117 OFFCURVE",
"65 -122 CURVE SMOOTH",
"65 -132 OFFCURVE",
"73 -136 OFFCURVE",
"82 -136 CURVE SMOOTH",
"109 -136 OFFCURVE",
"136 -99 OFFCURVE",
"152 -62 CURVE"
);
}
);
width = 291;
}
);
unicode = 002C;
},
{
glyphname = exclam;
layers = (
{
layerId = UUID0;
paths = (
{
closed = 1;
nodes = (
"160 674 LINE SMOOTH",
"160 688 OFFCURVE",
"154 695 OFFCURVE",
"143 695 CURVE SMOOTH",
"124 695 OFFCURVE",
"97 675 OFFCURVE",
"80 655 CURVE SMOOTH",
"72 645 OFFCURVE",
"70 632 OFFCURVE",
"70 622 CURVE SMOOTH",
"70 256 LINE SMOOTH",
"70 242 OFFCURVE",
"76 235 OFFCURVE",
"87 235 CURVE SMOOTH",
"105 235 OFFCURVE",
"133 252 OFFCURVE",
"150 272 CURVE SMOOTH",
"159 283 OFFCURVE",
"160 295 OFFCURVE",
"160 308 CURVE SMOOTH"
);
},
{
closed = 1;
nodes = (
"160 146 LINE SMOOTH",
"160 160 OFFCURVE",
"154 167 OFFCURVE",
"144 167 CURVE SMOOTH",
"128 167 OFFCURVE",
"97 146 OFFCURVE",
"80 126 CURVE SMOOTH",
"72 117 OFFCURVE",
"70 104 OFFCURVE",
"70 93 CURVE SMOOTH",
"70 16 LINE SMOOTH",
"70 1 OFFCURVE",
"76 -5 OFFCURVE",
"87 -5 CURVE SMOOTH",
"105 -5 OFFCURVE",
"133 12 OFFCURVE",
"150 31 CURVE",
"159 42 OFFCURVE",
"160 55 OFFCURVE",
"160 67 CURVE SMOOTH"
);
}
);
width = 230;
}
);
unicode = 0021;
},
{
glyphname = exclamdown;
layers = (
{
layerId = UUID0;
paths = (
{
closed = 1;
nodes = (
"70 364 LINE SMOOTH",
"70 350 OFFCURVE",
"76 343 OFFCURVE",
"86 343 CURVE SMOOTH",
"102 343 OFFCURVE",
"133 363 OFFCURVE",
"150 383 CURVE SMOOTH",
"158 393 OFFCURVE",
"160 406 OFFCURVE",
"160 416 CURVE SMOOTH",
"160 494 LINE SMOOTH",
"160 508 OFFCURVE",
"154 515 OFFCURVE",
"143 515 CURVE SMOOTH",
"125 515 OFFCURVE",
"97 498 OFFCURVE",
"80 478 CURVE SMOOTH",
"71 467 OFFCURVE",
"70 455 OFFCURVE",
"70 442 CURVE SMOOTH"
);
},
{
closed = 1;
nodes = (
"70 -165 LINE SMOOTH",
"70 -179 OFFCURVE",
"76 -186 OFFCURVE",
"87 -186 CURVE SMOOTH",
"106 -186 OFFCURVE",
"133 -166 OFFCURVE",
"150 -146 CURVE SMOOTH",
"158 -136 OFFCURVE",
"160 -123 OFFCURVE",
"160 -113 CURVE SMOOTH",
"160 253 LINE SMOOTH",
"160 267 OFFCURVE",
"154 274 OFFCURVE",
"143 274 CURVE SMOOTH",
"125 274 OFFCURVE",
"97 257 OFFCURVE",
"80 237 CURVE SMOOTH",
"71 226 OFFCURVE",
"70 214 OFFCURVE",
"70 201 CURVE SMOOTH"
);
}
);
width = 230;
}
);
unicode = 00A1;
},
{
glyphname = numbersign;
layers = (
{
layerId = UUID0;
paths = (
{
closed = 1;
nodes = (
"379 432 LINE SMOOTH",
"408 432 OFFCURVE",
"418 458 OFFCURVE",
"418 480 CURVE SMOOTH",
"418 487 OFFCURVE",
"415 492 OFFCURVE",
"406 492 CURVE SMOOTH",
"310 492 LINE SMOOTH",
"299 492 OFFCURVE",
"292 497 OFFCURVE",
"292 507 CURVE SMOOTH",
"292 508 OFFCURVE",
"292 510 OFFCURVE",
"293 512 CURVE",
"327 660 LINE SMOOTH",
"328 665 OFFCURVE",
"329 671 OFFCURVE",
"329 674 CURVE SMOOTH",
"329 690 OFFCURVE",
"322 695 OFFCURVE",
"314 695 CURVE SMOOTH",
"287 695 OFFCURVE",
"252 650 OFFCURVE",
"245 618 CURVE SMOOTH",
"207 452 LINE",
"207 447 LINE SMOOTH",
"207 437 OFFCURVE",
"213 432 OFFCURVE",
"224 432 CURVE SMOOTH"
);
},
{
closed = 1;
nodes = (
"653 432 LINE SMOOTH",
"677 432 OFFCURVE",
"684 441 OFFCURVE",
"684 449 CURVE SMOOTH",
"684 476 OFFCURVE",
"628 493 OFFCURVE",
"594 493 CURVE SMOOTH",
"544 493 LINE SMOOTH",
"534 493 OFFCURVE",
"526 498 OFFCURVE",
"526 508 CURVE SMOOTH",
"526 509 OFFCURVE",
"526 511 OFFCURVE",
"527 513 CURVE",
"561 660 LINE SMOOTH",
"562 665 OFFCURVE",
"563 671 OFFCURVE",
"563 674 CURVE SMOOTH",
"563 690 OFFCURVE",
"556 695 OFFCURVE",
"548 695 CURVE SMOOTH",
"521 695 OFFCURVE",
"486 650 OFFCURVE",
"479 618 CURVE SMOOTH",
"441 452 LINE",
"440 450 OFFCURVE",
"440 447 OFFCURVE",
"440 445 CURVE SMOOTH",
"440 436 OFFCURVE",
"446 432 OFFCURVE",
"456 432 CURVE SMOOTH"
);
},
{
closed = 1;
nodes = (
"60 491 LINE SMOOTH",
"38 491 OFFCURVE",
"31 485 OFFCURVE",
"31 476 CURVE SMOOTH",
"31 448 OFFCURVE",
"87 432 OFFCURVE",
"122 432 CURVE SMOOTH",
"145 432 LINE SMOOTH",
"173 432 OFFCURVE",
"184 458 OFFCURVE",
"184 479 CURVE SMOOTH",
"184 486 OFFCURVE",
"180 491 OFFCURVE",
"170 491 CURVE SMOOTH"
);
},
{
closed = 1;
nodes = (
"155 221 LINE",
"154 219 OFFCURVE",
"154 217 OFFCURVE",
"154 216 CURVE SMOOTH",
"154 206 OFFCURVE",
"162 201 OFFCURVE",
"172 201 CURVE SMOOTH",
"327 201 LINE SMOOTH",
"355 201 OFFCURVE",
"366 227 OFFCURVE",
"366 249 CURVE SMOOTH",
"366 256 OFFCURVE",
"362 261 OFFCURVE",
"353 261 CURVE SMOOTH",
"257 260 LINE SMOOTH",
"247 260 OFFCURVE",
"239 264 OFFCURVE",
"239 274 CURVE SMOOTH",
"239 275 OFFCURVE",
"240 278 OFFCURVE",
"240 280 CURVE",
"264 385 OFFCURVE",
"264 386 OFFCURVE",
"264 388 CURVE SMOOTH",
"264 400 OFFCURVE",
"253 403 OFFCURVE",
"231 403 CURVE SMOOTH",
"208 403 OFFCURVE",
"195 400 OFFCURVE",
"191 381 CURVE SMOOTH"
);
},
{
closed = 1;
nodes = (
"605 201 LINE SMOOTH",
"629 201 OFFCURVE",
"636 210 OFFCURVE",
"636 218 CURVE SMOOTH",
"636 245 OFFCURVE",
"580 262 OFFCURVE",
"546 262 CURVE SMOOTH",
"491 262 LINE SMOOTH",
"480 262 OFFCURVE",
"474 267 OFFCURVE",
"474 277 CURVE SMOOTH",
"474 282 LINE",
"498 388 LINE",
"498 400 OFFCURVE",
"487 403 OFFCURVE",
"465 403 CURVE SMOOTH",
"442 403 OFFCURVE",
"429 400 OFFCURVE",
"425 381 CURVE SMOOTH",
"389 221 LINE",
"388 214 LINE",
"388 205 OFFCURVE",
"394 201 OFFCURVE",
"404 201 CURVE SMOOTH"
);
},
{
closed = 1;
nodes = (
"9 260 LINE SMOOTH",
"-13 260 OFFCURVE",
"-20 254 OFFCURVE",
"-20 245 CURVE SMOOTH",
"-20 217 OFFCURVE",
"36 201 OFFCURVE",
"71 201 CURVE SMOOTH",
"94 201 LINE SMOOTH",
"122 201 OFFCURVE",
"132 226 OFFCURVE",
"132 248 CURVE SMOOTH",
"132 255 OFFCURVE",
"128 260 OFFCURVE",
"120 260 CURVE SMOOTH"
);
},
{
closed = 1;
nodes = (
"109 21 LINE",
"108 18 OFFCURVE",
"108 15 OFFCURVE",
"108 13 CURVE SMOOTH",
"108 1 OFFCURVE",
"115 -5 OFFCURVE",
"124 -5 CURVE SMOOTH",
"151 -5 OFFCURVE",
"184 40 OFFCURVE",
"192 72 CURVE SMOOTH",
"211 150 LINE",
"211 152 OFFCURVE",
"212 154 OFFCURVE",
"212 156 CURVE SMOOTH",
"212 168 OFFCURVE",
"201 172 OFFCURVE",
"179 172 CURVE SMOOTH",
"155 172 OFFCURVE",
"144 169 OFFCURVE",
"139 150 CURVE SMOOTH"
);
},
{
closed = 1;
nodes = (
"343 20 LINE",
"343 17 OFFCURVE",
"342 15 OFFCURVE",
"342 12 CURVE SMOOTH",
"342 1 OFFCURVE",
"349 -5 OFFCURVE",
"358 -5 CURVE SMOOTH",
"385 -5 OFFCURVE",
"418 40 OFFCURVE",
"426 72 CURVE SMOOTH",
"445 150 LINE",
"446 157 LINE",
"446 168 OFFCURVE",
"435 172 OFFCURVE",
"413 172 CURVE SMOOTH",
"390 172 OFFCURVE",
"377 169 OFFCURVE",
"373 150 CURVE SMOOTH"
);
}
);
width = 684;
}
);
unicode = 0023;
},
{
glyphname = period;
layers = (
{
layerId = UUID0;
paths = (
{
closed = 1;
nodes = (
"163 134 LINE SMOOTH",
"163 148 OFFCURVE",
"157 155 OFFCURVE",
"146 155 CURVE SMOOTH",
"127 155 OFFCURVE",
"92 135 OFFCURVE",
"75 115 CURVE SMOOTH",
"67 105 OFFCURVE",
"65 92 OFFCURVE",
"65 82 CURVE SMOOTH",
"65 16 LINE SMOOTH",
"65 2 OFFCURVE",
"71 -5 OFFCURVE",
"82 -5 CURVE SMOOTH",
"100 -5 OFFCURVE",
"136 12 OFFCURVE",
"153 32 CURVE SMOOTH",
"162 43 OFFCURVE",
"163 55 OFFCURVE",
"163 68 CURVE SMOOTH"
);
}
);
width = 228;
}
);
unicode = 002E;
},
{
glyphname = question;
layers = (
{
layerId = UUID0;
paths = (
{
closed = 1;
nodes = (
"182 201 OFFCURVE",
"188 194 OFFCURVE",
"199 194 CURVE SMOOTH",
"217 194 OFFCURVE",
"253 211 OFFCURVE",
"270 231 CURVE SMOOTH",
"279 242 OFFCURVE",
"280 254 OFFCURVE",
"280 267 CURVE SMOOTH",
"280 392 OFFCURVE",
"411 410 OFFCURVE",
"411 535 CURVE SMOOTH",
"411 647 OFFCURVE",
"332 700 OFFCURVE",
"223 700 CURVE SMOOTH",
"139 700 OFFCURVE",
"61 651 OFFCURVE",
"29 556 CURVE SMOOTH",
"28 553 OFFCURVE",
"24 539 OFFCURVE",
"24 528 CURVE SMOOTH",
"24 521 OFFCURVE",
"26 513 OFFCURVE",
"34 513 CURVE SMOOTH",
"41 513 OFFCURVE",
"47 520 OFFCURVE",
"59 540 CURVE SMOOTH",
"95 597 OFFCURVE",
"147 623 OFFCURVE",
"196 623 CURVE SMOOTH",
"262 623 OFFCURVE",
"313 590 OFFCURVE",
"313 515 CURVE SMOOTH",
"313 404 OFFCURVE",
"182 364 OFFCURVE",
"182 215 CURVE SMOOTH"
);
},
{
closed = 1;
nodes = (
"279 134 LINE SMOOTH",
"279 148 OFFCURVE",
"273 155 OFFCURVE",
"262 155 CURVE SMOOTH",
"243 155 OFFCURVE",
"208 135 OFFCURVE",
"191 115 CURVE SMOOTH",
"183 105 OFFCURVE",
"181 92 OFFCURVE",
"181 82 CURVE SMOOTH",
"181 16 LINE SMOOTH",
"181 2 OFFCURVE",
"188 -5 OFFCURVE",
"198 -5 CURVE SMOOTH",
"216 -5 OFFCURVE",
"252 12 OFFCURVE",
"269 32 CURVE SMOOTH",
"278 43 OFFCURVE",
"279 55 OFFCURVE",
"279 68 CURVE SMOOTH"
);
}
);
width = 428;
}
);
unicode = 003F;
},
{
glyphname = questiondown;
layers = (
{
layerId = UUID0;
paths = (
{
closed = 1;
nodes = (
"149 376 LINE SMOOTH",
"149 362 OFFCURVE",
"155 355 OFFCURVE",
"166 355 CURVE SMOOTH",
"185 355 OFFCURVE",
"220 375 OFFCURVE",
"237 395 CURVE SMOOTH",
"245 405 OFFCURVE",
"247 418 OFFCURVE",
"247 428 CURVE SMOOTH",
"247 494 LINE SMOOTH",
"247 508 OFFCURVE",
"241 515 OFFCURVE",
"230 515 CURVE SMOOTH",
"212 515 OFFCURVE",
"176 498 OFFCURVE",
"159 478 CURVE SMOOTH",
"150 467 OFFCURVE",
"149 455 OFFCURVE",
"149 442 CURVE SMOOTH"
);
},
{
closed = 1;
nodes = (
"246 309 OFFCURVE",
"240 316 OFFCURVE",
"229 316 CURVE SMOOTH",
"211 316 OFFCURVE",
"175 299 OFFCURVE",
"158 279 CURVE SMOOTH",
"149 268 OFFCURVE",
"148 256 OFFCURVE",
"148 243 CURVE SMOOTH",
"148 118 OFFCURVE",
"17 100 OFFCURVE",
"17 -25 CURVE SMOOTH",
"17 -137 OFFCURVE",
"96 -190 OFFCURVE",
"205 -190 CURVE SMOOTH",
"289 -190 OFFCURVE",
"367 -141 OFFCURVE",
"399 -46 CURVE SMOOTH",
"400 -43 OFFCURVE",
"404 -29 OFFCURVE",
"404 -18 CURVE SMOOTH",
"404 -11 OFFCURVE",
"402 -3 OFFCURVE",
"394 -3 CURVE SMOOTH",
"387 -3 OFFCURVE",
"381 -10 OFFCURVE",
"369 -30 CURVE SMOOTH",
"333 -87 OFFCURVE",
"281 -113 OFFCURVE",
"232 -113 CURVE SMOOTH",
"166 -113 OFFCURVE",
"115 -80 OFFCURVE",
"115 -5 CURVE SMOOTH",
"115 106 OFFCURVE",
"246 146 OFFCURVE",
"246 295 CURVE SMOOTH"
);
}
);
width = 431;
}
);
unicode = 00BF;
},
{
glyphname = quotedbl;
layers = (
{
layerId = UUID0;
paths = (
{
closed = 1;
nodes = (
"146 732 LINE SMOOTH",
"146 744 OFFCURVE",
"140 750 OFFCURVE",
"131 750 CURVE SMOOTH",
"118 750 OFFCURVE",
"91 737 OFFCURVE",
"76 717 CURVE",
"68 708 OFFCURVE",
"65 697 OFFCURVE",
"65 687 CURVE",
"71 536 LINE",
"73 522 OFFCURVE",
"77 515 OFFCURVE",
"87 515 CURVE SMOOTH",
"99 515 OFFCURVE",
"115 527 OFFCURVE",
"131 547 CURVE SMOOTH",
"140 559 OFFCURVE",
"142 570 OFFCURVE",
"142 590 CURVE SMOOTH"
);
},
{
closed = 1;
nodes = (
"276 732 LINE",
"276 744 OFFCURVE",
"270 750 OFFCURVE",
"261 750 CURVE SMOOTH",
"248 750 OFFCURVE",
"221 737 OFFCURVE",
"206 717 CURVE",
"198 708 OFFCURVE",
"195 697 OFFCURVE",
"195 687 CURVE",
"201 536 LINE",
"203 522 OFFCURVE",
"207 515 OFFCURVE",
"217 515 CURVE SMOOTH",
"229 515 OFFCURVE",
"245 527 OFFCURVE",
"261 547 CURVE SMOOTH",
"270 559 OFFCURVE",
"271 570 OFFCURVE",
"271 590 CURVE"
);
}
);
width = 341;
}
);
unicode = 0022;
},
{
glyphname = quotesingle;
layers = (
{
layerId = UUID0;
paths = (
{
closed = 1;
nodes = (
"153 732 LINE",
"153 744 OFFCURVE",
"146 750 OFFCURVE",
"136 750 CURVE SMOOTH",
"122 750 OFFCURVE",
"93 737 OFFCURVE",
"76 717 CURVE SMOOTH",
"68 708 OFFCURVE",
"65 697 OFFCURVE",
"65 687 CURVE",
"72 536 LINE SMOOTH",
"73 522 OFFCURVE",
"78 515 OFFCURVE",
"89 515 CURVE SMOOTH",
"102 515 OFFCURVE",
"119 527 OFFCURVE",
"136 547 CURVE SMOOTH",
"146 559 OFFCURVE",
"148 570 OFFCURVE",
"148 590 CURVE"
);
}
);
width = 218;
}
);
unicode = 0027;
},
{
glyphname = semicolon;
layers = (
{
layerId = UUID0;
paths = (
{
closed = 1;
nodes = (
"232 494 LINE SMOOTH",
"232 508 OFFCURVE",
"226 515 OFFCURVE",
"215 515 CURVE SMOOTH",
"196 515 OFFCURVE",
"161 495 OFFCURVE",
"144 475 CURVE SMOOTH",
"136 465 OFFCURVE",
"134 452 OFFCURVE",
"134 442 CURVE SMOOTH",
"134 376 LINE SMOOTH",
"134 362 OFFCURVE",
"140 355 OFFCURVE",
"151 355 CURVE SMOOTH",
"169 355 OFFCURVE",
"205 372 OFFCURVE",
"222 392 CURVE SMOOTH",
"231 403 OFFCURVE",
"232 415 OFFCURVE",
"232 428 CURVE SMOOTH"
);
},
{
closed = 1;
nodes = (
"219 114 LINE SMOOTH",
"226 131 OFFCURVE",
"226 136 OFFCURVE",
"226 138 CURVE SMOOTH",
"226 149 OFFCURVE",
"219 155 OFFCURVE",
"209 155 CURVE SMOOTH",
"191 155 OFFCURVE",
"152 135 OFFCURVE",
"136 115 CURVE SMOOTH",
"128 105 OFFCURVE",
"124 92 OFFCURVE",
"121 82 CURVE SMOOTH",
"75 -83 LINE SMOOTH",
"65 -116 OFFCURVE",
"65 -117 OFFCURVE",
"65 -122 CURVE SMOOTH",
"65 -132 OFFCURVE",
"73 -136 OFFCURVE",
"82 -136 CURVE SMOOTH",
"109 -136 OFFCURVE",
"136 -99 OFFCURVE",
"152 -62 CURVE"
);
}
);
width = 299;
}
);
unicode = 003B;
},
{
glyphname = slash;
layers = (
{
layerId = UUID0;
paths = (
{
closed = 1;
nodes = (
"358 739 OFFCURVE",
"341 725 OFFCURVE",
"329 701 CURVE",
"-38 32 LINE",
"-45 18 OFFCURVE",
"-49 11 OFFCURVE",
"-49 5 CURVE SMOOTH",
"-49 -1 OFFCURVE",
"-44 -5 OFFCURVE",
"-37 -5 CURVE SMOOTH",
"-4 -5 OFFCURVE",
"40 9 OFFCURVE",
"51 31 CURVE",
"430 718 LINE",
"436 727 OFFCURVE",
"438 734 OFFCURVE",
"438 738 CURVE SMOOTH",
"438 745 OFFCURVE",
"434 750 OFFCURVE",
"424 750 CURVE SMOOTH",
"416 750 OFFCURVE",
"400 748 OFFCURVE",
"386 745 CURVE SMOOTH"
);
}
);
width = 389;
}
);
unicode = 002F;
},
{
glyphname = underscore;
layers = (
{
layerId = UUID0;
paths = (
{
closed = 1;
nodes = (
"651 -134 LINE SMOOTH",
"664 -134 OFFCURVE",
"679 -133 OFFCURVE",
"689 -124 CURVE SMOOTH",
"709 -106 OFFCURVE",
"720 -92 OFFCURVE",
"720 -85 CURVE SMOOTH",
"720 -74 OFFCURVE",
"713 -70 OFFCURVE",
"699 -70 CURVE SMOOTH",
"149 -70 LINE SMOOTH",
"136 -70 OFFCURVE",
"121 -71 OFFCURVE",
"111 -80 CURVE SMOOTH",
"91 -98 OFFCURVE",
"80 -112 OFFCURVE",
"80 -119 CURVE SMOOTH",
"80 -130 OFFCURVE",
"87 -134 OFFCURVE",
"101 -134 CURVE SMOOTH"
);
}
);
width = 800;
}
);
unicode = 005F;
},
{
glyphname = braceleft;
layers = (
{
layerId = UUID0;
paths = (
{
closed = 1;
nodes = (
"349 -293 LINE SMOOTH",
"362 -293 OFFCURVE",
"378 -292 OFFCURVE",
"388 -284 CURVE",
"408 -266 OFFCURVE",
"418 -251 OFFCURVE",
"418 -245 CURVE SMOOTH",
"418 -234 OFFCURVE",
"411 -229 OFFCURVE",
"397 -229 CURVE SMOOTH",
"345 -229 LINE SMOOTH",
"264 -229 OFFCURVE",
"256 -193 OFFCURVE",
"256 -127 CURVE SMOOTH",
"256 -124 OFFCURVE",
"257 -86 OFFCURVE",
"257 34 CURVE SMOOTH",
"257 116 OFFCURVE",
"207 222 OFFCURVE",
"121 228 CURVE",
"121 229 LINE",
"206 234 OFFCURVE",
"257 338 OFFCURVE",
"257 422 CURVE",
"256 589 LINE",
"256 652 OFFCURVE",
"256 686 OFFCURVE",
"335 686 CURVE SMOOTH",
"339 686 LINE SMOOTH",
"352 686 OFFCURVE",
"368 687 OFFCURVE",
"378 696 CURVE SMOOTH",
"398 714 OFFCURVE",
"408 728 OFFCURVE",
"408 735 CURVE SMOOTH",
"408 746 OFFCURVE",
"401 750 OFFCURVE",
"387 750 CURVE SMOOTH",
"306 750 LINE SMOOTH",
"197 750 OFFCURVE",
"152 695 OFFCURVE",
"152 567 CURVE SMOOTH",
"153 351 LINE SMOOTH",
"153 283 OFFCURVE",
"139 259 OFFCURVE",
"78 259 CURVE SMOOTH",
"69 259 LINE SMOOTH",
"22 259 OFFCURVE",
"0 218 OFFCURVE",
"0 211 CURVE SMOOTH",
"0 201 OFFCURVE",
"7 197 OFFCURVE",
"21 197 CURVE SMOOTH",
"78 197 LINE SMOOTH",
"139 197 OFFCURVE",
"153 174 OFFCURVE",
"153 105 CURVE SMOOTH",
"153 53 OFFCURVE",
"157 -51 OFFCURVE",
"157 -110 CURVE SMOOTH",
"157 -238 OFFCURVE",
"207 -293 OFFCURVE",
"316 -293 CURVE SMOOTH"
);
}
);
width = 418;
}
);
unicode = 007B;
},
{
glyphname = braceright;
layers = (
{
layerId = UUID0;
paths = (
{
closed = 1;
nodes = (
"69 750 LINE SMOOTH",
"56 750 OFFCURVE",
"40 749 OFFCURVE",
"30 740 CURVE SMOOTH",
"10 722 OFFCURVE",
"0 708 OFFCURVE",
"0 701 CURVE SMOOTH",
"0 690 OFFCURVE",
"7 686 OFFCURVE",
"21 686 CURVE SMOOTH",
"73 686 LINE SMOOTH",
"154 686 OFFCURVE",
"162 650 OFFCURVE",
"162 583 CURVE SMOOTH",
"162 581 OFFCURVE",
"161 542 OFFCURVE",
"161 422 CURVE SMOOTH",
"161 341 OFFCURVE",
"211 234 OFFCURVE",
"297 229 CURVE",
"297 228 LINE",
"212 222 OFFCURVE",
"161 118 OFFCURVE",
"161 34 CURVE SMOOTH",
"162 -133 LINE SMOOTH",
"162 -196 OFFCURVE",
"162 -229 OFFCURVE",
"83 -229 CURVE SMOOTH",
"79 -229 LINE SMOOTH",
"66 -229 OFFCURVE",
"50 -230 OFFCURVE",
"40 -239 CURVE SMOOTH",
"20 -257 OFFCURVE",
"10 -271 OFFCURVE",
"10 -278 CURVE SMOOTH",
"10 -289 OFFCURVE",
"17 -293 OFFCURVE",
"31 -293 CURVE SMOOTH",
"112 -293 LINE SMOOTH",
"221 -293 OFFCURVE",
"266 -239 OFFCURVE",
"266 -111 CURVE",
"265 105 LINE",
"265 174 OFFCURVE",
"279 197 OFFCURVE",
"340 197 CURVE SMOOTH",
"349 197 LINE SMOOTH",
"396 197 OFFCURVE",
"418 238 OFFCURVE",
"418 245 CURVE SMOOTH",
"418 256 OFFCURVE",
"411 260 OFFCURVE",
"397 260 CURVE SMOOTH",
"340 260 LINE SMOOTH",
"279 260 OFFCURVE",
"265 283 OFFCURVE",
"265 351 CURVE SMOOTH",
"265 404 OFFCURVE",
"261 508 OFFCURVE",
"261 567 CURVE SMOOTH",
"261 695 OFFCURVE",
"211 750 OFFCURVE",
"102 750 CURVE SMOOTH"
);
}
);
width = 418;
}
);
unicode = 007D;
},
{
glyphname = bracketleft;
layers = (
{
layerId = UUID0;
paths = (
{
closed = 1;
nodes = (
"114 750 LINE SMOOTH",
"102 750 OFFCURVE",
"91 749 OFFCURVE",
"82 741 CURVE SMOOTH",
"66 727 OFFCURVE",
"50 705 OFFCURVE",
"50 693 CURVE SMOOTH",
"50 683 OFFCURVE",
"56 680 OFFCURVE",
"69 680 CURVE SMOOTH",
"271 680 LINE SMOOTH",
"283 680 OFFCURVE",
"298 681 OFFCURVE",
"309 690 CURVE",
"329 708 OFFCURVE",
"339 728 OFFCURVE",
"339 735 CURVE SMOOTH",
"339 746 OFFCURVE",
"333 750 OFFCURVE",
"318 750 CURVE SMOOTH"
);
},
{
closed = 1;
nodes = (
"148 621 LINE SMOOTH",
"148 646 OFFCURVE",
"133 650 OFFCURVE",
"99 650 CURVE SMOOTH",
"69 650 OFFCURVE",
"50 646 OFFCURVE",
"50 621 CURVE SMOOTH",
"50 -263 LINE SMOOTH",
"50 -282 OFFCURVE",
"57 -295 OFFCURVE",
"77 -295 CURVE SMOOTH",
"282 -295 LINE SMOOTH",
"292 -295 OFFCURVE",
"301 -291 OFFCURVE",
"309 -285 CURVE",
"329 -267 OFFCURVE",
"339 -247 OFFCURVE",
"339 -239 CURVE SMOOTH",
"339 -229 OFFCURVE",
"333 -225 OFFCURVE",
"318 -225 CURVE SMOOTH",
"178 -225 LINE SMOOTH",
"158 -225 OFFCURVE",
"148 -213 OFFCURVE",
"148 -193 CURVE SMOOTH"
);
}
);
width = 339;
}
);
unicode = 005B;
},
{
glyphname = bracketright;
layers = (
{
layerId = UUID0;
paths = (
{
closed = 1;
nodes = (
"191 -266 LINE SMOOTH",
"191 -286 OFFCURVE",
"201 -295 OFFCURVE",
"216 -295 CURVE SMOOTH",
"228 -295 OFFCURVE",
"249 -292 OFFCURVE",
"271 -266 CURVE",
"282 -252 OFFCURVE",
"289 -240 OFFCURVE",
"289 -225 CURVE SMOOTH",
"289 718 LINE SMOOTH",
"289 738 OFFCURVE",
"279 750 OFFCURVE",
"259 750 CURVE SMOOTH",
"57 750 LINE SMOOTH",
"47 750 OFFCURVE",
"38 746 OFFCURVE",
"30 740 CURVE",
"10 722 OFFCURVE",
"0 702 OFFCURVE",
"0 694 CURVE SMOOTH",
"0 684 OFFCURVE",
"6 680 OFFCURVE",
"21 680 CURVE SMOOTH",
"161 680 LINE SMOOTH",
"181 680 OFFCURVE",
"191 668 OFFCURVE",
"191 648 CURVE SMOOTH"
);
},
{
closed = 1;
nodes = (
"138 -295 LINE SMOOTH",
"159 -295 OFFCURVE",
"162 -288 OFFCURVE",
"162 -259 CURVE SMOOTH",
"162 -235 OFFCURVE",
"159 -225 OFFCURVE",
"138 -225 CURVE SMOOTH",
"68 -225 LINE SMOOTH",
"56 -225 OFFCURVE",
"41 -226 OFFCURVE",
"30 -235 CURVE",
"10 -253 OFFCURVE",
"0 -273 OFFCURVE",
"0 -280 CURVE SMOOTH",
"0 -291 OFFCURVE",
"6 -295 OFFCURVE",
"21 -295 CURVE SMOOTH"
);
}
);
width = 339;
}
);
unicode = 005D;
},
{
glyphname = parenleft;
layers = (
{
layerId = UUID0;
paths = (
{
closed = 1;
nodes = (
"212 404 OFFCURVE",
"244 591 OFFCURVE",
"313 702 CURVE SMOOTH",
"326 722 OFFCURVE",
"332 733 OFFCURVE",
"332 740 CURVE SMOOTH",
"332 745 OFFCURVE",
"329 750 OFFCURVE",
"321 750 CURVE SMOOTH",
"294 750 OFFCURVE",
"255 713 OFFCURVE",
"218 660 CURVE SMOOTH",
"165 585 OFFCURVE",
"95 421 OFFCURVE",
"95 228 CURVE SMOOTH",
"95 35 OFFCURVE",
"165 -130 OFFCURVE",
"218 -205 CURVE SMOOTH",
"255 -258 OFFCURVE",
"294 -295 OFFCURVE",
"321 -295 CURVE SMOOTH",
"329 -295 OFFCURVE",
"332 -290 OFFCURVE",
"332 -285 CURVE SMOOTH",
"332 -278 OFFCURVE",
"326 -265 OFFCURVE",
"313 -245 CURVE SMOOTH",
"244 -134 OFFCURVE",
"212 54 OFFCURVE",
"212 229 CURVE SMOOTH"
);
}
);
width = 392;
}
);
unicode = 0028;
},
{
glyphname = parenright;
layers = (
{
layerId = UUID0;
paths = (
{
closed = 1;
nodes = (
"180 51 OFFCURVE",
"148 -136 OFFCURVE",
"80 -247 CURVE",
"66 -267 OFFCURVE",
"60 -278 OFFCURVE",
"60 -285 CURVE SMOOTH",
"60 -290 OFFCURVE",
"63 -295 OFFCURVE",
"71 -295 CURVE SMOOTH",
"98 -295 OFFCURVE",
"137 -258 OFFCURVE",
"174 -205 CURVE SMOOTH",
"227 -130 OFFCURVE",
"297 34 OFFCURVE",
"297 228 CURVE SMOOTH",
"297 420 OFFCURVE",
"227 585 OFFCURVE",
"174 660 CURVE SMOOTH",
"137 713 OFFCURVE",
"98 750 OFFCURVE",
"71 750 CURVE SMOOTH",
"63 750 OFFCURVE",
"60 745 OFFCURVE",
"60 740 CURVE SMOOTH",
"60 733 OFFCURVE",
"66 720 OFFCURVE",
"80 700 CURVE",
"148 589 OFFCURVE",
"180 401 OFFCURVE",
"180 227 CURVE SMOOTH"
);
}
);
width = 392;
}
);
unicode = 0029;
},
{
glyphname = emdash;
layers = (
{
layerId = UUID0;
paths = (
{
closed = 1;
nodes = (
"692 289 LINE SMOOTH",
"706 289 OFFCURVE",
"721 290 OFFCURVE",
"730 299 CURVE",
"750 317 OFFCURVE",
"762 335 OFFCURVE",
"762 342 CURVE SMOOTH",
"762 353 OFFCURVE",
"754 357 OFFCURVE",
"741 357 CURVE SMOOTH",
"149 357 LINE SMOOTH",
"136 357 OFFCURVE",
"121 356 OFFCURVE",
"111 347 CURVE SMOOTH",
"91 329 OFFCURVE",
"80 311 OFFCURVE",
"80 304 CURVE SMOOTH",
"80 293 OFFCURVE",
"87 289 OFFCURVE",
"101 289 CURVE SMOOTH"
);
}
);
width = 841;
}
);
unicode = 2014;
},
{
glyphname = endash;
layers = (
{
layerId = UUID0;
paths = (
{
closed = 1;
nodes = (
"497 289 LINE SMOOTH",
"510 289 OFFCURVE",
"525 290 OFFCURVE",
"535 299 CURVE SMOOTH",
"555 317 OFFCURVE",
"566 335 OFFCURVE",
"566 342 CURVE SMOOTH",
"566 353 OFFCURVE",
"559 357 OFFCURVE",
"545 357 CURVE SMOOTH",
"149 357 LINE SMOOTH",
"136 357 OFFCURVE",
"121 356 OFFCURVE",
"111 347 CURVE SMOOTH",
"91 329 OFFCURVE",
"80 311 OFFCURVE",
"80 304 CURVE SMOOTH",
"80 293 OFFCURVE",
"87 289 OFFCURVE",
"101 289 CURVE SMOOTH"
);
}
);
width = 646;
}
);
unicode = 2013;
},
{
glyphname = hyphen;
layers = (
{
layerId = UUID0;
paths = (
{
closed = 1;
nodes = (
"361 260 LINE SMOOTH",
"374 260 OFFCURVE",
"387 261 OFFCURVE",
"397 270 CURVE SMOOTH",
"417 288 OFFCURVE",
"430 313 OFFCURVE",
"430 320 CURVE SMOOTH",
"430 331 OFFCURVE",
"423 335 OFFCURVE",
"409 335 CURVE SMOOTH",
"149 335 LINE SMOOTH",
"136 335 OFFCURVE",
"123 334 OFFCURVE",
"113 325 CURVE SMOOTH",
"93 307 OFFCURVE",
"80 282 OFFCURVE",
"80 275 CURVE SMOOTH",
"80 264 OFFCURVE",
"87 260 OFFCURVE",
"101 260 CURVE SMOOTH"
);
}
);
width = 510;
}
);
unicode = 002D;
},
{
glyphname = softhyphen;
layers = (
{
layerId = UUID0;
paths = (
{
closed = 1;
nodes = (
"361 260 LINE SMOOTH",
"374 260 OFFCURVE",
"387 261 OFFCURVE",
"397 270 CURVE SMOOTH",
"417 288 OFFCURVE",
"430 313 OFFCURVE",
"430 320 CURVE SMOOTH",
"430 331 OFFCURVE",
"423 335 OFFCURVE",
"409 335 CURVE SMOOTH",
"149 335 LINE SMOOTH",
"136 335 OFFCURVE",
"123 334 OFFCURVE",
"113 325 CURVE SMOOTH",
"93 307 OFFCURVE",
"80 282 OFFCURVE",
"80 275 CURVE SMOOTH",
"80 264 OFFCURVE",
"87 260 OFFCURVE",
"101 260 CURVE SMOOTH"
);
}
);
width = 510;
}
);
unicode = 00AD;
},
{
glyphname = guillemetleft;
layers = (
{
layerId = UUID0;
paths = (
{
closed = 1;
nodes = (
"344 438 LINE",
"359 447 OFFCURVE",
"381 470 OFFCURVE",
"394 494 CURVE",
"407 521 OFFCURVE",
"408 544 OFFCURVE",
"408 547 CURVE SMOOTH",
"408 557 OFFCURVE",
"403 562 OFFCURVE",
"395 562 CURVE SMOOTH",
"392 562 OFFCURVE",
"384 562 OFFCURVE",
"372 553 CURVE SMOOTH",
"116 372 LINE SMOOTH",
"90 354 OFFCURVE",
"44 299 OFFCURVE",
"44 266 CURVE SMOOTH",
"44 257 OFFCURVE",
"48 250 OFFCURVE",
"56 250 CURVE SMOOTH",
"66 250 OFFCURVE",
"74 255 OFFCURVE",
"84 261 CURVE"
);
},
{
closed = 1;
nodes = (
"544 387 LINE SMOOTH",
"557 394 OFFCURVE",
"571 405 OFFCURVE",
"582 426 CURVE",
"591 447 OFFCURVE",
"596 476 OFFCURVE",
"596 479 CURVE SMOOTH",
"596 485 OFFCURVE",
"592 490 OFFCURVE",
"585 490 CURVE SMOOTH",
"583 490 OFFCURVE",
"579 489 OFFCURVE",
"567 483 CURVE",
"372 371 LINE SMOOTH",
"338 352 OFFCURVE",
"305 308 OFFCURVE",
"305 278 CURVE SMOOTH",
"305 273 OFFCURVE",
"308 268 OFFCURVE",
"314 268 CURVE SMOOTH",
"319 268 OFFCURVE",
"328 271 OFFCURVE",
"336 275 CURVE SMOOTH"
);
},
{
closed = 1;
nodes = (
"428 266 LINE",
"418 272 OFFCURVE",
"410 274 OFFCURVE",
"403 274 CURVE SMOOTH",
"380 274 OFFCURVE",
"338 248 OFFCURVE",
"338 233 CURVE SMOOTH",
"338 228 OFFCURVE",
"340 224 OFFCURVE",
"348 219 CURVE SMOOTH",
"541 91 LINE",
"545 88 OFFCURVE",
"550 85 OFFCURVE",
"557 85 CURVE SMOOTH",
"577 85 OFFCURVE",
"603 125 OFFCURVE",
"603 138 CURVE SMOOTH",
"603 147 OFFCURVE",
"598 152 OFFCURVE",
"588 158 CURVE"
);
},
{
closed = 1;
nodes = (
"181 249 LINE",
"171 256 OFFCURVE",
"161 259 OFFCURVE",
"152 259 CURVE SMOOTH",
"129 259 OFFCURVE",
"90 233 OFFCURVE",
"90 216 CURVE SMOOTH",
"90 210 OFFCURVE",
"94 205 OFFCURVE",
"103 197 CURVE",
"342 5 LINE SMOOTH",
"347 1 OFFCURVE",
"354 -4 OFFCURVE",
"363 -4 CURVE SMOOTH",
"385 -4 OFFCURVE",
"411 40 OFFCURVE",
"411 56 CURVE SMOOTH",
"411 67 OFFCURVE",
"404 76 OFFCURVE",
"393 84 CURVE SMOOTH"
);
}
);
width = 676;
}
);
unicode = 00AB;
},
{
glyphname = guillemetright;
layers = (
{
layerId = UUID0;
paths = (
{
closed = 1;
nodes = (
"574 250 LINE SMOOTH",
"584 242 OFFCURVE",
"594 239 OFFCURVE",
"603 239 CURVE SMOOTH",
"626 239 OFFCURVE",
"661 259 OFFCURVE",
"661 276 CURVE SMOOTH",
"661 282 OFFCURVE",
"657 290 OFFCURVE",
"648 297 CURVE SMOOTH",
"333 553 LINE SMOOTH",
"328 557 OFFCURVE",
"321 562 OFFCURVE",
"312 562 CURVE SMOOTH",
"289 562 OFFCURVE",
"263 525 OFFCURVE",
"263 509 CURVE SMOOTH",
"263 498 OFFCURVE",
"270 489 OFFCURVE",
"281 480 CURVE SMOOTH"
);
},
{
closed = 1;
nodes = (
"323 248 LINE",
"333 241 OFFCURVE",
"340 239 OFFCURVE",
"348 239 CURVE SMOOTH",
"368 239 OFFCURVE",
"408 260 OFFCURVE",
"408 276 CURVE SMOOTH",
"408 281 OFFCURVE",
"406 286 OFFCURVE",
"398 291 CURVE SMOOTH",
"142 461 LINE SMOOTH",
"128 471 OFFCURVE",
"123 474 OFFCURVE",
"116 474 CURVE SMOOTH",
"96 474 OFFCURVE",
"73 433 OFFCURVE",
"73 420 CURVE SMOOTH",
"73 411 OFFCURVE",
"78 406 OFFCURVE",
"87 400 CURVE SMOOTH"
);
},
{
closed = 1;
nodes = (
"536 244 OFFCURVE",
"529 248 OFFCURVE",
"520 248 CURVE SMOOTH",
"509 248 OFFCURVE",
"497 242 OFFCURVE",
"484 233 CURVE SMOOTH",
"329 123 LINE SMOOTH",
"314 112 OFFCURVE",
"292 90 OFFCURVE",
"280 66 CURVE SMOOTH",
"267 40 OFFCURVE",
"265 13 OFFCURVE",
"265 9 CURVE SMOOTH",
"265 0 OFFCURVE",
"270 -4 OFFCURVE",
"279 -4 CURVE SMOOTH",
"282 -4 OFFCURVE",
"289 -3 OFFCURVE",
"301 5 CURVE SMOOTH",
"553 184 LINE",
"562 191 OFFCURVE",
"565 198 OFFCURVE",
"565 205 CURVE SMOOTH",
"565 217 OFFCURVE",
"555 227 OFFCURVE",
"549 232 CURVE"
);
},
{
closed = 1;
nodes = (
"130 171 LINE SMOOTH",
"117 164 OFFCURVE",
"103 153 OFFCURVE",
"92 132 CURVE",
"81 108 OFFCURVE",
"78 84 OFFCURVE",
"78 80 CURVE SMOOTH",
"78 73 OFFCURVE",
"81 69 OFFCURVE",
"88 69 CURVE SMOOTH",
"90 69 OFFCURVE",
"96 69 OFFCURVE",
"106 75 CURVE SMOOTH",
"304 188 LINE",
"315 195 OFFCURVE",
"320 202 OFFCURVE",
"320 208 CURVE SMOOTH",
"320 225 OFFCURVE",
"292 241 OFFCURVE",
"271 241 CURVE SMOOTH",
"262 241 OFFCURVE",
"251 237 OFFCURVE",
"242 232 CURVE SMOOTH"
);
}
);
width = 705;
}
);
unicode = 00BB;
},
{
glyphname = guilsinglleft;
layers = (
{
layerId = UUID0;
paths = (
{
closed = 1;
nodes = (
"344 438 LINE SMOOTH",
"359 448 OFFCURVE",
"381 470 OFFCURVE",
"394 494 CURVE",
"407 521 OFFCURVE",
"409 547 OFFCURVE",
"409 551 CURVE SMOOTH",
"409 559 OFFCURVE",
"404 564 OFFCURVE",
"396 564 CURVE SMOOTH",
"393 564 OFFCURVE",
"386 564 OFFCURVE",
"372 555 CURVE",
"116 374 LINE SMOOTH",
"90 355 OFFCURVE",
"44 299 OFFCURVE",
"44 266 CURVE SMOOTH",
"44 257 OFFCURVE",
"48 250 OFFCURVE",
"56 250 CURVE SMOOTH",
"66 250 OFFCURVE",
"74 255 OFFCURVE",
"84 261 CURVE"
);
},
{
closed = 1;
nodes = (
"180 248 LINE SMOOTH",
"169 256 OFFCURVE",
"160 258 OFFCURVE",
"151 258 CURVE SMOOTH",
"128 258 OFFCURVE",
"90 233 OFFCURVE",
"90 216 CURVE SMOOTH",
"90 210 OFFCURVE",
"94 205 OFFCURVE",
"103 197 CURVE",
"342 5 LINE SMOOTH",
"347 1 OFFCURVE",
"354 -4 OFFCURVE",
"363 -4 CURVE SMOOTH",
"385 -4 OFFCURVE",
"411 43 OFFCURVE",
"411 59 CURVE SMOOTH",
"411 70 OFFCURVE",
"404 79 OFFCURVE",
"393 87 CURVE SMOOTH"
);
}
);
width = 484;
}
);
unicode = 2039;
},
{
glyphname = guilsinglright;
layers = (
{
layerId = UUID0;
paths = (
{
closed = 1;
nodes = (
"380 248 LINE SMOOTH",
"391 240 OFFCURVE",
"400 236 OFFCURVE",
"409 236 CURVE SMOOTH",
"432 236 OFFCURVE",
"472 259 OFFCURVE",
"472 276 CURVE SMOOTH",
"472 282 OFFCURVE",
"468 290 OFFCURVE",
"459 297 CURVE SMOOTH",
"142 555 LINE SMOOTH",
"137 559 OFFCURVE",
"130 564 OFFCURVE",
"121 564 CURVE SMOOTH",
"99 564 OFFCURVE",
"73 517 OFFCURVE",
"73 501 CURVE SMOOTH",
"73 490 OFFCURVE",
"80 481 OFFCURVE",
"91 473 CURVE SMOOTH"
);
},
{
closed = 1;
nodes = (
"342 242 OFFCURVE",
"335 245 OFFCURVE",
"326 245 CURVE SMOOTH",
"315 245 OFFCURVE",
"305 240 OFFCURVE",
"292 231 CURVE SMOOTH",
"140 123 LINE SMOOTH",
"125 113 OFFCURVE",
"103 90 OFFCURVE",
"90 66 CURVE SMOOTH",
"77 40 OFFCURVE",
"75 13 OFFCURVE",
"75 9 CURVE SMOOTH",
"75 1 OFFCURVE",
"80 -4 OFFCURVE",
"88 -4 CURVE SMOOTH",
"91 -4 OFFCURVE",
"97 -3 OFFCURVE",
"112 5 CURVE",
"359 182 LINE SMOOTH",
"368 188 OFFCURVE",
"372 196 OFFCURVE",
"372 203 CURVE SMOOTH",
"372 214 OFFCURVE",
"361 225 OFFCURVE",
"355 230 CURVE"
);
}
);
width = 516;
}
);
unicode = 203A;
},
{
glyphname = quotedblbase;
layers = (
{
layerId = UUID0;
paths = (
{
closed = 1;
nodes = (
"219 114 LINE SMOOTH",
"226 131 OFFCURVE",
"226 136 OFFCURVE",
"226 138 CURVE SMOOTH",
"226 149 OFFCURVE",
"219 155 OFFCURVE",
"209 155 CURVE SMOOTH",
"191 155 OFFCURVE",
"152 135 OFFCURVE",
"136 115 CURVE SMOOTH",
"128 105 OFFCURVE",
"124 92 OFFCURVE",
"121 82 CURVE SMOOTH",
"75 -83 LINE SMOOTH",
"65 -116 OFFCURVE",
"65 -117 OFFCURVE",
"65 -122 CURVE SMOOTH",
"65 -132 OFFCURVE",
"73 -136 OFFCURVE",
"82 -136 CURVE SMOOTH",
"109 -136 OFFCURVE",
"136 -99 OFFCURVE",
"152 -62 CURVE"
);
},
{
closed = 1;
nodes = (
"380 114 LINE SMOOTH",
"387 131 OFFCURVE",
"387 136 OFFCURVE",
"387 138 CURVE SMOOTH",
"387 149 OFFCURVE",
"380 155 OFFCURVE",
"371 155 CURVE SMOOTH",
"352 155 OFFCURVE",
"313 135 OFFCURVE",
"297 115 CURVE SMOOTH",
"289 105 OFFCURVE",
"285 92 OFFCURVE",
"282 82 CURVE SMOOTH",
"236 -83 LINE SMOOTH",
"227 -116 OFFCURVE",
"226 -117 OFFCURVE",
"226 -122 CURVE SMOOTH",
"226 -132 OFFCURVE",
"234 -136 OFFCURVE",
"243 -136 CURVE SMOOTH",
"270 -136 OFFCURVE",
"297 -99 OFFCURVE",
"313 -62 CURVE"
);
}
);
width = 452;
}
);
unicode = 201E;
},
{
glyphname = quotedblleft;
layers = (
{
layerId = UUID0;
paths = (
{
closed = 1;
nodes = (
"75 625 LINE SMOOTH",
"68 607 OFFCURVE",
"68 603 OFFCURVE",
"68 600 CURVE SMOOTH",
"68 589 OFFCURVE",
"75 583 OFFCURVE",
"84 583 CURVE SMOOTH",
"103 583 OFFCURVE",
"142 604 OFFCURVE",
"158 623 CURVE SMOOTH",
"166 633 OFFCURVE",
"170 646 OFFCURVE",
"173 656 CURVE SMOOTH",
"219 821 LINE SMOOTH",
"229 854 OFFCURVE",
"229 855 OFFCURVE",
"229 860 CURVE SMOOTH",
"229 870 OFFCURVE",
"221 875 OFFCURVE",
"212 875 CURVE SMOOTH",
"185 875 OFFCURVE",
"158 837 OFFCURVE",
"142 800 CURVE"
);
},
{
closed = 1;
nodes = (
"236 625 LINE SMOOTH",
"229 607 OFFCURVE",
"229 603 OFFCURVE",
"229 600 CURVE SMOOTH",
"229 589 OFFCURVE",
"236 583 OFFCURVE",
"246 583 CURVE SMOOTH",
"264 583 OFFCURVE",
"303 604 OFFCURVE",
"319 623 CURVE SMOOTH",
"327 633 OFFCURVE",
"331 646 OFFCURVE",
"334 656 CURVE SMOOTH",
"380 821 LINE SMOOTH",
"390 854 OFFCURVE",
"390 855 OFFCURVE",
"390 860 CURVE SMOOTH",
"390 870 OFFCURVE",
"382 875 OFFCURVE",
"373 875 CURVE SMOOTH",
"346 875 OFFCURVE",
"319 837 OFFCURVE",
"303 800 CURVE"
);
}
);
width = 454;
}
);
unicode = 201C;
},
{
glyphname = quotedblright;
layers = (
{
layerId = UUID0;
paths = (
{
closed = 1;
nodes = (
"220 833 LINE SMOOTH",
"227 851 OFFCURVE",
"227 855 OFFCURVE",
"227 858 CURVE SMOOTH",
"227 869 OFFCURVE",
"220 875 OFFCURVE",
"210 875 CURVE SMOOTH",
"192 875 OFFCURVE",
"153 854 OFFCURVE",
"137 835 CURVE SMOOTH",
"129 825 OFFCURVE",
"125 812 OFFCURVE",
"122 802 CURVE SMOOTH",
"76 637 LINE SMOOTH",
"66 604 OFFCURVE",
"66 603 OFFCURVE",
"66 598 CURVE SMOOTH",
"66 588 OFFCURVE",
"74 583 OFFCURVE",
"83 583 CURVE SMOOTH",
"110 583 OFFCURVE",
"137 621 OFFCURVE",
"153 658 CURVE"
);
},
{
closed = 1;
nodes = (
"381 833 LINE SMOOTH",
"388 851 OFFCURVE",
"388 855 OFFCURVE",
"388 858 CURVE SMOOTH",
"388 869 OFFCURVE",
"381 875 OFFCURVE",
"372 875 CURVE SMOOTH",
"353 875 OFFCURVE",
"314 854 OFFCURVE",
"298 835 CURVE SMOOTH",
"290 825 OFFCURVE",
"286 812 OFFCURVE",
"283 802 CURVE SMOOTH",
"237 637 LINE SMOOTH",
"228 604 OFFCURVE",
"227 603 OFFCURVE",
"227 598 CURVE SMOOTH",
"227 588 OFFCURVE",
"235 583 OFFCURVE",
"244 583 CURVE SMOOTH",
"271 583 OFFCURVE",
"298 621 OFFCURVE",
"314 658 CURVE"
);
}
);
width = 454;
}
);
unicode = 201D;
},
{
glyphname = quoteleft;
layers = (
{
layerId = UUID0;
paths = (
{
closed = 1;
nodes = (
"75 625 LINE SMOOTH",
"68 607 OFFCURVE",
"68 603 OFFCURVE",
"68 600 CURVE SMOOTH",
"68 589 OFFCURVE",
"75 583 OFFCURVE",
"84 583 CURVE SMOOTH",
"103 583 OFFCURVE",
"142 604 OFFCURVE",
"158 623 CURVE SMOOTH",
"166 633 OFFCURVE",
"170 646 OFFCURVE",
"173 656 CURVE SMOOTH",
"219 821 LINE SMOOTH",
"229 854 OFFCURVE",
"229 855 OFFCURVE",
"229 860 CURVE SMOOTH",
"229 870 OFFCURVE",
"221 875 OFFCURVE",
"212 875 CURVE SMOOTH",
"185 875 OFFCURVE",
"158 837 OFFCURVE",
"142 800 CURVE"
);
}
);
width = 293;
}
);
unicode = 2018;
},
{
glyphname = quoteright;
layers = (
{
layerId = UUID0;
paths = (
{
closed = 1;
nodes = (
"220 833 LINE SMOOTH",
"227 851 OFFCURVE",
"227 855 OFFCURVE",
"227 858 CURVE SMOOTH",
"227 869 OFFCURVE",
"220 875 OFFCURVE",
"210 875 CURVE SMOOTH",
"192 875 OFFCURVE",
"153 854 OFFCURVE",
"137 835 CURVE SMOOTH",
"129 825 OFFCURVE",
"125 812 OFFCURVE",
"122 802 CURVE SMOOTH",
"76 637 LINE SMOOTH",
"66 604 OFFCURVE",
"66 603 OFFCURVE",
"66 598 CURVE SMOOTH",
"66 588 OFFCURVE",
"74 583 OFFCURVE",
"83 583 CURVE SMOOTH",
"110 583 OFFCURVE",
"137 621 OFFCURVE",
"153 658 CURVE"
);
}
);
width = 293;
}
);
unicode = 2019;
},
{
glyphname = quotesinglbase;
layers = (
{
layerId = UUID0;
paths = (
{
closed = 1;
nodes = (
"219 114 LINE SMOOTH",
"226 131 OFFCURVE",
"226 136 OFFCURVE",
"226 138 CURVE SMOOTH",
"226 149 OFFCURVE",
"219 155 OFFCURVE",
"209 155 CURVE SMOOTH",
"191 155 OFFCURVE",
"152 135 OFFCURVE",
"136 115 CURVE SMOOTH",
"128 105 OFFCURVE",
"124 92 OFFCURVE",
"121 82 CURVE SMOOTH",
"75 -83 LINE SMOOTH",
"65 -116 OFFCURVE",
"65 -117 OFFCURVE",
"65 -122 CURVE SMOOTH",
"65 -132 OFFCURVE",
"73 -136 OFFCURVE",
"82 -136 CURVE SMOOTH",
"109 -136 OFFCURVE",
"136 -99 OFFCURVE",
"152 -62 CURVE"
);
}
);
width = 291;
}
);
unicode = 201A;
},
{
glyphname = .notdef;
layers = (
{
layerId = UUID0;
paths = (
{
closed = 1;
nodes = (
"881 471 LINE",
"880 472 LINE",
"879 373 OFFCURVE",
"849 216 OFFCURVE",
"639 73 CURVE",
"639 66 OFFCURVE",
"636 49 OFFCURVE",
"621 49 CURVE",
"609 37 LINE",
"640 26 OFFCURVE",
"673 14 OFFCURVE",
"704 -1 CURVE",
"710 -1 OFFCURVE",
"717 0 OFFCURVE",
"725 0 CURVE SMOOTH",
"743 0 OFFCURVE",
"765 -3 OFFCURVE",
"787 -19 CURVE",
"787 -24 OFFCURVE",
"786 -23 OFFCURVE",
"783 -26 CURVE",
"764 -17 OFFCURVE",
"750 -10 OFFCURVE",
"725 -13 CURVE",
"738 -20 OFFCURVE",
"751 -27 OFFCURVE",
"762 -43 CURVE",
"761 -46 OFFCURVE",
"758 -48 OFFCURVE",
"753 -49 CURVE",
"734 -30 OFFCURVE",
"714 -16 OFFCURVE",
"689 -17 CURVE",
"667 -17 OFFCURVE",
"661 -21 OFFCURVE",
"638 -31 CURVE",
"635 -28 OFFCURVE",
"633 -32 OFFCURVE",
"632 -25 CURVE",
"645 -10 OFFCURVE",
"655 -11 OFFCURVE",
"675 -4 CURVE",
"632 20 OFFCURVE",
"588 26 OFFCURVE",
"588 34 CURVE SMOOTH",
"588 38 OFFCURVE",
"592 43 OFFCURVE",
"599 49 CURVE",
"588 49 OFFCURVE",
"581 64 OFFCURVE",
"580 68 CURVE",
"553 68 LINE SMOOTH",
"534 68 OFFCURVE",
"517 69 OFFCURVE",
"498 72 CURVE",
"495 64 OFFCURVE",
"487 46 OFFCURVE",
"471 49 CURVE",
"464 45 OFFCURVE",
"459 42 OFFCURVE",
"456 39 CURVE",
"483 22 OFFCURVE",
"512 5 OFFCURVE",
"540 -18 CURVE",
"562 -23 OFFCURVE",
"589 -20 OFFCURVE",
"612 -51 CURVE",
"612 -56 OFFCURVE",
"610 -55 OFFCURVE",
"607 -58 CURVE",
"591 -43 OFFCURVE",
"585 -39 OFFCURVE",
"558 -35 CURVE",
"571 -43 OFFCURVE",
"580 -56 OFFCURVE",
"585 -74 CURVE",
"584 -77 OFFCURVE",
"582 -79 OFFCURVE",
"577 -78 CURVE",
"564 -57 OFFCURVE",
"548 -36 OFFCURVE",
"524 -31 CURVE",
"518 -30 OFFCURVE",
"511 -29 OFFCURVE",
"504 -29 CURVE SMOOTH",
"488 -29 OFFCURVE",
"471 -32 OFFCURVE",
"454 -36 CURVE",
"452 -33 OFFCURVE",
"451 -31 OFFCURVE",
"451 -28 CURVE",
"467 -17 OFFCURVE",
"487 -17 OFFCURVE",
"508 -16 CURVE",
"474 12 OFFCURVE",
"433 30 OFFCURVE",
"433 41 CURVE SMOOTH",
"433 48 OFFCURVE",
"438 48 OFFCURVE",
"446 55 CURVE",
"437 64 OFFCURVE",
"438 79 OFFCURVE",
"439 87 CURVE",
"322 151 OFFCURVE",
"262 254 OFFCURVE",
"225 315 CURVE",
"154 339 OFFCURVE",
"82 361 OFFCURVE",
"39 396 CURVE",
"30 404 OFFCURVE",
"32 418 OFFCURVE",
"45 418 CURVE",
"301 396 LINE",
"529 442 OFFCURVE",
"609 448 OFFCURVE",
"638 491 CURVE",
"678 562 OFFCURVE",
"717 589 OFFCURVE",
"774 589 CURVE SMOOTH",
"792 589 OFFCURVE",
"808 586 OFFCURVE",
"821 582 CURVE",
"821 583 LINE",
"895 609 LINE",
"896 609 OFFCURVE",
"898 609 OFFCURVE",
"898 607 CURVE SMOOTH",
"898 606 LINE",
"873 537 LINE",
"943 540 LINE",
"945 540 OFFCURVE",
"946 539 OFFCURVE",
"945 537 CURVE"
);
},
{
closed = 1;
nodes = (
"662 158 LINE",
"667 159 OFFCURVE",
"690 187 OFFCURVE",
"689 192 CURVE",
"673 207 OFFCURVE",
"638 235 OFFCURVE",
"599 270 CURVE",
"631 313 OFFCURVE",
"659 348 OFFCURVE",
"672 367 CURVE",
"664 374 OFFCURVE",
"648 387 OFFCURVE",
"635 393 CURVE",
"561 300 LINE",
"521 332 OFFCURVE",
"483 360 OFFCURVE",
"464 373 CURVE",
"457 365 OFFCURVE",
"444 350 OFFCURVE",
"438 334 CURVE",
"529 262 LINE",
"457 169 LINE",
"458 163 OFFCURVE",
"486 141 OFFCURVE",
"491 142 CURVE",
"569 230 LINE"
);
}
);
width = 965;
}
);
},
{
glyphname = cent;
layers = (
{
layerId = UUID0;
paths = (
{
closed = 1;
nodes = (
"328 420 OFFCURVE",
"336 417 OFFCURVE",
"348 417 CURVE SMOOTH",
"371 417 OFFCURVE",
"404 448 OFFCURVE",
"404 464 CURVE SMOOTH",
"404 474 OFFCURVE",
"398 480 OFFCURVE",
"389 487 CURVE SMOOTH",
"374 498 OFFCURVE",
"350 506 OFFCURVE",
"325 510 CURVE",
"316 512 OFFCURVE",
"299 512 OFFCURVE",
"299 545 CURVE SMOOTH",
"299 626 LINE SMOOTH",
"299 640 OFFCURVE",
"293 647 OFFCURVE",
"282 647 CURVE SMOOTH",
"272 647 OFFCURVE",
"251 634 OFFCURVE",
"234 614 CURVE SMOOTH",
"226 604 OFFCURVE",
"225 594 OFFCURVE",
"225 584 CURVE SMOOTH",
"225 466 LINE SMOOTH",
"225 450 OFFCURVE",
"233 446 OFFCURVE",
"245 445 CURVE SMOOTH",
"276 442 OFFCURVE",
"292 437 OFFCURVE",
"315 426 CURVE SMOOTH"
);
},
{
closed = 1;
nodes = (
"200 497 OFFCURVE",
"195 502 OFFCURVE",
"188 502 CURVE SMOOTH",
"184 502 OFFCURVE",
"179 501 OFFCURVE",
"175 499 CURVE",
"137 483 OFFCURVE",
"107 457 OFFCURVE",
"80 423 CURVE SMOOTH",
"76 418 OFFCURVE",
"65 400 OFFCURVE",
"65 391 CURVE SMOOTH",
"65 385 OFFCURVE",
"68 383 OFFCURVE",
"72 383 CURVE SMOOTH",
"77 383 OFFCURVE",
"87 390 OFFCURVE",
"97 397 CURVE SMOOTH",
"124 416 OFFCURVE",
"150 428 OFFCURVE",
"176 437 CURVE",
"187 440 OFFCURVE",
"200 442 OFFCURVE",
"200 477 CURVE SMOOTH"
);
},
{
closed = 1;
nodes = (
"196 78 OFFCURVE",
"189 83 OFFCURVE",
"175 100 CURVE SMOOTH",
"148 133 OFFCURVE",
"137 185 OFFCURVE",
"137 248 CURVE SMOOTH",
"137 314 OFFCURVE",
"152 358 OFFCURVE",
"152 372 CURVE SMOOTH",
"152 383 OFFCURVE",
"147 386 OFFCURVE",
"140 386 CURVE SMOOTH",
"119 386 OFFCURVE",
"82 362 OFFCURVE",
"67 339 CURVE SMOOTH",
"54 319 OFFCURVE",
"45 275 OFFCURVE",
"45 224 CURVE SMOOTH",
"45 146 OFFCURVE",
"61 85 OFFCURVE",
"96 44 CURVE SMOOTH",
"113 24 OFFCURVE",
"154 -4 OFFCURVE",
"173 -4 CURVE SMOOTH",
"183 -4 OFFCURVE",
"196 3 OFFCURVE",
"196 37 CURVE SMOOTH"
);
},
{
closed = 1;
nodes = (
"225 -125 LINE SMOOTH",
"225 -140 OFFCURVE",
"231 -146 OFFCURVE",
"242 -146 CURVE SMOOTH",
"252 -146 OFFCURVE",
"274 -134 OFFCURVE",
"291 -114 CURVE SMOOTH",
"299 -104 OFFCURVE",
"299 -94 OFFCURVE",
"299 -83 CURVE SMOOTH",
"299 -26 LINE SMOOTH",
"299 -9 OFFCURVE",
"310 -5 OFFCURVE",
"316 -3 CURVE SMOOTH",
"380 19 OFFCURVE",
"419 68 OFFCURVE",
"419 88 CURVE SMOOTH",
"419 96 OFFCURVE",
"414 99 OFFCURVE",
"407 99 CURVE SMOOTH",
"390 99 OFFCURVE",
"357 56 OFFCURVE",
"274 56 CURVE SMOOTH",
"265 56 OFFCURVE",
"254 58 OFFCURVE",
"245 58 CURVE SMOOTH",
"231 58 OFFCURVE",
"225 53 OFFCURVE",
"225 35 CURVE SMOOTH"
);
}
);
width = 468;
}
);
unicode = 00A2;
},
{
glyphname = currency;
layers = (
{
layerId = UUID0;
paths = (
{
closed = 1;
nodes = (
"227 433 OFFCURVE",
"188 425 OFFCURVE",
"152 399 CURVE",
"146 395 OFFCURVE",
"138 392 OFFCURVE",
"135 392 CURVE SMOOTH",
"132 392 OFFCURVE",
"128 392 OFFCURVE",
"124 397 CURVE",
"66 459 LINE SMOOTH",
"62 463 OFFCURVE",
"58 465 OFFCURVE",
"55 465 CURVE SMOOTH",
"44 465 OFFCURVE",
"39 441 OFFCURVE",
"39 430 CURVE SMOOTH",
"39 418 OFFCURVE",
"43 406 OFFCURVE",
"52 398 CURVE SMOOTH",
"101 353 LINE",
"106 348 OFFCURVE",
"111 345 OFFCURVE",
"116 345 CURVE SMOOTH",
"121 345 OFFCURVE",
"125 347 OFFCURVE",
"131 351 CURVE SMOOTH",
"167 374 OFFCURVE",
"208 379 OFFCURVE",
"233 379 CURVE SMOOTH",
"313 379 OFFCURVE",
"343 323 OFFCURVE",
"343 236 CURVE SMOOTH",
"343 211 OFFCURVE",
"338 161 OFFCURVE",
"325 134 CURVE SMOOTH",
"316 115 OFFCURVE",
"309 107 OFFCURVE",
"309 103 CURVE SMOOTH",
"309 99 OFFCURVE",
"312 97 OFFCURVE",
"315 97 CURVE SMOOTH",
"327 97 OFFCURVE",
"344 102 OFFCURVE",
"361 115 CURVE",
"363 117 OFFCURVE",
"367 120 OFFCURVE",
"371 120 CURVE SMOOTH",
"375 120 OFFCURVE",
"379 118 OFFCURVE",
"383 113 CURVE",
"444 49 LINE SMOOTH",
"448 45 OFFCURVE",
"452 43 OFFCURVE",
"456 43 CURVE SMOOTH",
"464 43 OFFCURVE",
"471 59 OFFCURVE",
"471 78 CURVE SMOOTH",
"471 92 OFFCURVE",
"466 102 OFFCURVE",
"458 110 CURVE SMOOTH",
"410 155 LINE",
"404 160 OFFCURVE",
"403 164 OFFCURVE",
"403 168 CURVE SMOOTH",
"403 173 OFFCURVE",
"404 176 OFFCURVE",
"405 180 CURVE",
"415 208 OFFCURVE",
"418 239 OFFCURVE",
"418 263 CURVE SMOOTH",
"418 288 OFFCURVE",
"415 310 OFFCURVE",
"408 330 CURVE SMOOTH",
"407 333 OFFCURVE",
"405 337 OFFCURVE",
"405 341 CURVE SMOOTH",
"405 346 OFFCURVE",
"408 352 OFFCURVE",
"414 357 CURVE",
"458 398 LINE",
"466 407 OFFCURVE",
"471 417 OFFCURVE",
"471 430 CURVE SMOOTH",
"471 449 OFFCURVE",
"464 465 OFFCURVE",
"456 465 CURVE SMOOTH",
"452 465 OFFCURVE",
"448 463 OFFCURVE",
"444 459 CURVE",
"390 401 LINE",
"384 395 OFFCURVE",
"378 393 OFFCURVE",
"374 393 CURVE SMOOTH",
"367 393 OFFCURVE",
"361 397 OFFCURVE",
"358 400 CURVE",
"331 421 OFFCURVE",
"296 433 OFFCURVE",
"254 433 CURVE SMOOTH"
);
},
{
closed = 1;
nodes = (
"170 301 OFFCURVE",
"182 329 OFFCURVE",
"182 335 CURVE SMOOTH",
"182 342 OFFCURVE",
"177 344 OFFCURVE",
"173 344 CURVE SMOOTH",
"159 344 OFFCURVE",
"126 332 OFFCURVE",
"113 317 CURVE SMOOTH",
"104 307 OFFCURVE",
"95 277 OFFCURVE",
"95 249 CURVE SMOOTH",
"95 223 OFFCURVE",
"97 198 OFFCURVE",
"104 176 CURVE",
"104 174 OFFCURVE",
"105 170 OFFCURVE",
"105 167 CURVE SMOOTH",
"105 162 OFFCURVE",
"103 157 OFFCURVE",
"97 152 CURVE",
"52 110 LINE SMOOTH",
"44 102 OFFCURVE",
"39 92 OFFCURVE",
"39 78 CURVE SMOOTH",
"39 59 OFFCURVE",
"46 43 OFFCURVE",
"55 43 CURVE SMOOTH",
"58 43 OFFCURVE",
"63 45 OFFCURVE",
"66 49 CURVE",
"123 109 LINE",
"127 114 OFFCURVE",
"131 116 OFFCURVE",
"135 116 CURVE SMOOTH",
"140 116 OFFCURVE",
"144 112 OFFCURVE",
"146 110 CURVE",
"167 96 OFFCURVE",
"194 87 OFFCURVE",
"230 87 CURVE SMOOTH",
"280 87 OFFCURVE",
"304 125 OFFCURVE",
"304 139 CURVE SMOOTH",
"304 143 OFFCURVE",
"302 146 OFFCURVE",
"296 146 CURVE SMOOTH",
"289 146 OFFCURVE",
"277 141 OFFCURVE",
"250 141 CURVE SMOOTH",
"181 141 OFFCURVE",
"170 195 OFFCURVE",
"170 263 CURVE SMOOTH"
);
}
);
width = 510;
}
);
unicode = 00A4;
},
{
glyphname = dollar;
layers = (
{
layerId = UUID0;
paths = (
{
closed = 1;
nodes = (
"282 700 OFFCURVE",
"277 703 OFFCURVE",
"277 719 CURVE SMOOTH",
"277 785 LINE SMOOTH",
"277 799 OFFCURVE",
"271 806 OFFCURVE",
"260 806 CURVE SMOOTH",
"234 806 OFFCURVE",
"189 783 OFFCURVE",
"189 745 CURVE SMOOTH",
"189 640 LINE SMOOTH",
"189 624 OFFCURVE",
"195 619 OFFCURVE",
"206 619 CURVE SMOOTH",
"243 619 OFFCURVE",
"268 613 OFFCURVE",
"292 604 CURVE SMOOTH",
"310 597 OFFCURVE",
"324 590 OFFCURVE",
"339 590 CURVE SMOOTH",
"367 590 OFFCURVE",
"405 619 OFFCURVE",
"405 642 CURVE SMOOTH",
"405 674 OFFCURVE",
"342 691 OFFCURVE",
"292 698 CURVE"
);
},
{
closed = 1;
nodes = (
"98 638 OFFCURVE",
"81 625 OFFCURVE",
"58 596 CURVE SMOOTH",
"49 585 OFFCURVE",
"31 558 OFFCURVE",
"31 546 CURVE SMOOTH",
"31 536 OFFCURVE",
"36 534 OFFCURVE",
"42 534 CURVE SMOOTH",
"49 534 OFFCURVE",
"63 546 OFFCURVE",
"75 556 CURVE SMOOTH",
"102 578 OFFCURVE",
"121 591 OFFCURVE",
"148 603 CURVE SMOOTH",
"160 608 OFFCURVE",
"160 616 OFFCURVE",
"160 642 CURVE SMOOTH",
"160 663 OFFCURVE",
"156 668 OFFCURVE",
"150 668 CURVE SMOOTH",
"146 668 OFFCURVE",
"140 666 OFFCURVE",
"126 657 CURVE SMOOTH"
);
},
{
closed = 1;
nodes = (
"292 -57 LINE SMOOTH",
"292 -17 OFFCURVE",
"321 -3 OFFCURVE",
"338 4 CURVE SMOOTH",
"382 23 OFFCURVE",
"453 76 OFFCURVE",
"453 176 CURVE SMOOTH",
"453 253 OFFCURVE",
"441 355 OFFCURVE",
"251 392 CURVE SMOOTH",
"162 409 OFFCURVE",
"135 423 OFFCURVE",
"135 519 CURVE SMOOTH",
"135 536 OFFCURVE",
"127 538 OFFCURVE",
"117 538 CURVE SMOOTH",
"93 538 OFFCURVE",
"52 505 OFFCURVE",
"43 477 CURVE SMOOTH",
"41 471 OFFCURVE",
"39 460 OFFCURVE",
"39 450 CURVE SMOOTH",
"39 402 OFFCURVE",
"52 323 OFFCURVE",
"219 298 CURVE SMOOTH",
"344 279 OFFCURVE",
"360 213 OFFCURVE",
"360 143 CURVE SMOOTH",
"360 103 OFFCURVE",
"344 70 OFFCURVE",
"311 24 CURVE",
"306 18 OFFCURVE",
"286 -9 OFFCURVE",
"250 -26 CURVE",
"219 -42 OFFCURVE",
"204 -46 OFFCURVE",
"204 -80 CURVE SMOOTH",
"204 -132 LINE SMOOTH",
"204 -146 OFFCURVE",
"210 -153 OFFCURVE",
"221 -153 CURVE SMOOTH",
"247 -153 OFFCURVE",
"292 -130 OFFCURVE",
"292 -92 CURVE SMOOTH"
);
},
{
closed = 1;
nodes = (
"257 -15 OFFCURVE",
"297 49 OFFCURVE",
"297 66 CURVE SMOOTH",
"297 75 OFFCURVE",
"294 81 OFFCURVE",
"285 81 CURVE SMOOTH",
"272 81 OFFCURVE",
"259 65 OFFCURVE",
"222 65 CURVE SMOOTH",
"202 65 OFFCURVE",
"186 67 OFFCURVE",
"145 101 CURVE SMOOTH",
"133 111 OFFCURVE",
"121 118 OFFCURVE",
"108 118 CURVE SMOOTH",
"84 118 OFFCURVE",
"60 98 OFFCURVE",
"51 89 CURVE SMOOTH",
"43 81 OFFCURVE",
"40 73 OFFCURVE",
"40 65 CURVE SMOOTH",
"40 55 OFFCURVE",
"47 43 OFFCURVE",
"57 33 CURVE SMOOTH",
"100 -10 OFFCURVE",
"141 -15 OFFCURVE",
"167 -15 CURVE SMOOTH"
);
}
);
width = 499;
}
);
unicode = 0024;
},
